<?xml version="1.0" encoding="utf-8"?>
<svg version="1.1" xmlns:xlink="http://www.w3.org/1999/xlink" width="360px" height="96px" xmlns="http://www.w3.org/2000/svg">
  <g transform="matrix(1 0 0 1 -20 -311 )">
    <path d="M 184.399020195476 34.5130620088123  C 184.23497280189 34.6448593350828  183.617382614273 35.1373651332516  183.47263491405 35.2483523553741  C 178.27136755271 39.389563080821  175.357113854891 41.297155961052  171.120831161704 42.9064706818287  C 165.581819166511 45.0082912007741  159.116421889892 45.6742145335093  150.933351903963 44.7516332496157  C 147.247110471622 44.3354311666562  143.74421612623 43.9261657850794  139.623731593221 43.4405966882933  C 138.716646005158 43.3296094661708  131.990702868139 42.5318888071651  130.195831385376 42.3237877656854  C 123.354090088178 41.519130405297  118.944110154723 41.0474347112763  114.524480374587 40.6659161352301  C 106.7370541026 39.9930561011122  99.24877307774 39.6670311361273  89.3769799225446 39.5907274209181  C 79.6209849275276 39.5144237057088  72.9143414838709 41.539940509445  59.8966983104999 47.3459595667299  C 59.7616004569586 47.4083898791738  59.0378619558446 47.7274781427761  58.8352151755327 47.8176552607506  C 58.4202717682273 48.0049461980824  58.0921769810556 48.1506169271182  57.7737320405654 48.2893509547714  C 46.2518151028301 53.408636575173  39.5065722724474 55.4202799761439  30.5322148586335 55.4202799761439  C 25.2247991837973 55.4202799761439  19.3480425547514 54.4075215742758  13.2107400653044 52.6872196313766  C 9.15780445906584 51.542663903238  5.63561042031091 50.2801842515942  2.75995610921784 49.1009450165424  C 2.43186132204615 48.9691476902719  1.2256304868561 48.8096035584707  0.617690145920318 48.6639328294349  C 0.617690145920318 49.0315780027158  0.617690145920318 91.837962235099  0.617690145920318 91.837962235099  C 0.617690145920318 91.837962235099  0.617690145920318 95.9999830646939  6.40759815483254 95.9999830646939  C 48.9730718670189 95.9999830646939  311.391002524284 95.9999830646939  353.802078689566 95.9999830646939  C 359.582336851796 95.9999830646939  359.601636545159 91.837962235099  359.591986698478 91.837962235099  C 359.582336851796 91.837962235099  359.601636545159 11.7190612653978  359.601636545159 11.7190612653978  C 358.289257396473 11.7259979667804  357.372521961728 11.795364980607  356.359288060169 12.0658963345307  C 355.992593886271 12.1699468552705  355.645199405736 12.2878707787757  355.336404311927 12.4335415078115  C 355.220606151749 12.4959718202555  353.657330989343 13.2798190764958  352.962542028273 13.6127807428634  C 351.592263799498 14.2648306728333  350.202685877359 14.8544502903592  348.678010101678 15.4163231023545  C 343.119698413123 17.455713308856  336.856947916816 18.6557626480559  329.677461985765 18.6557626480559  C 321.687388933466 18.6557626480559  315.550086444019 16.6718660526157  306.865224430651 12.1144532442093  C 306.141485929537 11.7329346681631  305.39844773506 11.3375426893516  304.404513526863 10.7964799815042  C 304.124667973099 10.6438725510857  303.092134378176 10.0958731418558  303.169333151628 10.130556648769  C 302.667541124189 9.86696199622804  302.29119710361 9.66579765613095  301.924502929712 9.46463331603387  C 290.238538598391 3.20772866887625  282.537960946538 0.689706066971348  270.813397228491 0.689706066971348  C 266.924509015838 0.689706066971348  263.025970956504 1.86200860064057  258.490543016189 4.23436047350965  C 256.599173066611 5.22630877122976  254.620954496899 6.40554800628164  252.160243593112 7.98711592152769  C 250.81891490438 8.84033019159464  246.129089417161 11.9410357096428  245.492199536181 12.3503010912196  C 232.513155749536 20.8061400766799  223.307202015366 24.5519588233153  210.984347803064 24.5519588233153  C 204.576849606535 24.5519588233153  199.47208071201 25.5994007320967  194.965602311741 27.6179808344502  C 191.482007659712 29.1787386455482  188.924798289109 30.9198506925954  184.399020195476 34.5130620088123  Z " fill-rule="nonzero" fill="#518cfe" stroke="none" transform="matrix(1 0 0 1 20 311 )" />
  </g>
</svg>