<?xml version="1.0" encoding="utf-8"?>
<svg version="1.1" xmlns:xlink="http://www.w3.org/1999/xlink" width="320px" height="12px" xmlns="http://www.w3.org/2000/svg">
  <g transform="matrix(1 0 0 1 -672 -79 )">
    <path d="M 1.97250035824463 10.1152973863568  C 2.70513387358865 10.1577132639092  3.28851642692515 10.1998606403618  3.72265659589567 10.2417409749596  C 4.73675683924627 10.3405712683848  5.83823751650323 10.4402858643455  7.02710720530803 10.5408862220867  C 8.91530342753299 10.7006633466901  10.8011665312714 10.8432666156181  12.6847050941647 10.9686931103807  C 15.1378505181541 11.1320512224789  17.4846074546849 11.2591952487335  19.7249759037572 11.3501251891444  C 22.4077791011252 11.4590038443829  24.8793664543282 11.5134439016247  27.1397465410075 11.5134439016247  C 29.340083137224 11.5134439016247  31.5385326523118 11.4693265442764  33.7350950862706 11.3810903703348  C 35.7062971452397 11.3019015160624  37.7420802670222 11.1842527977252  39.8424616069011 11.028142756078  C 41.6117974509342 10.8966458016665  43.5595568156983 10.7273149993414  45.6857225459103 10.5201503491029  C 46.5437182916991 10.4365545746045  47.5049802634425 10.3396461069864  48.5695256164233 10.2294249462486  C 49.2113047530556 10.1629811387489  50.1749169985685 10.0618890154063  51.460362352962 9.926150035466  C 52.8180314487407 9.78279379606224  53.8400831657569 9.67564580552174  54.526526081652 9.60470752308959  C 55.6757584891098 9.4859249713035  56.7194258626926 9.3811322023672  57.6575367800418 9.29032775703559  C 60.0222209872965 9.06144078412031  62.215378097582 8.87364469419944  64.2370166885398 8.72694240576319  C 66.6850755711228 8.54929390632291  69.0860689348245 8.41591452572212  71.4400053572864 8.32680280471572  C 74.0957032075312 8.22626081677885  76.7748094414151 8.17848075420966  79.4773412142209 8.18346115776304  C 83.65768052958 8.19087412291137  87.4763607465988 8.21131814687357  90.9333818652771 8.24479322964965  C 94.2106156182268 8.27652743301196  97.4478175183208 8.32285846518896  100.644987565559 8.38378632618067  C 103.440157866508 8.43706774280678  106.591008649675 8.50929599791435  110.097548492702 8.60046963225827  C 112.277984960651 8.65716568243695  115.843135828011 8.75519339105285  120.793009672424 8.89455129886085  C 126.470833639925 9.05440722270005  131.059871839582 9.18112223089289  134.560124271393 9.27469924192958  C 138.089540684287 9.36896647590233  141.281281084459 9.37960875047451  144.13534547191 9.30662752489125  C 146.650309958151 9.24231421524913  148.988858091772 9.11005699413635  151.150998450413 8.90985878004312  C 152.971748677565 8.74122841536989  154.810220312045 8.50951050694522  156.666421931495 8.21470359552398  C 157.422395209346 8.09464712275866  158.248422085284 7.95368842306725  159.144502559309 7.79182895569485  C 159.687750328092 7.69377789915722  160.496913560852 7.54346106058861  161.571975102305 7.34087843998901  C 162.560694104473 7.15463936459831  163.308947504979 7.0152624866039  163.816743881464 6.92274634676068  C 164.671076974335 6.76723021787248  165.461652457975 6.62977808417545  166.188461754744 6.51039286415978  C 168.029798321484 6.20775564348935  169.848541380526 5.95847280170043  171.644699509513 5.76254433879303  C 173.822279622845 5.52504781974092  176.135094831981 5.34548187222881  178.583153714564 5.22384941474692  C 181.321136879667 5.08781858578501  184.307296946136 5.01980317130406  187.541642491613 5.01980317130406  C 190.670766108874 5.01980317130406  193.746991411037 4.93633872886537  196.770326975744 4.76941130323311  C 199.455703465561 4.62113303008029  202.169094532499 4.40273219251064  204.9105087542 4.1142102497693  C 207.196167150364 3.87360991637261  209.642510504648 3.56815635264386  212.249538817052 3.19784809933796  C 213.290289792527 3.05002656990392  214.438552926496 2.88036014120405  215.694319641318 2.68884881323837  C 216.447436564551 2.57394785343939  217.559381964431 2.40162122090776  219.030164418601 2.17186745639837  C 220.20873235997 1.98772093849245  221.089939203644 1.8507999700147  221.673793527262 1.76110455096512  C 222.645923370779 1.61174059945199  223.51770338645 1.48079523969124  224.289116418992 1.36826555319267  C 226.220801283595 1.08649991530107  227.966068265594 0.856442627809223  229.524908787347 0.678093690717135  C 231.414280146457 0.461905068731127  233.219298979108 0.298643266810002  234.939973862942 0.188306825708653  C 236.897966354009 0.062769428317921  238.825645460034 0  240.723019758658 0  C 244.06201253037 0  247.268617983252 0.0633458301355562  250.342844694947 0.190038949651774  C 253.067678335639 0.302329319952652  255.754761776113 0.467508569945606  258.404112171652 0.685576699630637  C 260.587404994219 0.865262305241595  262.882215733858 1.09314969525794  265.288527235286 1.36923886967966  C 266.238355210917 1.47829555282135  267.28225418082 1.60352213100409  268.420224144995 1.7449215227181  C 269.098432525056 1.82918854996615  270.098010821356 1.95562192385315  271.418967611537 2.12422310362422  C 272.556937575713 2.26944717676613  273.407839611985 2.37728976797802  273.971673720355 2.44775233650498  C 274.905495816957 2.56442336061989  275.747528571924 2.66667850231348  276.49778914054 2.75451484309555  C 278.346553944814 2.97093986278904  280.04864965717 3.14712911712138  281.604059122326 3.28308260609257  C 283.43853357587 3.44339527365055  285.241262178242 3.56396831918408  287.012262084725 3.64480028344805  C 288.979973043605 3.73456282777259  290.991429974109 3.77944482955742  293.046632876235 3.77944482955742  C 297.797505437972 3.77944482955742  302.288758524589 3.62763956097871  306.520392136086 3.32402902382129  C 308.019189167377 3.21648265936631  309.479961513922 3.08988876851744  310.902709175721 2.94424589202955  C 311.703286189344 2.86231365695419  312.640256280375 2.75716629145667  313.713602293529 2.62880087704676  C 314.06642642113 2.58659950852521  314.31032307939 2.55796911950748  314.445275113025 2.54290970999357  C 315.313907134268 2.44586991031574  316.340359181371 2.38039796005793  317.524648409617 2.34649531846522  C 318.138807540637 2.3289157926499  318.833021799726 2.32015156653163  319.607299764527 2.32019972162019  L 319.637321509758 2.32019972162019  L 319.637321509758 2.75797325400136  L 319.606442000377 2.75797325400136  C 318.975702288349 2.75793385438344  318.42415994024 2.76468140376255  317.951814956053 2.77821298364845  C 317.122640085686 2.80193009438775  316.424420068019 2.84546959067328  315.857154903051 2.90883001325991  C 315.74507086164 2.92136055100177  315.523767711077 2.94738764674693  315.193245451362 2.98691421898563  C 314.070149117538 3.12126253833809  313.08228787952 3.23207761183484  312.229670314948 3.31935943947589  C 310.701709302576 3.47575111542885  309.132000909048 3.61176297420435  307.520545134366 3.7273935565573  C 302.969248557287 4.05394342681149  298.144608278696 4.21721836193858  293.046632876235 4.21721836193858  C 290.764980238649 4.21721836193858  288.531362393433 4.16735595660037  286.345779340588 4.06763114592394  C 284.397513894975 3.9787339339484  282.424939413367 3.84700787805491  280.428064473405 3.67245297824346  C 278.77486989521 3.52795852765552  276.978711766223 3.34220100315043  275.039590086444 3.11518186397331  C 274.267027649942 3.02478600727193  273.403259151427 2.91991589834491  272.448284590899 2.80056861870205  C 271.877013667353 2.72920131820816  271.019249517885 2.62047880219619  269.874992142494 2.47439815217592  C 268.563187695787 2.30697458320696  267.572470103151 2.18164877635688  266.902839364586 2.09842365011589  C 265.790602324894 1.96022292367848  264.772727919286 1.83813810021313  263.849198992478 1.73216772047473  C 261.544669785025 1.46775104767139  259.356230377562 1.25024910508824  257.283872192446 1.07965897423506  C 254.799212513605 0.875172038769598  252.283681903025 0.720454116955445  249.737263205423 0.615506668037708  C 246.862037776404 0.497017424518313  243.857289960816 0.43777353238117  240.723019758658 0.43777353238117  C 239.137871610441 0.43777353238117  237.512691609367 0.491165851635485  235.847488333079 0.597950490144115  C 234.31323133185 0.696309447399516  232.684337212009 0.844104710421614  230.960805973558 1.04133773845552  C 229.485451636472 1.21016510121832  227.819956720373 1.42992449598345  225.964329802904 1.70061884124112  C 225.208922649391 1.81077287670398  224.353731792371 1.93922438657526  223.398757231843 2.08597628934519  C 222.821765021421 2.17462105191705  221.945704762644 2.310733598605  220.770567877872 2.49431684789926  C 219.291207782208 2.72537371829004  218.171542504983 2.89887358388845  217.411563468553 3.01481498544939  C 216.133494885845 3.20974094696765  214.962646821821 3.38276363941576  213.89901927648 3.53388306279374  C 211.198777733953 3.91747044658188  208.65379150248 4.23500655980434  206.264060582061 4.48649286170624  C 203.347087771888 4.79354721731839  200.447278822346 5.02665140859561  197.564616578152 5.185806894783  C 194.282810942285 5.36698676738448  190.941819580106 5.45757670368523  187.541642491613 5.45757670368523  C 184.552617492884 5.45757670368523  181.806914450436 5.51974054528335  179.304533364267 5.6440682284796  C 177.093792088917 5.75392020020512  175.003420856663 5.91625684072781  173.033419667503 6.13107669080258  C 171.380791213646 6.3113620461529  169.695001597772 6.5427545429185  167.976042242237 6.82525418109939  C 167.281253281167 6.93945470324656  166.521557306908 7.07158497003495  165.696962897099 7.22164352221946  C 165.198884988427 7.31231079851092  164.460641695546 7.44985048691444  163.482215863171 7.63425966893979  C 162.395145623626 7.8390501273877  161.573690630604 7.99163901058937  161.017859461748 8.0920248592997  C 160.083471240808 8.26070337906149  159.218270276164 8.40825786664077  158.422265145457 8.53468686279246  C 156.407094096186 8.85478686966957  154.393346935403 9.10800967324991  152.38103224075 9.2943552735335  C 149.953559697755 9.51917678957806  147.332515519148 9.66757180233952  144.517908282573 9.73954177106298  C 141.403083593683 9.8191873690542  137.950582892073 9.80839333299079  134.160406177741 9.70716112211786  C 130.652150806415 9.61336084657965  126.056250493563 9.48645467727768  120.372705239185 9.32644407345703  C 115.433124564565 9.18737801467062  111.878549929168 9.08963777734098  109.708981332993 9.03322336146813  C 106.236177353964 8.94292527418897  103.119062434796 8.87146166351796  100.357636575487 8.81883107020999  C 97.207926618639 8.7587875117537  94.0176186845964 8.71312773232634  90.7867041957179 8.68185173192792  C 87.3697749733858 8.64877502306631  83.590663416582 8.62856010058606  79.4493781029482 8.62120550524205  C 76.9448783393302 8.61659429070097  74.4613937973741 8.66089697217794  71.99892447708 8.75411354967298  C 69.7997287071823 8.83737807553187  67.548955578977 8.9625477431554  65.2466050924641 9.12962109329846  C 63.3151518241815 9.26977720818051  61.2096496323302 9.45017784389436  58.9301156721932 9.67082591893022  C 58.0133373492413 9.75956699167921  56.9908224395844 9.86223947747367  55.8625795208641 9.97884337631361  C 55.1836334636353 10.049014095819  54.1685811020788 10.1554368415408  52.817431013836 10.2981116134792  C 51.525698248227 10.4345116314534  50.5556785045175 10.5362750075456  49.9073803603493 10.6034002825107  C 48.8234495375904 10.7156264460269  47.8425447668242 10.8145048945407  46.9646488927677 10.9000356280522  C 44.7578533325057 11.1150510169714  42.7271824850541 11.2914737505211  40.8726363504127 11.4293038287011  C 38.6303293543627 11.5959598347432  36.4482888674543 11.7219072800093  34.3265234673291 11.8071461644992  C 31.9355316336102 11.9031936775037  29.5399421840502 11.9512174340059  27.1397465410075 11.9512174340059  C 24.6775602828827 11.9512174340059  22.0069459140786 11.8927936376194  19.1278862793121 11.7759475040915  C 16.7713765644018 11.6803085797173  14.3110001886324 11.5471130640002  11.7467399967209 11.3763624161851  C 9.79249593498688 11.2462269374592  7.83727402212246 11.0983908155741  5.88108283576913 10.9328540505297  C 4.64712906326827 10.8284406853215  3.50457006089327 10.7250035550905  2.45342298392712 10.6225455783269  C 2.15987035905453 10.5942362232329  1.72323409640909 10.5633002269446  1.14351419599082 10.5297375894621  C 0.922391175899343 10.5169356321301  0.719975991907771 10.5061124111646  0.536260066374613 10.4972693858105  C 0.465657499231863 10.4938649669737  0.409722699045023 10.4913346359565  0.368438510531105 10.4896813112492  C 0.362408428560342 10.4894376173162  0.357639259889297 10.4892537524326  0.354122426876477 10.4891267981082  C 0.354774327630073 10.4891559830103  0.356824383947302 10.4892245675304  0.360264018186671 10.4893310924233  C 0.417142358937926 10.4910924012686  0.480076514584428 10.4919723260687  0.549057907484727 10.4919723260687  L 0.549057907484727 10.0541987936875  C 0.794378454232667 10.0541987936875  1.26885927115265 10.074565477659  1.97250035824463 10.1152973863568  Z " fill-rule="nonzero" fill="#0085fe" stroke="none" transform="matrix(1 0 0 1 672 79 )" />
  </g>
</svg>