<?xml version="1.0" encoding="utf-8"?>
<svg version="1.1" xmlns:xlink="http://www.w3.org/1999/xlink" width="1428px" height="41px" xmlns="http://www.w3.org/2000/svg">
  <g transform="matrix(1 0 0 1 -36 -186 )">
    <path d="M 8.80228284866667 34.5605994033858  C 12.0716599108893 34.7055203183566  14.6750045551535 34.8495238545694  16.6123550591844 34.9926149977786  C 21.1377773951365 35.3302851669816  26.0531349173957 35.6709767031805  31.3584659036871 36.0146945921296  C 39.784541545366 36.5605997678578  48.2002056457986 37.047827603362  56.6054964827101 37.476368127134  C 67.5526579372628 38.0345083434696  78.0250607665315 38.4689170998394  88.0227049705163 38.7795943962433  C 99.9947142387714 39.1515964683082  111.02417280244 39.3375999972178  121.111118939246 39.3375999972178  C 130.930120999862 39.3375999972178  140.740701960941 39.1868656929445  150.542861822483 38.8853920986439  C 159.339351010632 38.6148301798798  168.424033191586 38.212863725561  177.796984920796 37.6794877499333  C 185.692646124794 37.2302064890272  194.384522290054 36.6516595810833  203.872536861125 35.9438470261017  C 207.701342876707 35.6582281298988  211.990974425612 35.3271241988702  216.741508063289 34.950535233016  C 219.605447460511 34.7235188907254  223.905567106112 34.3781208026383  229.641867000093 33.9143459545088  C 235.700465340005 33.4245454698793  240.26137112719 33.0584565021993  243.324622639372 32.8160840372228  C 248.453072257653 32.4102436519536  253.110437912266 32.0522016914213  257.296757880937 31.7419531698716  C 267.849161155811 30.9599226790777  277.63612476046 30.3182860385148  286.657686972609 29.8170532196909  C 297.582149736136 29.2100875132699  308.296582621654 28.7543746295506  318.80102390689 28.4499095827787  C 330.652075563608 28.1063911239944  342.607587132315 27.943142576883  354.667635168461 27.9601589556904  C 373.322399363251 27.9854865866138  390.363259831697 28.055337001818  405.790216573799 28.169710201303  C 420.414872196337 28.2781353961242  434.860885675507 28.4364330893956  449.128257011308 28.6446032811173  C 461.60170447929 28.8266481212565  475.662376099173 29.073427992874  491.310310148682 29.3849379102157  C 501.040507886904 29.5786494149929  516.949993632499 29.9135774194306  539.038805663193 30.3897169377746  C 564.376095118167 30.9358913442252  584.854678084134 31.368834288884  600.474554561093 31.6885557432594  C 616.22457530363 32.0106354593329  630.467716839398 32.0469965641213  643.203979168398 31.7976440433784  C 654.427008188251 31.5779069021012  664.862779234532 31.1260280632992  674.511330584966 30.4420174984806  C 682.636428473633 29.8658637525138  690.840608142501 29.0741608987295  699.123907869296 28.0669039513736  C 702.497438621706 27.6567110027588  706.18358355558 27.1751021121464  710.182342670918 26.6220822652907  C 712.606585839112 26.2870744887872  716.217476765301 25.7734919570111  721.014938894037 25.0813346699624  C 725.427097441211 24.4450178290442  728.766178240968 23.9688134958967  731.032219571034 23.6527166847656  C 734.844680997969 23.1213699110643  738.372624093715 22.6517417875994  741.616010580547 22.2438422858792  C 749.832975009622 21.2098317819219  757.949115910599 20.3581154058098  765.964471561204 19.6886931575428  C 775.681922816944 18.8772467174481  786.002860687715 18.2637297301151  796.927323451242 17.848152167052  C 809.145573325516 17.3833801680988  822.471312622134 17.1509941686222  836.904579618822 17.1509941686222  C 850.868293760849 17.1509941686222  864.595949171753 16.86582399029  878.087584129258 16.2954886193798  C 890.071076715064 15.7888711861076  902.179584351275 15.0426683244114  914.413145315617 14.0568850200451  C 924.6128959085 13.2348338809397  935.529703126993 12.1912008715332  947.163566971096 10.9259810060713  C 951.807918199151 10.4209241138384  956.932042434487 9.84123048244718  962.53590139938 9.18690011189777  C 965.896685669309 8.7943218325846  970.858742016275 8.20553917143486  977.422108718005 7.42054714269444  C 982.681468156367 6.79137987318254  986.61385369626 6.32356656421689  989.219303615408 6.0171072157975  C 993.557433042104 5.50678038146097  997.447751362035 5.05938373561175  1000.89018201975 4.67490730674161  C 1009.51032572804 3.71220804394531  1017.29857963521 2.92617897834818  1024.25490546354 2.31682010995021  C 1032.68622515356 1.57817565149802  1040.74112169427 1.02036449493417  1048.41963336338 0.643381654504563  C 1057.15717485477 0.214462213419563  1065.7594428654 0  1074.22647567301 0  C 1089.12673091678 0  1103.43620775026 0.216431586296484  1117.1549444512 0.649299744643561  C 1129.31451457279 1.03295850983823  1141.30562442591 1.59732094731415  1153.128350566 2.34238705707134  C 1162.8712947867 2.95631287624212  1173.11188771234 3.73492812546462  1183.85005278746 4.67823280473884  C 1188.08866012872 5.05084313880627  1192.74705928191 5.47870061426397  1197.82525024704 5.96181520262017  C 1200.85175514306 6.24972754571768  1205.3123732903 6.68170823983161  1211.20714296648 7.25776227071609  C 1216.28533393162 7.75394452061762  1220.08248426848 8.12240670725823  1222.59859397709 8.36315381639203  C 1226.76577508317 8.76177981545129  1230.52334625221 9.11115154957106  1233.87138403966 9.41125904724312  C 1242.12149697873 10.1507111978626  1249.71709909512 10.7526911501647  1256.65811383338 11.2171989041496  C 1264.84445608232 11.7649338516394  1272.8891324704 12.1768917572123  1280.79221955308 12.4530676351142  C 1289.57312970709 12.759756328223  1298.54925625946 12.9131031676545  1307.7205992102 12.9131031676545  C 1328.92136801695 12.9131031676545  1348.96358491598 12.3944351666772  1367.84724990728 11.3570991647227  C 1374.53563165942 10.9896490861682  1381.05432825588 10.5571199591012  1387.40333969665 10.0595067977676  C 1390.97591461995 9.77957166126016  1395.15714365117 9.42031816247695  1399.94695023487 8.98173632990975  C 1401.52142790429 8.83754832079447  1402.60981674178 8.7397278249839  1403.21204019188 8.68827484247803  C 1407.08831058667 8.3567221935788  1411.66885284687 8.13302636353125  1416.95374352792 8.0171923380895  C 1419.69442865009 7.95712895822049  1422.79235978128 7.92718451898307  1426.2475751992 7.92734904886898  L 1426.3815472373 7.92734904886898  L 1426.3815472373 9.42307528450464  L 1426.24374742668 9.42307528450464  C 1423.42907146176 9.42294066914343  1420.96781373332 9.4459947961887  1418.85997424139 9.4922276941322  C 1415.15978138237 9.57326115582482  1412.04397455353 9.72202110146702  1409.51255375486 9.93850254530469  C 1409.01237872007 9.9813152159227  1408.02481341068 10.0702411263854  1406.5498578267 10.2052902482009  C 1401.53804043702 10.6643136726551  1397.12970966236 11.0429318404357  1393.32490378046 11.3411447515426  C 1386.50637776274 11.8754829777152  1379.50155405663 12.3401901618649  1372.31043266211 12.7352613182374  C 1352.00027168689 13.8509733749393  1330.47031444368 14.4088294032902  1307.7205992102 14.4088294032902  C 1297.53872431497 14.4088294032902  1287.5712046807 14.2384661850513  1277.81804030737 13.8977397485735  C 1269.12390575633 13.594007607657  1260.32129213215 13.1439435833543  1251.41023771257 12.5475476756652  C 1244.03285690737 12.053858302823  1236.01750125677 11.419186760764  1227.36417076075 10.6435380352422  C 1223.91661088787 10.3346855248457  1220.06204396324 9.9763793193451  1215.80046998689 9.56860944723199  C 1213.25117349056 9.32477117054455  1209.42340097356 8.95330257417032  1204.31715243588 8.45419368660105  C 1198.46322509245 7.88216315929043  1194.04214783531 7.45396665255266  1191.05392066446 7.16961413789596  C 1186.09056287484 6.69742832256814  1181.54829833981 6.28030517572819  1177.42705050393 5.91823971162199  C 1167.14308891568 5.01481607954393  1157.37717805987 4.27168444238483  1148.12927965879 3.68883482863645  C 1137.04148584196 2.99017113246279  1125.81593049225 2.46155156626444  1114.4525370542 2.1029811157955  C 1101.6218435772 1.69814286710424  1088.21315645014 1.49572623563566  1074.22647567301 1.49572623563566  C 1067.15275206159 1.49572623563566  1059.9003863068 1.67814999308791  1052.46941668637 2.04299750799239  C 1045.62279481838 2.37905727861501  1038.35385480859 2.88402442727385  1030.662596657 3.55790393972302  C 1024.07882792776 4.13473076249591  1016.64655686467 4.88557536127677  1008.36582174546 5.81044770757384  C 1004.99481732291 6.18680732873861  1001.17852812346 6.62568332079882  996.916954147102 7.12708565526272  C 994.342126408089 7.42995526071659  990.432707503298 7.89500646190043  985.188659155004 8.52224923032248  C 978.587014728104 9.31169353749098  973.590508428485 9.90448474495222  970.19910197842 10.3006178669521  C 964.495720928085 10.9666149021395  959.270811442376 11.5577757680039  954.524373521292 12.0741004645453  C 942.474545637767 13.3846906924881  931.117544579818 14.4696057459982  920.453370347448 15.3288506108297  C 907.436379182051 16.3779529925045  894.495981744719 17.1743923127017  881.632101480003 17.7181735571752  C 866.987043829949 18.3372047885637  852.077869876222 18.6467204042579  836.904579618822 18.6467204042579  C 823.566055561997 18.6467204042579  811.31335573507 18.8591135297181  800.146480138041 19.2838997806386  C 790.281047196794 19.6592273507008  780.952765572857 20.2138775391534  772.161635266232 20.9478453602421  C 764.786780790897 21.5638203243557  757.263944630056 22.3544113549716  749.593088505981 23.3196184520896  C 746.492592767209 23.7098035694258  743.102449482075 24.1612486476194  739.422696928304 24.6739487009165  C 737.200024260856 24.983728561579  733.905613566372 25.453655830291  729.539388289402 26.0837205355443  C 724.688337345429 26.7834212685746  721.02259443907 27.3047666195137  718.542197848053 27.6477516026073  C 714.372490412106 28.2240698784601  710.51153110738 28.7282143776893  706.959358211601 29.1601801145409  C 697.96665740423 30.2538551380377  688.980310699238 31.1190330502705  680.000356374348 31.7557138512394  C 669.16776015123 32.5238540310584  657.471350504199 33.03087032466  644.911165710981 33.2767677177985  C 631.011260536812 33.5488901776018  615.604476155875 33.5120105543852  598.690812568169 33.1661338339027  C 583.035222973626 32.8456495591471  562.526017827524 32.4120534806987  537.163197129861 31.8653505843115  C 515.120318369371 31.3902082167913  499.258029058911 31.056262405915  489.576329198479 30.8635131516828  C 474.078941442064 30.5549946868123  460.168816115275 30.310827350353  447.845953218112 30.1310061565508  C 433.790372535676 29.9258573318251  419.553623380011 29.7698530854483  405.135667473391 29.6629934174204  C 389.887620818734 29.5499813288099  373.023335496497 29.4809136770024  354.542849784406 29.4557854762437  C 343.366519589261 29.4400304932283  332.283969820782 29.5913979882746  321.295200478969 29.9098879613827  C 311.481289355801 30.1943750914006  301.437214271185 30.6220381224476  291.162975225121 31.1928720687697  C 282.54386501541 31.6717387946167  273.148061484273 32.2881076333057  262.975641187162 33.0419885563449  C 258.884517920989 33.3451872215706  254.321545136646 33.6959848813684  249.286761111856 34.0943815357382  C 246.256964331472 34.3341314940482  241.727293168026 34.6977425419312  235.697785899243 35.1852146793873  C 229.933428432713 35.6512480741325  225.604715326409 35.9989396091142  222.711684858059 36.2282842985784  C 217.874643561497 36.6117236905918  213.497356021953 36.9495583896807  209.579745683976 37.2417883958451  C 199.731920496307 37.9764243079858  190.670051839554 38.5792019809469  182.394139713717 39.0501214147286  C 172.387844743844 39.6195294353727  162.650489071015 40.0498498733651  153.182110972956 40.3410827287057  C 142.512309914986 40.6692450648042  131.821991996324 40.8333262328534  121.111118939246 40.8333262328534  C 110.123612762364 40.8333262328534  98.2059961415756 40.6337115951996  85.3581925214303 40.2344873056461  C 74.8422679186432 39.9077209807009  63.8628383417723 39.4526363020005  52.4198272353671 38.8692382552991  C 43.699013109879 38.4246087029858  34.9738353237215 37.9195019532116  26.2443321546198 37.3539180059766  C 20.7378134448346 36.9971723415151  15.6391438967362 36.6437621465591  10.9484000657748 36.2936973926168  C 9.63842147728082 36.1969737627124  7.68993215522557 36.0912757753941  5.10293209960904 35.9766034306621  C 4.11617062245082 35.932863409778  3.21289286388843 35.8958840714789  2.39306054619671 35.8656704015191  C 2.07799659032219 35.85403863716  1.82838754448842 35.845393339518  1.64415685324506 35.8397444801014  C 1.61724761245053 35.8389118591636  1.59596519725599 35.8382836541446  1.58027132993628 35.8378498935363  C 1.5831804370492 35.8379496086187  1.59232881336484 35.8381839390622  1.60767818115802 35.8385478991129  C 1.86149777676049 35.8445657043343  2.14234144633301 35.8475721140679  2.4501709121506 35.8475721140679  L 2.4501709121506 34.3518458784323  C 3.54491385201328 34.3518458784323  5.6622844975187 34.4214320486682  8.80228284866667 34.5605994033858  Z " fill-rule="nonzero" fill="#0085fe" stroke="none" transform="matrix(1 0 0 1 36 186 )" />
  </g>
</svg>