<?xml version="1.0" encoding="utf-8"?>
<svg version="1.1" xmlns:xlink="http://www.w3.org/1999/xlink" width="1428px" height="69px" xmlns="http://www.w3.org/2000/svg">
  <g transform="matrix(1 0 0 1 -36 -187 )">
    <path d="M 731.449446775387 24.8062633188339  C 730.798725447496 24.9009926470908  728.348951036614 25.2549811895246  727.774785159064 25.3347532554251  C 707.143091292417 28.3112484643401  695.583218291068 29.6823308470061  678.779296941425 30.8390258025643  C 656.807882693827 32.3497093005564  631.161806829906 32.8283416959598  598.70229588572 32.1652363981613  C 584.080204870768 31.8660911510342  570.185390634047 31.5719316580258  553.840801986444 31.2229288697108  C 550.242695820461 31.1431568038103  523.56312137695 30.5697950801499  516.443464495324 30.4202224565864  C 489.304557349772 29.8418749788072  471.811636947068 29.5028436987298  454.280438819194 29.2286272221966  C 423.390314606979 28.7450090726744  393.686799875035 28.5106786290915  354.528687026094 28.4558353337849  C 315.829906879193 28.4009920384782  289.226887886021 29.8568322411636  237.59023663165 34.0299084385871  C 237.054348479269 34.0747802256561  234.183519091517 34.3041249151203  233.379686862946 34.3689397186645  C 231.733744680635 34.5035550798717  230.432302024854 34.6082559163662  229.169137094243 34.7079709987419  C 183.465533241226 38.3874575384056  156.709403347375 39.8333262328534  121.111118939246 39.8333262328534  C 100.058370095729 39.8333262328534  76.7472354671804 39.1054061315107  52.4026022590408 37.8689391100519  C 36.3259576876278 37.0462896804523  22.3545880005666 36.1388824308334  10.9478258998974 35.2913042306398  C 9.64638324411638 35.1965749023829  4.86166759786254 35.0819025576508  2.4501709121506 34.9772017211563  C 2.4501709121506 35.241446689452  2.4501709121506 66.0085353564774  2.4501709121506 66.0085353564774  C 2.4501709121506 66.0085353564774  2.4501709121506 68.9999878277487  25.4168060141691 68.9999878277487  C 194.259851739175 68.9999878277487  1235.18431001299 68.9999878277487  1403.41491213528 68.9999878277487  C 1426.34326951213 68.9999878277487  1426.41982496247 66.0085353564774  1426.3815472373 66.0085353564774  C 1426.34326951213 66.0085353564774  1426.41982496247 8.42307528450464  1426.41982496247 8.42307528450464  C 1421.21405433934 8.42806103862342  1417.57767044819 8.47791857981128  1413.55850930534 8.67236299044391  C 1412.10395574887 8.7471493022257  1410.72595764275 8.83190712224505  1409.50107043731 8.93660795873955  C 1409.04173773527 8.98147974580862  1402.84074625773 9.54486996123138  1400.08475004548 9.78418615893309  C 1394.64931307134 10.2528470460989  1389.13732064686 10.6766361461957  1383.08944006999 11.0804822298173  C 1361.04147037205 12.5462939407403  1336.1992267367 13.4088294032902  1307.7205992102 13.4088294032902  C 1276.02664276942 13.4088294032902  1251.68200956128 11.9829037253175  1217.23205690825 8.70726326927541  C 1214.3612275205 8.43304679274221  1211.4138426824 8.14885880797143  1207.47123698989 7.75996998670616  C 1206.36118295996 7.65028339609288  1202.26546636677 7.25640882070883  1202.57168816813 7.28133759130275  C 1200.58124645928 7.0918789347889  1199.08841517765 6.94729206534412  1197.63386162119 6.80270519589934  C 1151.27953644028 2.3055549807548  1120.7339117546 0.495726235635657  1074.22647567301 0.495726235635657  C 1058.80055242949 0.495726235635657  1043.3363514608 1.33831868171041  1025.34582063088 3.04344659033506  C 1017.84338649756 3.75640942932139  1009.9964528377 4.60398762951493  1000.23563291934 5.74073956859803  C 994.915029120709 6.35398732520865  976.312054688074 8.58261941630578  973.785724826852 8.87677890931412  C 922.30218447316 14.9544131801137  885.785234660951 17.6467204042579  836.904579618822 17.6467204042579  C 811.488170105921 17.6467204042579  791.239253490975 18.3995692761945  773.363555836571 19.8504237247611  C 759.545297050189 20.9722184014878  749.401699880131 22.223642685303  731.449446775387 24.8062633188339  Z " fill-rule="nonzero" fill="#518cfe" stroke="none" transform="matrix(1 0 0 1 36 187 )" />
  </g>
</svg>