<?xml version="1.0" encoding="utf-8"?>
<svg version="1.1" xmlns:xlink="http://www.w3.org/1999/xlink" width="360px" height="57px" xmlns="http://www.w3.org/2000/svg">
  <g transform="matrix(1 0 0 1 -20 -310 )">
    <path d="M 2.21906290302521 48.0476625851949  C 3.04327560778723 48.2491380035689  3.69958098029079 48.4493380417185  4.18798867038263 48.648269631058  C 5.32885144415206 49.117713524828  6.56801720606613 49.5913578556412  7.90549560597154 50.0692095549119  C 10.0297163559746 50.8281508967779  12.1513123476803 51.5055164241862  14.2702932309353 52.1012922743082  C 17.0300818329234 52.8772433067749  19.6701833865205 53.4811774314841  22.1905978917268 53.9130946484358  C 25.2087514887659 54.4302682608188  27.9892872611192 54.6888585327174  30.5322148586335 54.6888585327174  C 33.007593529377 54.6888585327174  35.4808492338507 54.4793010853131  37.9519819720545 54.0601792590903  C 40.1695842883946 53.6840322012963  42.4598403003999 53.1252007891945  44.8227693077638 52.3836780913706  C 46.813272132301 51.7590675579158  49.0045014176606 50.9547462468719  51.3964378641491 49.9707141582389  C 52.3616830781615 49.5736342293715  53.4431027963728 49.1133190081855  54.6407163184762 48.5897684946808  C 55.3627178471876 48.2741604090572  56.4467816233896 47.79397282318  57.8929076470822 47.1492126684635  C 59.4202853798333 46.4682705312957  60.5700935614765 45.9593175762283  61.3423418418585 45.6223607346755  C 62.6352283002486 45.0581436136916  63.8093540955292 44.5603779612442  64.8647288775471 44.1290568459191  C 67.5249986107086 43.0418437245715  69.9923003597798 42.1498122974473  72.2666437746073 41.4529764273751  C 75.0207100175132 40.6091460550338  77.7218275516776 39.9755939971801  80.3700060269472 39.5523133223997  C 83.3576661084726 39.0747388796995  86.371660621592 38.8477835824959  89.4120088659986 38.8714404993745  C 94.1148905957776 38.906652083829  98.4109058399236 39.0037611976494  102.300054598437 39.1627678408358  C 105.986942570505 39.3135053068068  109.628794708111 39.5335777096476  113.225611011254 39.8229850493582  C 116.370177599821 40.0760717783322  119.914884730884 40.4191559900932  123.85974205429 40.8522307532268  C 126.312733080732 41.1215369915755  130.323527806512 41.587168607501  135.892135881477 42.2491186695891  C 142.279687844916 43.0084343078253  147.442355819529 43.6103305967412  151.380139805317 44.0548213991655  C 155.350733269823 44.502590760536  158.941441220016 44.5531415647539  162.152263655899 44.2064807432334  C 164.98159870292 43.9009925224334  167.612465353243 43.2727707221476  170.044873256714 42.3218292052048  C 172.09321726226 41.520834973007  174.161497851051 40.4201749079898  176.249724672932 39.0198420787389  C 177.100194610514 38.4495738331036  178.029474845945 37.7800200095694  179.037565379223 37.0111875395505  C 179.648719119104 36.5454450209968  180.559027755958 35.8314400377959  181.768471990093 34.8691725899478  C 182.880780867532 33.984536981842  183.722565943101 33.3224968113685  184.293836866647 32.8830451471132  C 185.254961596127 32.1443435348943  186.144359015222 31.4914458998334  186.962019474088 30.9243661047589  C 189.033523111669 29.4868393065744  191.079609053092 28.3027458080771  193.100286948203 27.3720856092669  C 195.5500645757 26.2439771437694  198.151981685979 25.3910388930869  200.906047928884 24.8132847200479  C 203.986278989626 24.1671382824788  207.345709064403 23.8440650636943  210.984347803064 23.8440650636943  C 214.504611872483 23.8440650636943  217.965365337417 23.4476089621105  221.366617847712 22.6547036903573  C 224.387666398756 21.9503818928814  227.440231349061 20.9129779144256  230.524322348475 19.5424986864042  C 233.09568804416 18.3996471027699  235.847824317729 16.9487426750583  238.780731169184 15.1897784718553  C 239.951576016593 14.4876262070436  241.243372042308 13.6817106707193  242.656109596482 12.7720318628823  C 243.50336613512 12.2262523038371  244.754304709985 11.4077007993119  246.408934970926 10.3163704178923  C 247.734823904967 9.44167445783913  248.726181604099 8.79129985756982  249.38301771817 8.36524661708433  C 250.476663792127 7.65576784739696  251.457416309757 7.03377738853341  252.325255971366 6.49926137766516  C 254.498401444044 5.16087459768006  256.461826798793 4.06810248209381  258.215522385766 3.22094503090639  C 260.341065164764 2.19404907647285  262.371711351497 1.41855551734751  264.307470595809 0.8944574221161  C 266.51021214826 0.298154784510125  268.678851142538 0  270.813397228491 0  C 274.569764096666 0  278.177195231159 0.300892693143892  281.635700281816 0.902685010845927  C 284.701138127594 1.43606426977509  287.724106998127 2.22066570724163  290.704626193109 3.25648932324553  C 293.160830618496 4.10999594989758  295.74249270059 5.1924610524752  298.449593139697 6.50388463097838  C 299.518149612282 7.0219038759014  300.692535953423 7.61673012226942  301.97275216312 8.28837723291097  C 302.735736590688 8.68864561233921  303.860262174025 9.28920413830248  305.346338562979 10.0900597422151  C 306.626554772677 10.7798740896391  307.583819563483 11.2921263978956  308.2181329354 11.6268235983987  C 309.268682794077 12.1810109629445  310.215969643415 12.666722885989  311.060012783108 13.0839455047039  C 313.139873187916 14.1119643482479  315.054730864317 14.9488633063266  316.804566512617 15.5946423789397  C 318.868350272853 16.3561275498401  320.896419950522 16.9288495161244  322.888794845315 17.3128013463782  C 325.102469674056 17.7391734319198  327.365358720873 17.9523629403977  329.677461985765 17.9523629403977  C 335.022193617718 17.9523629403977  340.074853340163 17.2312879146489  344.835441153097 15.7891378631511  C 346.521587813299 15.27829263199  348.164956703162 14.6769716504578  349.765547822686 13.9851679871403  C 350.666196963012 13.5959898705324  351.720288315421 13.0965398844192  352.92780258022 12.4868041659721  C 353.324729723771 12.2863476654948  353.599113464313 12.1503533176605  353.750934502154 12.0788211224695  C 354.728145526051 11.6178820739998  355.882904079042 11.3068903102751  357.21522946082 11.1458527627098  C 357.906158483216 11.062350015087  358.687149524692 11.0207199410252  359.558212235093 11.0209486776959  L 359.591986698478 11.0209486776959  L 359.591986698478 13.1003729565065  L 359.557247250425 13.1003729565065  C 358.847665074392 13.1001858083214  358.227179932771 13.1322366678721  357.695791825559 13.1965116723301  C 356.762970096397 13.3091679483418  355.977472576521 13.5159805556981  355.339299265932 13.8169425629846  C 355.213204719345 13.8764626172584  354.964238674961 14.0000913220479  354.592401132782 14.1878425401817  C 353.328917757231 14.8259970571059  352.21757386446 15.3523686562155  351.258379104317 15.7669573375105  C 349.539422965398 16.509817798287  347.77350102268 17.1558741274707  345.960613276162 17.7051193936472  C 340.840404626948 19.2562312773546  335.412684313533 20.0317872192083  329.677461985765 20.0317872192083  C 327.11060276848 20.0317872192083  324.597782692613 19.7949407938518  322.139001758161 19.3212479431387  C 319.947203131847 18.8989861862549  317.728056840038 18.2732874207608  315.48157253258 17.4441516466564  C 313.621728632111 16.7578030063637  311.601050737 15.8754547649645  309.419538847249 14.7971138538732  C 308.550406106185 14.3677335345416  307.578666545355 13.8696005171383  306.504320164762 13.3027009388347  C 305.861640375773 12.9637062614888  304.896655707621 12.4472743104319  303.609366160306 11.7533912228356  C 302.133586157761 10.958129270233  301.019028866045 10.3628316876952  300.265694285159 9.96751233805049  C 299.014427615506 9.31105888747278  297.869318909197 8.73115597601236  296.830348866538 8.22779667225496  C 294.237753508154 6.97181747643912  291.775759174757 5.93868324916915  289.444356216502 5.12838012761652  C 286.649114077806 4.15706718415559  283.819142140903 3.42215705553837  280.9544211061 2.92365667317911  C 277.719792498455 2.36083276646199  274.339451205918 2.07942427881056  270.813397228491 2.07942427881056  C 269.030105561746 2.07942427881056  267.201778060538 2.33303779526855  265.328424374714 2.84026482818455  C 263.602385248331 3.3074698751477  261.76987936351 4.00949737450267  259.830906720252 4.94635425766371  C 258.171133091031 5.748284230787  256.29745131042 6.79214135592137  254.209871028267 8.07793949589534  C 253.360037980565 8.60117116434391  252.397948266418 9.21131583623251  251.323601885824 9.90838737438964  C 250.674485649098 10.329449996606  249.688917857974 10.9759845933738  248.366888862606 11.8480050275215  C 246.702608754984 12.9455251618777  245.442985318105 13.7696495234702  244.588008902123 14.3203711808846  C 243.150181746576 15.2462694980963  241.832977674549 16.0681272872249  240.63639668604 16.7859445482703  C 237.598624950697 18.6079846212639  234.73551544029 20.1162811590706  232.047068154819 21.3108410931046  C 228.765473743374 22.7693492822624  225.503188675139 23.8765941908291  222.260193650421 24.6325827502192  C 218.568162310071 25.4931871450763  214.809547027619 25.9234893425048  210.984347803064 25.9234893425048  C 207.621694679495 25.9234893425048  204.53277875674 26.2187675900959  201.7176000348 26.8093240852781  C 199.230516100032 27.3311209509743  196.878848463745 28.1022199934571  194.662597125941 29.1226142813122  C 192.803390115352 29.9789697192263  190.906876797493 31.0780840788629  188.973047522516 32.4199573602221  C 188.191409941313 32.9624098404212  187.336751970271 33.590028607666  186.409083259236 34.3028067305424  C 185.848745611981 34.7334762929269  185.018221907489 35.3867898128436  183.917492846068 36.262733427464  C 182.694538826579 37.2354881050916  181.77040195943 37.9602853002995  181.145091894467 38.4371180816736  C 180.093905145909 39.2383410505421  179.120554060684 39.9392248665437  178.225048288639 40.5397625982642  C 175.957980858209 42.0602376309304  173.692515302329 43.2630459479371  171.428661270844 44.1481875492841  C 168.697754659974 45.2160897504958  165.749079959042 45.9209660611127  162.582646817894 46.2628234125492  C 159.078469042894 46.6411400030074  155.194405753582 46.5898683317062  150.930456949959 46.1090153300598  C 146.983669657217 45.6634640212534  141.813281805258 45.060659717069  135.419293394083 44.3006093489209  C 129.862265135136 43.6400455696854  125.863368670314 43.1757794423697  123.422603999617 42.9078109669736  C 119.51569952321 42.4788950523976  116.008945239145 42.1394429017103  112.902341147423 41.8894475834975  C 109.358917445969 41.6042406808301  105.769821020171 41.3873567285501  102.135042220183 41.2387957266576  C 98.290996845059 41.081681359565  94.0394963436548 40.9856604777838  89.3805503658168 40.9507261498997  C 86.5629881317465 40.9288228808296  83.7690680220459 41.1392606178452  80.998790036715 41.5820393609466  C 78.52469479558 41.9775458587764  75.9925750263491 42.5721017799882  73.4024307290222 43.3657001931677  C 71.2295458022042 44.0314417388574  68.8608558363715 44.8883447584982  66.2963801312174 45.9364231149185  C 65.2650045178965 46.3579432104762  64.1146752445325 46.8456375179999  62.8454019609721 47.3995060374896  C 62.0815876465897 47.7328169551402  60.9396537398386 48.238324997319  59.4196098905655 48.9160301640262  C 57.9664105292553 49.5639302494037  56.8751383175822 50.0473062858417  56.1458029053929 50.366151341926  C 54.9263807297892 50.8992256186276  53.8228628626773 51.3688982490683  52.8352300043637 51.7751692332481  C 50.3525849990689 52.7964923306144  48.0680802956858 53.634500314975  45.9817158942143 54.28919318633  C 43.459120523658 55.0808092150304  41.0043249758861 55.6790595800442  38.6173389007452 56.0839442813714  C 35.9274730878115 56.5401699681424  33.2324349570564 56.7682828115279  30.5322148586334 56.7682828115279  C 27.762255318243 56.7682828115279  24.7578141533384 56.4907697786921  21.5188720642261 55.9357506444348  C 18.8677986349521 55.4814657536573  16.0998752122115 54.8487870540007  13.215082496311 54.0377214768792  C 11.0165579268602 53.4195779529314  8.81693327488777 52.7173563739771  6.61621819024028 51.9310567400162  C 5.2280201961768 51.4350932552771  3.94264131850493 50.9437668866798  2.76010085691801 50.4570914970527  C 2.42985415393634 50.3226220603563  1.93863835846023 50.175676077987  1.28645347048967 50.0162535499448  C 1.03769007288676 49.9554442526182  0.809972990896243 49.9040339530317  0.60329257467144 49.8620295825997  C 0.523864686635846 49.8458585931249  0.460938036425651 49.8338395207933  0.414493324347494 49.8259862284337  C 0.407709482130385 49.8248286822518  0.40234416737546 49.8239553240547  0.398387730236036 49.8233522910139  C 0.399121118583832 49.8234909192991  0.401427431940715 49.8238166957695  0.405297020460005 49.8243226890106  C 0.469285153805166 49.8326889060257  0.540086078907481 49.8368685488261  0.617690145920318 49.8368685488261  L 0.617690145920318 47.7574442700156  C 0.893675761011751 47.7574442700156  1.42746668004673 47.8541860188801  2.21906290302521 48.0476625851949  Z " fill-rule="nonzero" fill="#0085fe" stroke="none" transform="matrix(1 0 0 1 20 310 )" />
  </g>
</svg>