<?xml version="1.0" encoding="utf-8"?>
<svg version="1.1" xmlns:xlink="http://www.w3.org/1999/xlink" width="320px" height="20px" xmlns="http://www.w3.org/2000/svg">
  <g transform="matrix(1 0 0 1 -672 -79 )">
    <path d="M 163.910240173756 7.1902212518359  C 163.764420268347 7.21767902814226  163.215451212687 7.32028440276074  163.086786590266 7.34340674070294  C 158.463437824631 8.20615897517104  155.872990093237 8.6035741585525  152.10740547707 8.9388480587143  C 147.183839259121 9.3767273334946  141.436819457682 9.51546136114776  134.162979470189 9.32325692700327  C 130.88632041922 9.23654815972005  127.772636556649 9.15128453855821  124.109983638419 9.05012431006111  C 123.303685337918 9.02700197211892  117.325069216123 8.8608101681594  115.729627898112 8.81745578451779  C 109.64808007838 8.64981883443688  105.728097915309 8.55154889818256  101.799538110744 8.47206586150627  C 94.8773814245332 8.33188668773172  88.2211316246578 8.26396482002652  79.4462043755952 8.24806821269127  C 70.7742088244689 8.23217160535601  64.812747985663 8.65415427280104  53.2415096093333 9.86374157640205  C 53.1214226284077 9.87674789149454  52.4780995163063 9.94322461307834  52.2979690449179 9.96201151265638  C 51.9291304606465 10.0010304579338  51.6374906498272 10.031378526483  51.3544284805026 10.0602814489107  C 41.112724535849 11.1267992864944  35.1169531310643 11.5458916616966  27.1397465410075 11.5458916616966  C 22.4220437189309 11.5458916616966  17.1982600486679 11.3349003279741  11.7428800580484 10.9765040898701  C 8.14027063028075 10.7380549798413  5.00943148472081 10.4750383857488  2.45329431930475 10.229363545113  C 2.16165450848546 10.2019057688066  1.08944932164987 10.1686674080147  0.549057907484727 10.1383193394656  C 0.549057907484727 10.2149120838991  0.549057907484727 19.132908798979  0.549057907484727 19.132908798979  C 0.549057907484727 19.132908798979  0.549057907484727 19.9999964718112  5.69564280429559 19.9999964718112  C 43.5316194373501 19.9999964718112  276.792002243808 19.9999964718112  314.490736612947 19.9999964718112  C 319.628743868263 19.9999964718112  319.645899151253 19.132908798979  319.637321509758 19.132908798979  C 319.628743868263 19.132908798979  319.645899151253 2.44147109695787  319.645899151253 2.44147109695787  C 318.479339907976 2.44291624307925  317.664463965981 2.45736770429312  316.763811609039 2.51372840302722  C 316.437861232241 2.53540559484803  316.129066138432 2.55997307891161  315.854581610602 2.59032114746074  C 315.751649912666 2.60332746255322  314.362071990527 2.76662897426997  313.74448180291 2.83599598809655  C 312.526456710664 2.97183972350693  311.29127633543 3.09467714382484  309.93600897927 3.21173397965719  C 304.995287478331 3.636606939345  299.428398148281 3.88661721834497  293.046632876235 3.88661721834497  C 285.944345718636 3.88661721834497  280.488965728017 3.47330542762826  272.769088382801 2.52384442587693  C 272.125765270699 2.44436138920064  271.465286875609 2.36198806028158  270.581789801656 2.24926666281338  C 270.33303819831 2.21747344814286  269.415230558379 2.10330690455328  269.483851690336 2.11053263516022  C 269.037814332613 2.05561708254751  268.70328631432 2.01370784502728  268.377335937522 1.97179860750706  C 257.989812087459 0.668276806015885  251.1448541747 0.143688763952364  240.723019758658 0.143688763952364  C 237.2662302363 0.143688763952364  233.800863072448 0.387918458466786  229.769371569946 0.882158431981176  C 228.088153836988 1.08881432733953  226.329737330577 1.33448916797534  224.142438749433 1.6639824836516  C 222.950146581671 1.84173545658222  218.781412815255 2.48771577284225  218.215288476605 2.57297939400409  C 206.678360666254 4.33461251597498  198.495290680325 5.11499142152402  187.541642491613 5.11499142152402  C 181.846088539142 5.11499142152402  177.308516188454 5.33320848585347  173.302757610436 5.75374600717712  C 170.206229030855 6.07890388448922  167.933154034763 6.44163556095738  163.910240173756 7.1902212518359  Z " fill-rule="nonzero" fill="#518cfe" stroke="none" transform="matrix(1 0 0 1 672 79 )" />
  </g>
</svg>