<?xml version="1.0" encoding="utf-8"?>
<svg version="1.1" xmlns:xlink="http://www.w3.org/1999/xlink" width="36px" height="36px" xmlns="http://www.w3.org/2000/svg">
  <g transform="matrix(1 0 0 1 -36 -47 )">
    <path d="M 0 20.25  L 4.5 20.25  L 4.5 15.75  L 0 15.75  L 0 11.25  L 4.5 11.25  L 4.5 4.5  L 11.25 4.5  L 11.25 0  L 15.75 0  L 15.75 4.5  L 20.25 4.5  L 20.25 0  L 24.75 0  L 24.75 4.5  L 31.5 4.5  L 31.5 11.25  L 36 11.25  L 36 15.75  L 31.5 15.75  L 31.5 20.25  L 36 20.25  L 36 24.75  L 31.5 24.75  L 31.5 31.5  L 24.75 31.5  L 24.75 36  L 20.25 36  L 20.25 31.5  L 15.75 31.5  L 15.75 36  L 11.25 36  L 11.25 31.5  L 4.5 31.5  L 4.5 24.75  L 0 24.75  L 0 20.25  Z M 11.25 11.25  L 24.75 11.25  L 24.75 24.75  L 11.25 24.75  L 11.25 11.25  Z M 15.75 15.75  L 15.75 20.25  L 20.25 20.25  L 20.25 15.75  L 15.75 15.75  Z M 27 9  L 9 9  L 9 27  L 27 27  L 27 9  Z " fill-rule="nonzero" fill="#0085fe" stroke="none" transform="matrix(1 0 0 1 36 47 )" />
  </g>
</svg>