<?xml version="1.0" encoding="utf-8"?>
<svg version="1.1" xmlns:xlink="http://www.w3.org/1999/xlink" width="32px" height="32px" xmlns="http://www.w3.org/2000/svg">
  <g transform="matrix(1 0 0 1 -40 -630 )">
    <path d="M 32 16  C 32 24.8  24.8 32  16 32  C 7.2 32  0 24.8  0 16  C 0 7.2  7.2 0  16 0  C 24.8 0  32 7.2  32 16  Z M 27.8 18  L 4.2 18  C 5.2 23.6  10 28  16 28  C 22 28  26.8 23.6  27.8 18  Z M 16 4  C 10 4  5.2 8.4  4.2 14  L 27.8 14  C 26.8 8.4  22 4  16 4  Z M 16 28  C 16.4 27.4  16.8 26.6  17.2 25.8  C 18.2 23.4  19 19.8  19 16  C 19 12.2  18.4 8.8  17.2 6.2  C 16.8 5.4  16.4 4.6  16 4.2  C 15.6 4.6  15.2 5.4  14.8 6.2  C 13.6 8.8  13 12.2  13 16  C 13 19.8  13.6 23.2  14.8 25.8  C 15.2 26.8  15.6 27.4  16 28  Z M 23 16  C 23 24.8  19.8 32  16 32  C 12.2 32  9 24.8  9 16  C 9 7.2  12.2 0  16 0  C 19.8 0  23 7.2  23 16  Z " fill-rule="nonzero" fill="#888888" stroke="none" transform="matrix(1 0 0 1 40 630 )" />
  </g>
</svg>