<?xml version="1.0" encoding="utf-8"?>
<svg version="1.1" xmlns:xlink="http://www.w3.org/1999/xlink" width="32px" height="36px" xmlns="http://www.w3.org/2000/svg">
  <g transform="matrix(1 0 0 1 -660 -47 )">
    <path d="M 31.6521739023437 6.9316770234375  C 31.6521739023437 2.45962733203125  23.8260869335938 0.223602503906248  16 0.22360246875  C 8.17391303125 0.22360246875  0.347826097656249 2.236024828125  0.347826097656249 6.9316770234375  L 0.347826097656249 29.2919254804688  C 0.347826097656249 33.987577640625  8.17391306640625 36  16 36  C 23.8260869335938 36  31.6521739023437 33.987577640625  31.6521739023437 29.2919254804687  L 31.6521739023437 6.9316770234375  Z M 27.1801242109375 23.0310558984375  L 27.1801242109375 29.0683229765625  C 26.5093167695313 29.7391304179688  22.7080745195313 31.5279503085937  16 31.5279503085937  C 9.29192548046875 31.5279503085937  5.49068323046875 29.962732921875  4.8198757890625 29.0683229765625  L 4.8198757890625 23.0310558984375  C 7.72670809375 24.1490683125  11.97515528125 24.8198757890625  16 24.8198757890625  C 20.02484471875 24.8198757890625  24.2732919414062 24.1490683476563  27.1801242109375 23.0310558984375  Z M 27.1801242109375 11.8509316875  L 27.1801242109375 17.888198765625  C 26.5093167695313 18.5590062070312  22.7080745195313 20.3478260976562  16 20.3478260976562  C 9.29192548046875 20.3478260976562  5.49068323046875 18.7826087109375  4.8198757890625 17.888198765625  L 4.8198757890625 11.8509316875  C 7.72670809375 12.9689441015625  11.97515528125 13.639751578125  16 13.6397515429687  C 20.02484471875 13.6397515078125  24.2732919414062 12.9689441015625  27.1801242109375 11.8509316875  Z M 27.1801242109375 6.9316770234375  C 27.1801242109375 8.27329194140625  22.260869546875 9.1677018515625  16 9.1677018515625  C 9.73913041796875 9.1677018515625  4.8198757890625 8.0496894375  4.8198757890625 6.70807451953125  C 4.8198757890625 5.3664596015625  9.739130453125 4.47204969140625  16 4.47204969140625  C 22.260869546875 4.47204969140625  27.1801242109375 5.59006210546875  27.1801242109375 6.9316770234375  Z " fill-rule="nonzero" fill="#888888" stroke="none" fill-opacity="0.996078431372549" transform="matrix(1 0 0 1 660 47 )" />
  </g>
</svg>