<?xml version="1.0" encoding="utf-8"?>
<svg version="1.1" xmlns:xlink="http://www.w3.org/1999/xlink" width="32px" height="32px" xmlns="http://www.w3.org/2000/svg">
  <g transform="matrix(1 0 0 1 -1285 -630 )">
    <path d="M 27.834 18  L 31.876 18  C 30.8589336539205 25.9933022117344  24.0577480849457 31.9839405949329  16 31.9839405949329  C 7.94225191505431 31.9839405949329  1.14106634607947 25.9933022117344  0.124 18  L 4.166 18  C 5.1489065795454 23.7705127581542  10.1463788585905 27.9934908543559  16 28  C 21.8536211414096 27.9934908543559  26.8510934204546 23.7705127581542  27.834 18  Z M 27.834 14  C 27.3517217623715 11.1618515478652  25.8653643856238 8.59160319007952  23.646 6.758  L 19.466 13.998  C 19.8178160028173 14.6065518564705  20.0030531818089 15.2970693490702  20.0030531818089 15.9999988347599  C 20.0030531818089 18.2091378340831  18.2121921811321 19.9999988347599  16.0030531818089 19.9999988347599  C 13.7939141824857 19.9999988347599  12.0030531818089 18.2091378340831  12.0030531818089 15.9999988347599  C 12.0030531818089 13.7920520829931  13.7920538914302 12.0016853157144  16 12  L 15.998 12.002  L 20.182 4.754  C 18.8472063651932 4.26018746762974  17.4353105273406 4.00739156348394  16.0121011735747 4.00739156348394  C 10.1562631148702 4.00739156348394  5.15288342496491 8.2279206107936  4.166 14  L 0.124 14  C 1.14106634607948 6.00669778826558  7.94225191505431 0.016059405067105  16 0.016059405067105  C 24.0577480849457 0.016059405067105  30.8589336539205 6.00669778826558  31.876 14  L 27.834 14  Z " fill-rule="nonzero" fill="#888888" stroke="none" transform="matrix(1 0 0 1 1285 630 )" />
  </g>
</svg>