<?xml version="1.0" encoding="utf-8"?>
<svg version="1.1" xmlns:xlink="http://www.w3.org/1999/xlink" width="32px" height="34px" xmlns="http://www.w3.org/2000/svg">
  <g transform="matrix(1 0 0 1 -453 -48 )">
    <path d="M 7 6.146  L 16 0.8945  L 25 6.146  L 25 13.4585  L 31.75 17.396  L 31.75 27.854  L 22.75 33.1055  L 16 29.168  L 9.25 33.1055  L 0.25 27.854  L 0.25 17.396  L 7 13.4585  L 7 6.146  Z M 13.75 19.97675  L 9.25 17.396  L 4.75 19.97675  L 4.75 25.271  L 9.25 27.8945  L 13.75 25.26875  L 13.75 19.97675  Z M 22.75 17.39375  L 22.75 17.396  L 18.25 19.97675  L 18.25 25.271  L 22.75 27.8945  L 27.25 25.26875  L 27.25 19.97675  L 25.702 19.07675  L 22.75 17.39375  Z M 16 6.101  L 16 6.10325  L 11.5 8.72675  L 11.5 13.45625  L 16 16.07975  L 20.5 13.45625  L 20.5 8.72675  L 18.952 7.82675  L 16 6.101  Z " fill-rule="nonzero" fill="#888888" stroke="none" fill-opacity="0.996078431372549" transform="matrix(1 0 0 1 453 48 )" />
  </g>
</svg>