<?xml version="1.0" encoding="utf-8"?>
<svg version="1.1" xmlns:xlink="http://www.w3.org/1999/xlink" width="16px" height="17px" xmlns="http://www.w3.org/2000/svg">
  <g transform="matrix(1 0 0 1 -155 -7 )">
    <path d="M 9.8125 10.42578125  C 10.6554487179487 9.5301482371795  11.0769230769231 8.45232371794873  11.0769230769231 7.19230769230768  C 11.0769230769231 5.93229166666669  10.6554487179487 4.85446714743591  9.8125 3.95883413461536  C 8.96955128205127 3.06320112179486  7.95512820512818 2.61538461538464  6.76923076923072 2.61538461538464  C 5.58333333333337 2.61538461538464  4.56891025641028 3.06320112179486  3.72596153846155 3.95883413461536  C 2.88301282051282 4.85446714743591  2.46153846153845 5.93229166666669  2.46153846153845 7.19230769230768  C 2.46153846153845 8.45232371794873  2.88301282051282 9.5301482371795  3.72596153846155 10.42578125  C 4.56891025641028 11.3214142628205  5.58333333333337 11.7692307692308  6.76923076923072 11.7692307692308  C 7.95512820512818 11.7692307692308  8.96955128205127 11.3214142628205  9.8125 10.42578125  Z M 15.6442307692307 14.7728365384615  C 15.8814102564103 15.0248397435897  16 15.3313301282051  16 15.6923076923077  C 16 16.0464743589744  15.8782051282051 16.3529647435897  15.6346153846154 16.6117788461539  C 15.3910256410256 16.870592948718  15.1025641025641 17  14.7692307692307 17  C 14.4230769230769 17  14.1346153846154 16.870592948718  13.9038461538462 16.6117788461539  L 10.6057692307693 13.1177884615385  C 9.45833333333337 13.9623397435897  8.17948717948718 14.3846153846154  6.76923076923072 14.3846153846154  C 5.85256410256409 14.3846153846154  4.97596153846155 14.1956129807692  4.13942307692309 13.8176081730769  C 3.30288461538464 13.4396033653846  2.58173076923072 12.9287860576923  1.97596153846155 12.28515625  C 1.37019230769226 11.6415264423077  0.889423076923094 10.8753004807692  0.533653846153811 9.98647836538464  C 0.177884615384642 9.09765625  0 8.16626602564105  0 7.19230769230768  C 0 6.21834935897436  0.177884615384642 5.28695913461536  0.533653846153811 4.39813701923077  C 0.889423076923094 3.50931490384613  1.37019230769226 2.74308894230768  1.97596153846155 2.09945913461536  C 2.58173076923072 1.45582932692309  3.30288461538464 0.945012019230774  4.13942307692309 0.567007211538453  C 4.97596153846155 0.189002403846132  5.85256410256409 0  6.76923076923072 0  C 7.68589743589746 0  8.5625 0.189002403846132  9.39903846153845 0.567007211538453  C 10.2355769230769 0.945012019230774  10.9567307692307 1.45582932692309  11.5625 2.09945913461536  C 12.1682692307693 2.74308894230768  12.6490384615385 3.50931490384613  13.0048076923077 4.39813701923077  C 13.3605769230769 5.28695913461536  13.5384615384615 6.21834935897436  13.5384615384615 7.19230769230768  C 13.5384615384615 8.69070512820514  13.1410256410256 10.0494791666667  12.3461538461538 11.2686298076923  L 15.6442307692307 14.7728365384615  Z " fill-rule="nonzero" fill="#d7d7d7" stroke="none" transform="matrix(1 0 0 1 155 7 )" />
  </g>
</svg>