<?xml version="1.0" encoding="utf-8"?>
<svg version="1.1" xmlns:xlink="http://www.w3.org/1999/xlink" width="22px" height="5px" xmlns="http://www.w3.org/2000/svg">
  <g transform="matrix(1 0 0 1 -78 -257 )">
    <path d="M 22 0.199999999999996  C 22 0  0 0  0 0  C 0.463157894736843 1.4  1.38947368421053 2.6  2.77894736842105 3.4  C 4.4 3.4  5.55789473684211 3.2  6.48421052631579 3  C 6.71578947368421 3  6.71578947368421 3  6.94736842105263 3.2  C 6.94736842105263 3.4  6.94736842105263 3.4  6.71578947368421 3.4  C 6.48421052631579 3.4  6.48421052631579 3.4  6.25263157894737 3.6  C 5.32631578947369 3.8  4.4 4  3.47368421052632 4  C 6.25263157894737 5.2  9.95789473684211 5  14.3578947368421 3.8  C 17.1368421052632 3  19.6842105263158 1.8  22 0.199999999999996  Z " fill-rule="nonzero" fill="#039bc6" stroke="none" transform="matrix(1 0 0 1 78 257 )" />
  </g>
</svg>