<?xml version="1.0" encoding="utf-8"?>
<svg version="1.1" xmlns:xlink="http://www.w3.org/1999/xlink" width="37px" height="5px" xmlns="http://www.w3.org/2000/svg">
  <g transform="matrix(1 0 0 1 -73 -255 )">
    <path d="M 13.64375 4.4  C 13.4125 4.2  13.64375 4  14.10625 4  C 14.3375 4  14.10625 4.2  14.10625 4.2  C 14.10625 4.4  14.10625 4.4  14.3375 4.4  C 14.3375 4.4  14.56875 4.4  14.56875 4.2  C 14.8 4.4  14.56875 4.8  14.3375 4.8  L 14.10625 4.8  C 13.875 4.8  13.64375 4.6  13.64375 4.4  Z M 2.3125 1  C 2.54375 1.8  0.69375 2.2  0 2.2  L 37 2.2  C 36.30625 2  34.45625 1.8  34.6875 0.800000000000001  C 33.3 2.2  29.6 1.8  28.90625 1.2  C 27.75 2.6  21.96875 2  21.7375 1  C 20.58125 2.2  16.65 2.2  15.49375 1  C 15.03125 2  9.25 2.6  8.09375 1.2  C 7.16875 2  3.7 2.4  2.3125 1  Z " fill-rule="nonzero" fill="#394d54" stroke="none" transform="matrix(1 0 0 1 73 255 )" />
  </g>
</svg>