<?xml version="1.0" encoding="utf-8"?>
<svg version="1.1" xmlns:xlink="http://www.w3.org/1999/xlink" width="3px" height="3px" xmlns="http://www.w3.org/2000/svg">
  <g transform="matrix(1 0 0 1 -89 -246 )">
    <path d="M 2.6 2.6  L 2.6 0.6  L 2.8 0.6  L 2.8 2.6  L 2.6 2.6  Z M 2.2 2.6  L 2.2 0.6  L 2.4 0.6  L 2.4 2.6  L 2.2 2.6  Z M 1.8 2.6  L 1.8 0.6  L 2 0.6  L 2 2.6  L 1.8 2.6  Z M 1.4 2.6  L 1.4 0.6  L 1.6 0.6  L 1.6 2.6  L 1.4 2.6  Z M 1 2.6  L 1 0.6  L 1.2 0.6  L 1.2 2.6  L 1 2.6  Z M 0.600000000000001 2.6  L 0.600000000000001 0.6  L 0.8 0.6  L 0.8 2.6  L 0.600000000000001 2.6  Z M 0.4 2.8  L 0.400000000000002 0.399999999999999  L 3 0.399999999999999  L 3 2.8  L 0.4 2.8  Z " fill-rule="nonzero" fill="#20c2ef" stroke="none" transform="matrix(1 0 0 1 89 246 )" />
  </g>
</svg>