<?xml version="1.0" encoding="utf-8"?>
<svg version="1.1" xmlns:xlink="http://www.w3.org/1999/xlink" width="29px" height="13px" xmlns="http://www.w3.org/2000/svg">
  <g transform="matrix(1 0 0 1 -77 -249 )">
    <path d="M 28.304 3.8  C 28.536 3.8  28.536 3.8  28.304 3.8  C 28.536 2.4  27.144 1.2  26.216 0.600000000000001  C 25.288 1.6  25.056 4  26.68 5  C 25.752 5.6  23.896 6.2  22.04 6  L 0.928 6  C 0.928 8.6  1.856 10.4  3.944 11.6  C 5.568 11.6  6.728 11.4  7.656 11.2  C 7.888 11.2  7.888 11.2  8.12 11.4  C 8.12 11.6  8.12 11.6  7.888 11.6  C 6.96 11.8  5.8 12  4.872 12  C 7.656 13.2  11.368 13.2  15.776 11.8  C 20.648 10  25.288 7  28.304 3.8  Z " fill-rule="nonzero" fill="#24b8eb" stroke="none" transform="matrix(1 0 0 1 77 249 )" />
  </g>
</svg>