<?xml version="1.0" encoding="utf-8"?>
<svg version="1.1" xmlns:xlink="http://www.w3.org/1999/xlink" width="35px" height="18px" xmlns="http://www.w3.org/2000/svg">
  <g transform="matrix(1 0 0 1 -76 -246 )">
    <path d="M 18.2 0  L 18.2 5.6  L 21.7 5.6  L 21.7 8.6  L 23.5666666666667 8.6  C 24.5 8.6  25.2 8.4  26.1333333333333 8.2  C 26.6 8  27.0666666666667 8  27.3 7.8  C 26.8333333333333 7.2  26.6 6.6  26.3666666666667 6  C 26.3666666666667 5.2  26.6 4  27.3 3.2  L 27.7666666666667 2.8  L 28 3.2  C 29.1666666666667 4  30.1 5  30.3333333333333 6  C 31.7333333333333 5.6  33.3666666666667 5.8  34.5333333333333 6.4  L 35 6.6  L 34.7666666666667 7  C 33.8333333333333 8.6  31.7333333333333 9  29.6333333333333 9  C 26.6 15.2  19.8333333333333 18  11.6666666666667 18  C 7.46666666666667 18  3.5 16.8  1.4 13.8  L 1.16666666666666 13.2  C 0.233333333333334 12  0 10.4  0 9  L 0 8.6  L 3.03333333333333 8.6  L 3.03333333333333 5.6  L 6.53333333333333 5.6  L 6.53333333333333 2.8  L 14 2.8  L 14 0  L 18.2 0  Z " fill-rule="nonzero" fill="#394d54" stroke="none" transform="matrix(1 0 0 1 76 246 )" />
  </g>
</svg>