<?xml version="1.0" encoding="utf-8"?>
<svg version="1.1" xmlns:xlink="http://www.w3.org/1999/xlink" width="7px" height="6px" xmlns="http://www.w3.org/2000/svg">
  <g transform="matrix(1 0 0 1 -86 -249 )">
    <path d="M 3.03333333333333 2.4  L 3.03333333333333 0.4  L 3.26666666666667 0.4  L 3.26666666666667 2.4  L 3.03333333333333 2.4  Z M 2.56666666666667 2.4  L 2.56666666666667 0.4  L 2.8 0.4  L 2.8 2.4  L 2.56666666666667 2.4  Z M 2.1 2.4  L 2.1 0.4  L 2.33333333333333 0.4  L 2.33333333333333 2.4  L 2.1 2.4  Z M 1.63333333333333 2.4  L 1.63333333333333 0.4  L 1.86666666666666 0.4  L 1.86666666666666 2.4  L 1.63333333333333 2.4  Z M 1.16666666666667 2.4  L 1.16666666666666 0.4  L 1.4 0.4  L 1.4 2.4  L 1.16666666666667 2.4  Z M 0.699999999999998 2.4  L 0.699999999999998 0.4  L 0.93333333333333 0.4  L 0.93333333333333 2.4  L 0.699999999999998 2.4  Z M 0.466666666666667 2.6  L 0.466666666666665 0.200000000000001  L 3.5 0.200000000000001  L 3.5 2.6  L 0.466666666666667 2.6  Z M 6.53333333333333 5.4  L 6.53333333333333 3.4  L 6.76666666666666 3.4  L 6.76666666666666 5.4  L 6.53333333333333 5.4  Z M 6.06666666666667 5.4  L 6.06666666666667 3.4  L 6.3 3.4  L 6.3 5.4  L 6.06666666666667 5.4  Z M 5.6 5.4  L 5.6 3.4  L 5.83333333333333 3.4  L 5.83333333333333 5.4  L 5.6 5.4  Z M 5.13333333333333 5.4  L 5.13333333333333 3.4  L 5.36666666666666 3.4  L 5.36666666666666 5.4  L 5.13333333333333 5.4  Z M 4.66666666666667 5.4  L 4.66666666666667 3.4  L 4.9 3.4  L 4.9 5.4  L 4.66666666666667 5.4  Z M 4.2 5.4  L 4.2 3.4  L 4.43333333333333 3.4  L 4.43333333333333 5.4  L 4.2 5.4  Z M 3.96666666666667 5.6  L 3.96666666666667 3.2  L 7 3.2  L 7 5.6  L 3.96666666666667 5.6  Z " fill-rule="nonzero" fill="#20c2ef" stroke="none" transform="matrix(1 0 0 1 86 249 )" />
  </g>
</svg>