<?xml version="1.0" encoding="utf-8"?>
<svg version="1.1" xmlns:xlink="http://www.w3.org/1999/xlink" width="7px" height="6px" xmlns="http://www.w3.org/2000/svg">
  <g transform="matrix(1 0 0 1 -79 -249 )">
    <path d="M 2.8 5.4  L 2.8 3.4  L 3.03333333333333 3.4  L 3.03333333333333 5.4  L 2.8 5.4  Z M 2.33333333333333 5.4  L 2.33333333333333 3.4  L 2.56666666666667 3.4  L 2.56666666666667 5.4  L 2.33333333333333 5.4  Z M 1.86666666666667 5.4  L 1.86666666666667 3.4  L 2.1 3.4  L 2.1 5.4  L 1.86666666666667 5.4  Z M 1.4 5.4  L 1.4 3.4  L 1.63333333333333 3.4  L 1.63333333333333 5.4  L 1.4 5.4  Z M 0.933333333333333 5.4  L 0.933333333333332 3.4  L 1.16666666666667 3.4  L 1.16666666666667 5.4  L 0.933333333333333 5.4  Z M 0.466666666666665 5.4  L 0.466666666666665 3.4  L 0.699999999999999 3.4  L 0.699999999999999 5.4  L 0.466666666666665 5.4  Z M 0.233333333333334 5.6  L 0.233333333333331 3.2  L 3.26666666666667 3.2  L 3.26666666666667 5.6  L 0.233333333333334 5.6  Z M 6.53333333333333 2.4  L 6.53333333333333 0.400000000000002  L 6.76666666666666 0.400000000000002  L 6.76666666666666 2.4  L 6.53333333333333 2.4  Z M 6.06666666666666 2.4  L 6.06666666666666 0.400000000000002  L 6.3 0.400000000000002  L 6.3 2.4  L 6.06666666666666 2.4  Z M 5.6 2.4  L 5.6 0.400000000000002  L 5.83333333333333 0.400000000000002  L 5.83333333333333 2.4  L 5.6 2.4  Z M 5.13333333333333 2.4  L 5.13333333333333 0.400000000000002  L 5.36666666666666 0.400000000000002  L 5.36666666666666 2.4  L 5.13333333333333 2.4  Z M 4.66666666666666 2.4  L 4.66666666666666 0.400000000000002  L 4.9 0.400000000000002  L 4.9 2.4  L 4.66666666666666 2.4  Z M 4.19999999999999 2.4  L 4.19999999999999 0.400000000000002  L 4.43333333333333 0.400000000000002  L 4.43333333333333 2.4  L 4.19999999999999 2.4  Z M 3.96666666666667 2.6  L 3.96666666666666 0.200000000000003  L 7 0.200000000000003  L 7 2.6  L 3.96666666666667 2.6  Z " fill-rule="nonzero" fill="#00acd3" stroke="none" transform="matrix(1 0 0 1 79 249 )" />
  </g>
</svg>