<?xml version="1.0" encoding="utf-8"?>
<svg version="1.1" xmlns:xlink="http://www.w3.org/1999/xlink" width="28px" height="7px" xmlns="http://www.w3.org/2000/svg">
  <g transform="matrix(1 0 0 1 -76 -257 )">
    <path d="M 27.0666666666667 0.199999999999996  L 0.7 0  C 0.933333333333334 0.800000000000001  1.16666666666667 1.6  1.63333333333333 2.4  L 1.86666666666667 2.8  C 2.1 3  2.33333333333333 3.2  2.33333333333333 3.4  L 4.9 3.4  C 6.53333333333334 3.4  7.7 3.2  8.63333333333333 3  C 8.86666666666667 3  8.86666666666667 3  9.1 3.2  C 9.1 3.4  9.1 3.4  8.86666666666667 3.4  C 8.63333333333334 3.4  8.63333333333334 3.4  8.4 3.6  C 7.46666666666667 3.8  6.53333333333334 4  5.6 4  L 2.33333333333333 4  C 4.2 5.8  7.23333333333333 6.8  10.9666666666667 6.8  C 17.7333333333333 6.8  23.5666666666667 4.8  27.0666666666667 0.199999999999996  Z " fill-rule="nonzero" fill="#008bb8" stroke="none" transform="matrix(1 0 0 1 76 257 )" />
  </g>
</svg>