<?xml version="1.0" encoding="utf-8"?>
<svg version="1.1" xmlns:xlink="http://www.w3.org/1999/xlink" width="3px" height="3px" xmlns="http://www.w3.org/2000/svg">
  <g transform="matrix(1 0 0 1 -86 -252 )">
    <path d="M 2.6 2.4  L 2.6 0.4  L 2.8 0.4  L 2.8 2.4  L 2.6 2.4  Z M 2.2 2.4  L 2.2 0.4  L 2.4 0.4  L 2.4 2.4  L 2.2 2.4  Z M 1.8 2.4  L 1.8 0.4  L 2 0.4  L 2 2.4  L 1.8 2.4  Z M 1.4 2.4  L 1.4 0.4  L 1.6 0.4  L 1.6 2.4  L 1.4 2.4  Z M 0.999999999999998 2.4  L 0.999999999999998 0.4  L 1.2 0.4  L 1.2 2.4  L 0.999999999999998 2.4  Z M 0.599999999999998 2.4  L 0.599999999999998 0.4  L 0.799999999999997 0.4  L 0.799999999999997 2.4  L 0.599999999999998 2.4  Z M 0.4 2.6  L 0.399999999999999 0.200000000000001  L 3 0.200000000000001  L 3 2.6  L 0.4 2.6  Z " fill-rule="nonzero" fill="#00acd3" stroke="none" transform="matrix(1 0 0 1 86 252 )" />
  </g>
</svg>