<?xml version="1.0" encoding="utf-8"?>
<svg version="1.1" xmlns:xlink="http://www.w3.org/1999/xlink" width="35px" height="15px" xmlns="http://www.w3.org/2000/svg">
  <g transform="matrix(1 0 0 1 -76 -249 )">
    <path d="M 34.0666666666667 3.8  C 32.6666666666667 3  30.8 3.4  29.6333333333333 3.8  C 29.8666666666667 2.4  28.4666666666667 1.2  27.5333333333333 0.600000000000001  C 26.6 1.6  26.3666666666667 4  28 5  C 27.0666666666667 5.6  25.2 6.2  23.3333333333333 6.2  L 0.7 6.2  C 0.466666666666667 7.8  0.933333333333334 9.2  1.63333333333333 10.4  L 1.86666666666667 10.8  C 2.1 11  2.33333333333333 11.2  2.33333333333333 11.4  L 4.9 11.4  C 6.53333333333334 11.4  7.7 11.2  8.63333333333333 11  C 8.86666666666667 11  8.86666666666667 11  9.1 11.2  C 9.1 11.4  9.1 11.4  8.86666666666667 11.4  C 7.93333333333334 11.6  6.76666666666667 11.8  5.83333333333334 11.8  L 2.8 11.8  C 4.66666666666667 13.6  7.7 14.6  11.4333333333333 14.6  C 19.3666666666667 14.6  26.1333333333333 11.8  28.9333333333333 5.4  C 31.0333333333333 5.6  33.1333333333333 5.2  34.0666666666667 3.8  Z " fill-rule="nonzero" fill="#00aada" stroke="none" transform="matrix(1 0 0 1 76 249 )" />
  </g>
</svg>