<?xml version="1.0" encoding="utf-8"?>
<svg version="1.1" xmlns:xlink="http://www.w3.org/1999/xlink" width="28px" height="29px" xmlns="http://www.w3.org/2000/svg">
  <g transform="matrix(1 0 0 1 -257 -171 )">
    <path d="M 28 29  L 16 29  L 16 13  L 28 13  L 28 29  Z M 20 17  L 20 25.002  L 24 25.002  L 24 17  L 20 17  Z M 28 9  L 16 9  L 16 1  L 28 1  L 28 9  Z M 12 29  L 0 29  L 0 21  L 12 21  L 12 29  Z M 0 1  L 12 1  L 12 17  L 0 17  L 0 1  Z M 8 13  L 8 5  L 4 5  L 4 13  L 8 13  Z " fill-rule="nonzero" fill="#888888" stroke="none" transform="matrix(1 0 0 1 257 171 )" />
  </g>
</svg>