<?xml version="1.0" encoding="utf-8"?>
<svg version="1.1" xmlns:xlink="http://www.w3.org/1999/xlink" width="12px" height="12px" xmlns="http://www.w3.org/2000/svg">
  <g transform="matrix(1 0 0 1 -1534 -154 )">
    <path d="M 1540 155  C 1542.8 155  1545 157.2  1545 160  C 1545 162.8  1542.8 165  1540 165  C 1537.2 165  1535 162.8  1535 160  C 1535 157.2  1537.2 155  1540 155  Z " fill-rule="nonzero" fill="#ffffff" stroke="none" />
    <path d="M 1540 155  C 1542.8 155  1545 157.2  1545 160  C 1545 162.8  1542.8 165  1540 165  C 1537.2 165  1535 162.8  1535 160  C 1535 157.2  1537.2 155  1540 155  Z " stroke-width="2" stroke="#0085fe" fill="none" />
  </g>
</svg>