<?xml version="1.0" encoding="utf-8"?>
<svg version="1.1" xmlns:xlink="http://www.w3.org/1999/xlink" width="14px" height="14px" xmlns="http://www.w3.org/2000/svg">
  <g transform="matrix(1 0 0 1 -82 -126 )">
    <path d="M 14 7  C 14 3.14999999999998  10.85 0  7 0  C 3.14999999999998 0  0 3.14999999999998  0 7  C 0 10.85  3.14999999999998 14  7 14  C 10.85 14  14 10.85  14 7  Z M 8.92499999999995 8.96875  L 8.83749999999998 10.325  L 8.79375000000005 10.36875  C 8.39999999999998 10.80625  8.00625000000002 11.1125  7.65625 11.33125  C 7.26250000000005 11.55  6.91250000000002 11.68125  6.5625 11.68125  C 6.25625000000002 11.68125  5.99374999999998 11.59375  5.81875000000002 11.41875  C 5.64374999999995 11.24375  5.55624999999998 10.98125  5.55624999999998 10.675  C 5.55624999999998 10.5  5.60000000000002 10.19375  5.6875 9.75625000000002  L 6.03750000000002 7.96249999999998  C 6.16875000000005 7.35000000000002  6.16875000000005 7.08749999999998  6.16875000000005 7  C 6.16875000000005 6.86874999999998  6.125 6.82500000000005  6.125 6.82500000000005  C 6.125 6.82500000000005  6.125 6.78125  6.03750000000002 6.78125  C 5.95000000000005 6.78125  5.73125000000005 6.82500000000005  5.25 6.95624999999995  L 4.89999999999998 7.04375000000005  L 5.07500000000005 6.21249999999998  L 8.13750000000005 5.20624999999995  L 7.65625 7.26250000000005  L 7.13125000000002 9.79999999999995  C 7.04375000000005 10.325  7 10.45625  7 10.54375  C 7 10.63125  7 10.63125  7 10.63125  C 7 10.63125  7 10.63125  7.04375000000005 10.63125  C 7.21875 10.63125  7.56875000000002 10.5  8.39999999999998 9.58124999999995  L 8.92499999999995 8.96875  Z M 5.86249999999995 3.32500000000005  C 5.86249999999995 2.66875000000005  6.38750000000005 2.1875  7 2.1875  C 7.61249999999995 2.1875  8.13750000000005 2.66875000000005  8.13750000000005 3.32500000000005  C 8.13750000000005 3.98125000000005  7.65625 4.46249999999998  7 4.46249999999998  C 6.38750000000005 4.46249999999998  5.86249999999995 3.98125000000005  5.86249999999995 3.32500000000005  Z " fill-rule="nonzero" fill="#bdbdbd" stroke="none" transform="matrix(1 0 0 1 82 126 )" />
  </g>
</svg>