<?xml version="1.0" encoding="utf-8"?>
<svg version="1.1" xmlns:xlink="http://www.w3.org/1999/xlink" width="16px" height="16px" xmlns="http://www.w3.org/2000/svg">
  <g transform="matrix(1 0 0 1 -85 -206 )">
    <path d="M 16 8  C 16 3.59999999999997  12.4 0  8 0  C 3.59999999999997 0  0 3.59999999999997  0 8  C 0 12.4  3.59999999999997 16  8 16  C 12.4 16  16 12.4  16 8  Z M 10.2 10.25  L 10.1 11.8  L 10.05 11.85  C 9.59999999999997 12.35  9.15000000000003 12.7  8.75 12.95  C 8.30000000000004 13.2  7.90000000000003 13.35  7.5 13.35  C 7.15000000000003 13.35  6.84999999999997 13.25  6.65000000000003 13.05  C 6.44999999999996 12.85  6.34999999999997 12.55  6.34999999999997 12.2  C 6.34999999999997 12  6.40000000000003 11.65  6.5 11.15  L 6.90000000000003 9.09999999999997  C 7.05000000000004 8.40000000000003  7.05000000000004 8.09999999999997  7.05000000000004 8  C 7.05000000000004 7.84999999999997  7 7.80000000000004  7 7.80000000000004  C 7 7.80000000000004  7 7.75  6.90000000000003 7.75  C 6.80000000000004 7.75  6.55000000000004 7.80000000000004  6 7.94999999999996  L 5.59999999999997 8.05000000000004  L 5.80000000000004 7.09999999999997  L 9.30000000000004 5.94999999999996  L 8.75 8.30000000000004  L 8.15000000000003 11.2  C 8.05000000000004 11.8  8 11.95  8 12.05  C 8 12.15  8 12.15  8 12.15  C 8 12.15  8 12.15  8.05000000000004 12.15  C 8.25 12.15  8.65000000000003 12  9.59999999999997 10.95  L 10.2 10.25  Z M 6.69999999999996 3.80000000000004  C 6.69999999999996 3.05000000000004  7.30000000000004 2.5  8 2.5  C 8.69999999999996 2.5  9.30000000000004 3.05000000000004  9.30000000000004 3.80000000000004  C 9.30000000000004 4.55000000000004  8.75 5.09999999999997  8 5.09999999999997  C 7.30000000000004 5.09999999999997  6.69999999999996 4.55000000000004  6.69999999999996 3.80000000000004  Z " fill-rule="nonzero" fill="#bdbdbd" stroke="none" transform="matrix(1 0 0 1 85 206 )" />
  </g>
</svg>