<?xml version="1.0" encoding="utf-8"?>
<svg version="1.1" xmlns:xlink="http://www.w3.org/1999/xlink" width="610px" height="82px" xmlns="http://www.w3.org/2000/svg">
  <g transform="matrix(1 0 0 1 -86 -695 )">
    <path d="M 3.76007880790383 69.1211988067716  C 5.15666144652836 69.4110406367131  6.26873443882606 69.6990477091389  7.09631413592612 69.9852299955571  C 9.02944272481321 70.6605703339631  11.1291402658343 71.341953406361  13.3954231101184 72.0293891842592  C 16.9947971587348 73.1211995357156  20.5897237002361 74.0956552067239  24.1802190857515 74.9527362542679  C 28.8565275502313 76.0690166869393  33.3300329604931 76.9378341996788  37.6007353165371 77.5591887924866  C 42.71482891152 78.3031929366165  47.4262923035631 78.6751999944356  51.7351418437956 78.6751999944356  C 55.9295334803333 78.6751999944356  60.1203278684693 78.3737313858891  64.3075250082034 77.7707841972879  C 68.0651289331131 77.2296603597596  71.945840509011 76.4257274511219  75.9496924381553 75.3589754998665  C 79.3224888908434 74.4604129780543  83.0354051799249 73.3033191621666  87.0884086031415 71.8876940522033  C 88.7239629935515 71.3164562597976  90.5563686271872 70.6542483977405  92.5856582063069 69.901070466032  C 93.8090496855123 69.4470377814507  95.6459355285212 68.7562416052765  98.0963157353338 67.8286919090177  C 100.684372449162 66.8490909397587  102.632658534724 66.1169130043986  103.941190343149 65.6321680744455  C 106.131914619866 64.8204873039072  108.121405550758 64.1044033828425  109.909679486955 63.4839063397432  C 114.417358757034 61.9198453581555  118.598064498516 60.6365720770295  122.451813062529 59.6341064393818  C 127.118425307453 58.4201750265399  131.695318907009 57.5087492591012  136.182510212327 56.8998191655574  C 141.244934239356 56.2127822479888  146.351980497698 55.886285153766  151.503681689609 55.9203179113808  C 159.472453509512 55.9709731732277  166.751812673204 56.110674003636  173.341759180684 56.3394204026059  C 179.588986022245 56.5562707922484  185.759902144299 56.8728661787913  191.854507546847 57.2892065622346  C 197.18280093303 57.653296242513  203.189110238442 58.146855985748  209.873451814213 58.7698758204315  C 214.02990883124 59.1572988299858  220.825977672146 59.8271548388611  230.261674688059 60.7794338755492  C 241.085026626108 61.8717826884504  249.832880694203 62.7376685777681  256.505236892343 63.3771114865188  C 263.233186929422 64.0212709186659  269.31744206725 64.0939931282425  274.758002305828 63.5952880867569  C 279.552153357726 63.1558138042024  284.01001073744 62.2520561265984  288.131590796099 60.8840349969613  C 291.602395916608 59.7317275050276  295.106982469836 58.148321797459  298.645366806912 56.1338079027472  C 300.086440867816 55.3134220055175  301.661054600073 54.3502042242929  303.369208003683 53.2441645305815  C 304.404774062926 52.5741489775744  305.947241475374 51.5469839140222  307.996577538769 50.1626693399249  C 309.881323136652 48.8900356580884  311.307681181366 47.9376269917933  312.275668024041 47.3054333695313  C 313.904240482326 46.2427398221286  315.411274998016 45.3034835751989  316.796755219982 44.4876845717585  C 320.306803050329 42.4196635638439  323.773782006629 40.7162308116196  327.19770844001 39.3773863150857  C 331.348720531048 37.7544934348963  335.757524523464 36.5274594602302  340.424136768388 35.696304334104  C 345.643417176866 34.7667603361976  351.335784803573 34.3019883372444  357.501255999637 34.3019883372444  C 363.466147895041 34.3019883372444  369.330202377289 33.7316479805801  375.093435797512 32.5909772387596  C 380.212434731225 31.5777423722153  385.384836452576 30.0853366488227  390.610657312694 28.1137700400902  C 394.967693630382 26.4696677618795  399.631035649486 24.3824017430664  404.600683370006 21.8519620121427  C 406.584614917004 20.8418482276768  408.773491516133 19.6824609648944  411.167296816262 18.3738002237955  C 412.602925951175 17.5886436651692  414.722571869697 16.4110783428697  417.526250922957 14.8410942853889  C 419.772896061193 13.5827597463651  421.452696606946 12.6471331284338  422.565668911344 12.034214431595  C 424.418791425548 11.0135607629219  426.080622080421 10.1187674712235  427.551128173703 9.34981461348321  C 431.233402446852 7.42441608789062  434.560317631288 5.85235795669636  437.531857375881 4.63364021990042  C 441.133471529184 3.15635130299603  444.574288678925 2.04072898986835  447.854325176233 1.28676330900913  C 451.58674836233 0.428924426839127  455.26138665819 0  458.878256414942 0  C 465.243211386017 0  471.355803030575 0.432863172592967  477.216047699743 1.29859948928712  C 482.410261827312 2.06591701967645  487.532514635716 3.19464189462831  492.582838827212 4.68477411414269  C 496.744740770229 5.91262575248423  501.119223742666 7.46985625092923  505.706255042264 9.35646560947767  C 507.51686462081 10.1016862776125  509.506797032188 10.9574012285279  511.676052276398 11.9236304052403  C 512.968887000887 12.4994550914354  514.874333128209 13.3634164796632  517.392407009493 14.5155245414322  C 519.561662253702 15.5078890412352  521.183694260347 16.2448134145165  522.258503029428 16.7263076327841  C 524.038601401075 17.5235596309026  525.643726340231 18.2223030991421  527.073910549155 18.8225180944862  C 530.598118457302 20.3014223957251  533.842738408981 21.5053823003294  536.807737701934 22.4343978082992  C 540.304704629001 23.5298677032788  543.741156027273 24.3537835144246  547.117124599006 24.9061352702283  C 550.868073614373 25.519512656446  554.702413388145 25.826206335309  558.620143920324 25.826206335309  C 567.676494741134 25.826206335309  576.237945937498 24.7888703333545  584.304497509414 22.7141983294455  C 587.161579350312 21.9792981723365  589.946176635914 21.1142399182025  592.658289366218 20.1190135955352  C 594.184389298437 19.5591433225203  595.970488534464 18.8406363249539  598.01655437204 17.9634726598195  C 598.689125365279 17.6750966415889  599.154053370086 17.4794556499678  599.411305684205 17.3765496849561  C 601.067135474698 16.7134443871576  603.023809689488 16.2660527270625  605.281361030833 16.034384676179  C 606.452101874339 15.914257916441  607.775447805728 15.8543690379661  609.251415176129 15.854698097738  L 609.308644127977 15.854698097738  L 609.308644127977 18.8461505690093  L 609.249780063219 18.8461505690093  C 608.047432487165 18.8458813382869  606.996054886083 18.8919895923774  606.095647259975 18.9844553882644  C 604.515032663339 19.1465223116496  603.184050754661 19.444042202934  602.10270153394 19.8770050906094  C 601.88904133 19.9626304318454  601.46718219924 20.1404822527707  600.837124141659 20.4105804964018  C 598.696221755308 21.3286273453103  596.813111270335 22.0858636808714  595.18780903787 22.6822895030852  C 592.275133358035 23.7509659554304  589.282876732874 24.6803803237297  586.211039162386 25.4705226364749  C 577.535130062328 27.7019467498785  568.338159531264 28.8176588065803  558.620143920324 28.8176588065803  C 554.270743579925 28.8176588065803  550.012909562482 28.4769323701025  545.846641867995 27.7954794971469  C 542.132760862297 27.1880152153141  538.372540756731 26.2878871667086  534.565997902428 25.0950953513303  C 531.414595737743 24.107716605646  527.990669304362 22.8383735215279  524.294218602283 21.2870760704843  C 522.821521457702 20.6693710496915  521.174962757408 19.9527586386902  519.354542501402 19.137218894464  C 518.265557303392 18.6495423410891  516.630444393468 17.9066051483406  514.449203771629 16.9083873732021  C 511.948576545095 15.7643263185809  510.060021134132 14.9079333051053  508.783537538741 14.3392282757919  C 506.66333568183 13.3948566451363  504.723012596139 12.5606103514564  502.962535579411 11.836479423244  C 498.569526777705 10.0296321590879  494.397814157228 8.54336888476966  490.447381366851 7.37766965727289  C 485.71099885406 5.98034226492558  480.915768627642 4.92310313252888  476.061657985337 4.205962231591  C 470.580759511271 3.39628573420847  464.852958987806 2.99145247127133  458.878256414942 2.99145247127133  C 455.856567757402 2.99145247127133  452.758568380356 3.35629998617581  449.584274634933 4.08599501598479  C 446.659597226338 4.75811455723003  443.554517810392 5.7680488545477  440.269036387094 7.11580787944604  C 437.456642182024 8.26946152499182  434.281792498212 9.77115072255354  430.744503686785 11.6208954151477  C 429.304508800402 12.3736146574772  427.674301229208 13.2513666415976  425.853880973202 14.2541713105254  C 424.753989572083 14.8599105214332  423.08399970379 15.7900129238009  420.843895017194 17.044498460645  C 418.023864834834 18.623387074982  415.889502900123 19.8089694899044  414.44079286193 20.6012357339042  C 412.004474626143 21.9332298042789  409.772545504096 23.1155515360077  407.74500549579 24.1482009290906  C 402.597670055348 26.7693813849762  397.746290051603 28.9392114919963  393.190865484554 30.6577012216593  C 387.630386065162 32.755905985009  382.102625255097 34.3487846254033  376.607550352102 35.4363471143505  C 370.351608358732 36.6744095771273  363.982843574577 37.2934408085157  357.501255999637 37.2934408085157  C 351.803427095811 37.2934408085157  346.569430671143 37.7182270594363  341.799266725634 38.5677995612773  C 337.585041169499 39.3184547014016  333.600271008013 40.4277550783067  329.844956241177 41.8956907204843  C 326.694633251014 43.1276406487115  323.481096795752 44.7088227099431  320.204330524264 46.6392369041792  C 318.879889067225 47.4196071388515  317.431718616292 48.3224972952388  315.859835522595 49.347897401833  C 314.910374509189 49.967457123158  313.503098232134 50.907311660582  311.63797398917 52.1674410710886  C 309.565746345036 53.5668425371493  307.999847764589 54.6095332390274  306.940294598958 55.2955032052146  C 305.15911705279 56.4481397569202  303.509827713937 57.4564287553786  301.992442933527 58.3203602290818  C 298.151023120855 60.5077102760754  294.312317595613 62.2380661005411  290.47634270893 63.5114277024789  C 285.848973173845 65.0477080621167  280.852607708376 66.0617406493201  275.487262663654 66.5535354355971  C 269.549628100459 67.0977803552037  262.968298638014 67.0240211087704  255.743274276319 66.3322676678054  C 249.055662474728 65.6912991182943  240.294727503354 64.8241069613974  229.460469362196 63.7307011686231  C 220.044393701202 62.7804164335825  213.268485802476 62.11252481183  209.132745666017 61.7270263033655  C 202.512713080994 61.1099893736246  196.570712766329 60.6216547007061  191.306744722022 60.2620123131016  C 185.302610116781 59.8517146636503  179.221085617512 59.5397061708967  173.062154873087 59.3259868348408  C 166.548633543017 59.0999626576198  159.344702137859 58.9618273540047  151.450377008745 58.9115709524874  C 146.676174334348 58.8800609864566  141.942031926244 59.1827959765493  137.247949784434 59.8197759227653  C 133.055732848066 60.3887501828011  128.765196572425 61.2440762448953  124.37634095751 62.3857441375395  C 120.694508164846 63.3434775892335  116.680894611629 64.5762152666114  112.335533000118 66.0839771126898  C 110.587924321991 66.6903744431413  108.638755275458 67.3919697627368  106.488042211647 68.1887630714763  C 105.193801290055 68.6682629880964  103.258857725838 69.3954850838625  100.683227870125 70.3704293587745  C 98.2208622856826 71.302496148265  96.3717621492365 71.9978792182285  95.1359438119158 72.4565685971567  C 93.0697006810317 73.2234473811836  91.1998509617587 73.8991167793614  89.5263619518385 74.4835767916902  C 85.319657915089 75.9528486159716  81.4486916121343 77.1584039618939  77.9134630429743 78.1002428294572  C 73.6390653317539 79.2390588707455  69.4795506535848 80.0996997467302  65.4349353595961 80.6821654574115  C 60.8771071765695 81.3384901296084  56.3105147883456 81.6666524657068  51.7351418437955 81.6666524657068  C 47.0415992892451 81.6666524657068  41.9507406487123 81.2674231903992  36.4625332199387 80.4689746112922  C 31.970436575891 79.8154419614018  27.2803441095806 78.905272604001  22.3922231187492 77.7384765105981  C 18.6669453760687 76.8492174059715  14.9398036046709 75.8390039064232  11.2108141556849 74.7078360119532  C 8.85858977685513 73.9943446830302  6.68058667857779 73.2875242931183  4.67683756311108 72.5873947852337  C 4.11725287194769 72.3939475254248  3.28491499627983 72.1825515507883  2.1798239361075 71.9532068613242  C 1.75830817905812 71.865726819556  1.37245423457419 71.7917681429579  1.02224575152661 71.7313408030382  C 0.887659607910738 71.70807727432  0.781033895054576 71.690786679036  0.70233591069992 71.6794889602028  C 0.690841066943152 71.6778237183272  0.681749839163973 71.6765673082892  0.675045876233283 71.6756997870726  C 0.676288562044826 71.6758992172373  0.680196481899545 71.6763678781245  0.686753284668341 71.6770957982258  C 0.795177621725421 71.6891314086686  0.915145855926565 71.6951442281358  1.04664163614276 71.6951442281358  L 1.04664163614276 68.7036917568645  C 1.51428392838102 68.7036917568645  2.41876298563474 68.8428640973363  3.76007880790383 69.1211988067716  Z " fill-rule="nonzero" fill="#0085fe" stroke="none" transform="matrix(1 0 0 1 86 695 )" />
  </g>
</svg>