<?xml version="1.0" encoding="utf-8"?>
<svg version="1.1" xmlns:xlink="http://www.w3.org/1999/xlink" width="610px" height="138px" xmlns="http://www.w3.org/2000/svg">
  <g transform="matrix(1 0 0 1 -86 -697 )">
    <path d="M 312.453895331223 49.6125266376677  C 312.175926136536 49.8019852941816  311.129453874184 50.5099623790491  310.884186937695 50.6695065108503  C 302.070928353204 56.6224969286802  297.132887365232 59.3646616940122  289.954741690665 61.6780516051287  C 280.569193587699 64.6994186011127  269.613937091206 65.6566833919195  255.748179615049 64.3304727963226  C 249.502048299138 63.7321823020683  243.566588436113 63.1438633160516  236.584656310736 62.4458577394217  C 235.047650175407 62.2863136076205  223.650913193235 61.1395901602999  220.609603180776 60.8404449131727  C 209.016652649412 59.6837499576145  201.544186651059 59.0056873974597  194.055369523605 58.4572544443933  C 180.860008340516 57.4900181453489  168.171532159504 57.021357258183  151.444327090978 56.9116706675697  C 134.913335571644 56.8019840769565  123.54930084767 59.7136644823272  101.491627692792 68.0598168771742  C 101.262711885402 68.1495604513123  100.036377202959 68.6082498302406  99.6930034918748 68.737879437329  C 98.9899049406074 69.0071101597434  98.4339665512331 69.2165118327324  97.8943792909581 69.4159419974838  C 78.3711311464621 76.7749150768113  66.9416919060914 79.6666524657069  51.7351418437956 79.6666524657069  C 42.742020839212 79.6666524657069  32.7841832177731 78.2108122630215  22.3848651106547 75.7378782201039  C 15.5173908889727 74.0925793609047  9.54922876774904 72.2777648616667  4.67659229617467 70.5826084612796  C 4.12065390680042 70.3931498047658  2.07676276939506 70.1638051153017  1.04664163614276 69.9544034423127  C 1.04664163614276 70.4828933789039  1.04664163614276 132.017070712955  1.04664163614276 132.017070712955  C 1.04664163614276 132.017070712955  1.04664163614276 137.999975655497  10.8573190956885 137.999975655497  C 82.9821495524486 137.999975655497  527.634754277258 137.999975655497  599.497966668431 137.999975655497  C 609.292292998877 137.999975655497  609.324995257076 132.017070712955  609.308644127977 132.017070712955  C 609.292292998877 132.017070712955  609.324995257076 16.8461505690093  609.324995257076 16.8461505690093  C 607.101241699579 16.8561220772468  605.547884435151 16.9558371596226  603.83101587973 17.3447259808878  C 603.209672973959 17.4942986044514  602.621032326386 17.6638142444901  602.09779619521 17.8732159174791  C 601.90158264602 17.9629594916172  599.252699731942 19.0897399224628  598.075418436797 19.5683723178662  C 595.753558104704 20.5056940921978  593.398995514413 21.3532722923914  590.815517116733 22.1609644596346  C 581.397266755569 25.0925878814805  570.78538397016 26.8176588065803  558.620143920324 26.8176588065803  C 545.081409026151 26.8176588065803  534.682090919032 23.965807450635  519.966074729714 17.4145265385508  C 518.739740047271 16.8660935854844  517.480703106629 16.2977176159429  515.796536809407 15.5199399734123  C 515.322354065529 15.3005667921858  513.57278325191 14.5128176414177  513.703592284704 14.5626751826055  C 512.853333571543 14.1837578695778  512.215639536673 13.8945841306882  511.594296630901 13.6054103917987  C 491.793079291718 4.6111099615096  478.744878270522 0.991452471271313  458.878256414942 0.991452471271313  C 452.288751387948 0.991452471271313  445.682895231853 2.67663736342082  437.997864555209 6.08689318067012  C 434.793043251758 7.51281885864278  431.441061786413 9.20797525902985  427.271523866106 11.4814791371961  C 424.998716921311 12.7079746504173  417.052068179079 17.1652388326116  415.972893658529 17.7535578186282  C 393.980625020048 29.9088263602273  378.38164785937 35.2934408085157  357.501255999637 35.2934408085157  C 346.64410627774 35.2934408085157  337.99435898424 36.7991385523889  330.358381694894 39.7008474495221  C 324.455624090067 41.9444368029756  320.122574878768 44.4472853706059  312.453895331223 49.6125266376677  Z " fill-rule="nonzero" fill="#518cfe" stroke="none" transform="matrix(1 0 0 1 86 697 )" />
  </g>
</svg>