<?xml version="1.0" encoding="utf-8"?>
<svg version="1.1" xmlns:xlink="http://www.w3.org/1999/xlink" width="36px" height="34px" xmlns="http://www.w3.org/2000/svg">
  <g transform="matrix(1 0 0 1 -304 -134 )">
    <path d="M 0 18  L 36 18  L 36 34  L 0 34  L 0 18  Z M 31.5 29  L 31.5 22.75  L 4.5 22.75  L 4.5 29  L 31.5 29  Z M 22.5 25  L 27 25  L 27 27.25  L 22.5 27.25  L 22.5 25  Z M 0 0.25  L 36 0.25  L 36 16  L 0 16  L 0 0.25  Z M 31.5 12  L 31.5 5  L 4.5 5  L 4.5 12  L 31.5 12  Z M 22.5 7  L 27 7  L 27 9.25  L 22.5 9.25  L 22.5 7  Z " fill-rule="nonzero" fill="#0085fe" stroke="none" transform="matrix(1 0 0 1 304 134 )" />
  </g>
</svg>