<?xml version="1.0" encoding="utf-8"?>
<svg version="1.1" xmlns:xlink="http://www.w3.org/1999/xlink" width="14px" height="14px" xmlns="http://www.w3.org/2000/svg">
  <g transform="matrix(1 0 0 1 -20 -85 )">
    <path d="M 27 86  C 30.36 86  33 88.64  33 92  C 33 95.36  30.36 98  27 98  C 23.64 98  21 95.36  21 92  C 21 88.64  23.64 86  27 86  Z " fill-rule="nonzero" fill="#ffffff" stroke="none" />
    <path d="M 27 86  C 30.36 86  33 88.64  33 92  C 33 95.36  30.36 98  27 98  C 23.64 98  21 95.36  21 92  C 21 88.64  23.64 86  27 86  Z " stroke-width="2" stroke="#51a3ff" fill="none" />
  </g>
</svg>