<?xml version="1.0" encoding="utf-8"?>
<svg version="1.1" xmlns:xlink="http://www.w3.org/1999/xlink" width="24px" height="24px" xmlns="http://www.w3.org/2000/svg">
  <g transform="matrix(1 0 0 1 -25 -74 )">
    <path d="M 37 74  C 43.72 74  49 79.28  49 86  C 49 92.72  43.72 98  37 98  C 30.28 98  25 92.72  25 86  C 25 79.28  30.28 74  37 74  Z " fill-rule="nonzero" fill="#ffffff" stroke="none" />
    <path d="M 37 74.5  C 43.44 74.5  48.5 79.56  48.5 86  C 48.5 92.44  43.44 97.5  37 97.5  C 30.56 97.5  25.5 92.44  25.5 86  C 25.5 79.56  30.56 74.5  37 74.5  Z " stroke-width="1" stroke="#888888" fill="none" />
  </g>
</svg>