<?xml version="1.0" encoding="utf-8"?>
<svg version="1.1" xmlns:xlink="http://www.w3.org/1999/xlink" width="16px" height="16px" xmlns="http://www.w3.org/2000/svg">
  <g transform="matrix(1 0 0 1 -131 -17 )">
    <path d="M 16 8  C 16 3.6  12.4 0  8 0  C 3.6 0  0 3.6  0 8  C 0 12.4  3.6 16  8 16  C 12.4 16  16 12.4  16 8  Z M 14.65 8  C 14.65 11.7  11.7 14.65  8 14.65  C 4.3 14.65  1.35 11.65  1.35 8  C 1.35 4.3  4.35 1.35  8 1.35  C 11.65 1.35  14.65 4.35  14.65 8  Z M 7.2 10.6  L 7.2 11.9  L 8.6 11.9  L 8.6 10.6  L 7.2 10.6  Z M 10.5 6.2  C 10.45 4.85  9.7 4.15  8.3 4.1  C 6.7 4.05  5.75 4.7  5.45 6.2  L 6.65 6.55  C 6.8 5.65  7.3 5.2  8.2 5.2  C 8.85 5.25  9.25 5.55  9.3 6.15  C 9.35 6.65  9.05 7.15  8.35 7.65  C 7.65 8.15  7.3 8.8  7.3 9.55  L 7.3 9.85  L 8.4 9.85  L 8.4 9.6  C 8.35 9.2  8.6 8.8  9.1 8.5  C 10.05 7.8  10.55 7.05  10.5 6.2  Z " fill-rule="nonzero" fill="#ffffff" stroke="none" transform="matrix(1 0 0 1 131 17 )" />
  </g>
</svg>