<?xml version="1.0" encoding="utf-8"?>
<svg version="1.1" xmlns:xlink="http://www.w3.org/1999/xlink" width="16px" height="16px" xmlns="http://www.w3.org/2000/svg">
  <g transform="matrix(1 0 0 1 -76 -17 )">
    <path d="M 16 8  C 16 3.6  12.4 0  8 0  C 3.6 0  0 3.6  0 8  C 0 12.4  3.6 16  8 16  C 12.4 16  16 12.4  16 8  Z M 14.65 8  C 14.65 11.7  11.7 14.65  8 14.65  C 4.3 14.65  1.35 11.65  1.35 8  C 1.35 4.3  4.35 1.35  8 1.35  C 11.65 1.35  14.65 4.35  14.65 8  Z M 4.5 9.5  L 4.5 8.6  L 7.1 8.6  L 7.1 7.6  L 4.5 7.6  L 4.5 6.5  L 7.5 6.5  L 7.5 5.5  L 3 5.5  L 3 10.5  L 7.75 10.5  L 7.75 9.5  L 4.5 9.5  Z M 13.15 5.5  L 11.7 5.5  L 11.7 9.05  L 9.6 5.5  L 8 5.5  L 8 10.5  L 9.5 10.5  L 9.5 7  L 11.6 10.5  L 13.15 10.5  L 13.15 5.5  Z " fill-rule="nonzero" fill="#7c878e" stroke="none" transform="matrix(1 0 0 1 76 17 )" />
  </g>
</svg>