<?xml version="1.0" encoding="utf-8"?>
<svg version="1.1" xmlns:xlink="http://www.w3.org/1999/xlink" width="22px" height="22px" xmlns="http://www.w3.org/2000/svg">
  <g transform="matrix(1 0 0 1 -350 -14 )">
    <path d="M 22 11  C 22 4.95  17.05 0  11 0  C 4.95 0  0 4.95  0 11  C 0 17.05  4.95 22  11 22  C 17.05 22  22 17.05  22 11  Z M 19.9375 11  C 19.9375 13.3375  19.04375 15.46875  17.53125 17.11875  C 15.95 15.74375  13.6125 14.91875  11 14.91875  C 8.3875 14.91875  6.05 15.8125  4.46875 17.11875  C 2.95625 15.46875  2.0625 13.3375  2.0625 11  C 2.0625 6.05  6.05 2.0625  11 2.0625  C 15.95 2.0625  19.9375 6.05  19.9375 11  Z " fill-rule="nonzero" fill="#0085fe" stroke="none" transform="matrix(1 0 0 1 350 14 )" />
  </g>
</svg>