<?xml version="1.0" encoding="utf-8"?>
<svg version="1.1" xmlns:xlink="http://www.w3.org/1999/xlink" width="16px" height="16px" xmlns="http://www.w3.org/2000/svg">
  <g transform="matrix(1 0 0 1 -80 -17 )">
    <path d="M 8.89999999999999 0.699999999999999  L 8.7 1.2  C 9.7 2.3  10 2.6  10.9 3.3  C 12.3 4.3  13.5 5  15.3 5.6  C 15 6  15 6  14.4 7.4  C 13.2 6.9  12.8 6.7  11.8 6.1  L 11.8 7.1  C 11.4 7  11 7  10.4 7  L 4.90000000000001 7  C 4.40000000000001 7  3.90000000000001 7  3.5 7.1  L 3.5 6  C 2.8 6.4  1.59999999999999 7  0.900000000000006 7.3  C 0.700000000000003 6.7  0.5 6.4  0 5.6  C 1.2 5.1  1.59999999999999 4.9  2.59999999999999 4.3  C 4.69999999999999 3.1  6 1.9  6.89999999999999 0.300000000000001  L 8.89999999999999 0.699999999999999  Z M 4.10000000000001 15.3  L 2.2 15.3  C 2.3 14.8  2.3 14.3  2.3 13.6  L 2.3 9.9  C 2.3 9.2  2.3 8.8  2.2 8.3  C 2.60000000000001 8.3  2.90000000000001 8.4  3.60000000000001 8.4  L 11.6 8.4  C 12.2 8.4  12.6 8.4  13 8.3  C 12.9 8.7  12.9 9.2  12.9 9.9  L 12.9 13.6  C 12.9 14.3  12.9 14.8  13 15.3  L 11.1 15.3  L 11.1 14.5  L 4.10000000000001 14.5  L 4.10000000000001 15.3  Z M 4.09999999999999 9.9  L 4.09999999999999 12.9  L 11.1 12.9  L 11.1 9.9  L 4.09999999999999 9.9  Z M 5.00000000000001 5.3  L 10.4 5.3  C 10.6 5.3  10.6 5.3  10.7 5.3  C 9.60000000000001 4.5  8.60000000000001 3.6  7.7 2.6  C 6.8 3.7  6.2 4.2  4.60000000000001 5.3  C 4.7 5.3  4.80000000000001 5.3  5.00000000000001 5.3  Z " fill-rule="nonzero" fill="#ffffff" stroke="none" transform="matrix(1 0 0 1 80 17 )" />
  </g>
</svg>