<?xml version="1.0" encoding="utf-8"?>
<svg version="1.1" xmlns:xlink="http://www.w3.org/1999/xlink" width="15px" height="16px" xmlns="http://www.w3.org/2000/svg">
  <g transform="matrix(1 0 0 1 -128 -17 )">
    <path d="M 3.89999999999998 7.20000000000001  L 3.90000000000001 11.2  C 4 11.1  4 11.1  4.09999999999999 11.1  C 4.5 10.7  4.59999999999999 10.6  5 10.2  L 5 12.3  C 4.5 12.8  3.5 13.7  2.40000000000001 14.6  L 1.59999999999999 12.9  C 2.09999999999999 12.6  2.29999999999998 12.4  2.29999999999998 11.8  L 2.29999999999998 7.2  L 1.79999999999998 7.2  C 1.29999999999998 7.2  0.899999999999977 7.2  0.399999999999977 7.3  L 0.399999999999977 5.40000000000001  C 0.899999999999977 5.50000000000001  1.19999999999999 5.50000000000001  1.79999999999998 5.50000000000001  L 2.79999999999998 5.50000000000001  C 3.29999999999998 5.50000000000001  3.59999999999999 5.50000000000001  3.99999999999997 5.40000000000001  C 3.89999999999998 6.00000000000001  3.89999999999998 6.20000000000001  3.89999999999998 7.00000000000001  L 3.89999999999998 7.20000000000001  Z M 4.90000000000001 2.9  L 3.59999999999999 4.2  C 3.09999999999999 3.6  2 2.5  1.19999999999999 2  L 2.5 0.800000000000001  C 3.30000000000001 1.4  4.40000000000001 2.4  4.90000000000001 2.9  Z M 6.90000000000003 2.7  L 6.90000000000001 4.4  C 6.90000000000001 9.5  6.90000000000001 10.6  6.70000000000002 12.1  C 6.60000000000002 13.2  6.30000000000001 14.1  5.70000000000002 15.5  C 5.10000000000002 14.9  4.80000000000001 14.6  4.40000000000001 14.4  C 4.90000000000001 13.3  5.09999999999999 12.8  5.20000000000002 11.9  C 5.40000000000001 10.6  5.50000000000003 9.3  5.50000000000003 4.6  C 5.50000000000003 2.3  5.50000000000003 2  5.40000000000003 1.2  C 5.90000000000003 1.2  6.30000000000004 1.3  7.10000000000002 1.3  L 13 1.3  C 13.9 1.3  14.4 1.3  14.9 1.2  C 14.8 1.7  14.8 2.1  14.8 3  L 14.8 13.7  C 14.8 14.3  14.6000000000001 14.7  14.4 14.9  C 14.1 15.1  13.6 15.2  12.7 15.2  C 12.4 15.2  11.9 15.2  11.2 15.2  C 11.1000000000001 14.4  11.1000000000001 14.2  10.8 13.5  C 11.7 13.6  12.1000000000001 13.7  12.5 13.7  C 13 13.7  13.1 13.6  13 13.3  L 13 2.7  L 6.90000000000003 2.7  Z M 8.30000000000001 5.5  L 8.30000000000001 5.4  C 7.90000000000001 5.4  7.70000000000002 5.4  7.30000000000001 5.4  L 7.30000000000001 4  C 7.70000000000002 4  7.90000000000001 4.1  8.20000000000002 4.1  L 9.20000000000002 4.1  C 9.20000000000002 3.5  9.20000000000002 3.4  9.10000000000002 3.1  L 10.7 3.1  C 10.6 3.5  10.6 3.5  10.6 4.1  L 11.4 4.1  C 11.8 4.1  12.1 4.1  12.4 4  L 12.4 5.4  C 12 5.4  11.9 5.4  11.4 5.4  L 10.6 5.4  L 10.6 6.5  L 11.6 6.5  C 12 6.5  12.3 6.5  12.6 6.4  L 12.6 8  C 12.3 8  12.1 7.9  11.6 7.9  L 8.20000000000002 7.9  C 7.80000000000001 7.9  7.50000000000003 7.9  7.20000000000002 8  L 7.20000000000002 6.5  C 7.50000000000003 6.5  7.80000000000001 6.6  8.20000000000002 6.6  L 9.20000000000002 6.6  L 9.20000000000002 5.5  L 8.30000000000001 5.5  Z M 8.59999999999997 8.7  L 11.1 8.7  C 11.6 8.7  11.9 8.7  12.2 8.7  C 12.2 9.1  12.2 9.3  12.2 9.8  L 12.2 12.2  C 12.2 12.6  12.2 12.7  12.2 13  C 11.5 13  11.3 13  11.1 13  L 8.79999999999998 13  L 8.79999999999998 14.1  L 7.39999999999998 14.1  C 7.39999999999998 13.7  7.49999999999997 13.4  7.49999999999997 12.8  L 7.49999999999997 9.8  C 7.49999999999997 9.3  7.49999999999997 9.2  7.49999999999997 8.7  C 7.99999999999997 8.7  8.09999999999997 8.7  8.59999999999997 8.7  Z M 9 10  L 9 11.5  L 10.7 11.5  L 10.7 10  L 9 10  Z " fill-rule="nonzero" fill="#ffffff" stroke="none" transform="matrix(1 0 0 1 128 17 )" />
  </g>
</svg>