<?xml version="1.0" encoding="utf-8"?>
<svg version="1.1" xmlns:xlink="http://www.w3.org/1999/xlink" width="14px" height="16px" xmlns="http://www.w3.org/2000/svg">
  <g transform="matrix(1 0 0 1 -177 -17 )">
    <path d="M 4.79999999999998 0.500000000000011  L 6.69999999999999 1.3  C 6.59999999999999 1.4  6.59999999999999 1.4  6.29999999999998 1.9  C 5.19999999999999 3.3  4.09999999999999 4.6  3.19999999999999 5.5  C 6.89999999999998 5.4  6.89999999999998 5.4  10.1 5.10000000000001  C 9.40000000000001 4.3  9 3.8  7.90000000000001 2.90000000000001  L 9.5 2.00000000000001  C 11.4 3.80000000000001  12.4 4.90000000000001  14 7.10000000000001  L 12.4 8.20000000000001  C 11.9 7.40000000000001  11.7 7.10000000000001  11.3 6.60000000000001  C 7.10000000000002 7.00000000000001  7.10000000000002 7.00000000000001  2.5 7.20000000000001  C 1.80000000000001 7.20000000000001  1.30000000000001 7.20000000000001  0.400000000000006 7.30000000000001  L 0.0999999999999943 5.50000000000001  C 1 5.30000000000001  1.19999999999999 5.20000000000001  1.90000000000001 4.50000000000001  C 3.5 2.60000000000001  3.70000000000002 2.40000000000001  4.40000000000001 1.30000000000001  C 4.5 1.20000000000001  4.5 1.10000000000001  4.59999999999999 1.00000000000001  C 4.69999999999999 0.800000000000011  4.79999999999998 0.70000000000001  4.79999999999998 0.500000000000011  Z M 2.89999999999995 15.3  L 1.09999999999999 15.3  C 1.19999999999999 14.7  1.19999999999999 14.2  1.19999999999999 13.5  L 1.19999999999999 9.9  C 1.19999999999999 9.29999999999999  1.19999999999999 8.9  1.09999999999999 8.4  C 1.5 8.4  1.90000000000001 8.5  2.79999999999998 8.5  L 10.4 8.5  C 11.2 8.5  11.7 8.5  12.1 8.4  C 12 8.9  12 9.2  12 9.9  L 12 13.5  C 12 14.3  12 14.8  12.1 15.3  L 10.3 15.3  L 10.3 14.5  L 2.89999999999995 14.5  L 2.89999999999995 15.3  Z M 2.90000000000001 10  L 2.90000000000001 12.9  L 10.3 12.9  L 10.3 10  L 2.90000000000001 10  Z " fill-rule="nonzero" fill="#ffffff" stroke="none" transform="matrix(1 0 0 1 177 17 )" />
  </g>
</svg>