<?xml version="1.0" encoding="utf-8"?>
<svg version="1.1" xmlns:xlink="http://www.w3.org/1999/xlink" width="17px" height="15px" xmlns="http://www.w3.org/2000/svg">
  <g transform="matrix(1 0 0 1 -22 -19 )">
    <path d="M 12.3 14.1  C 14.7 14.2  16.5 12.3  16.5 10  C 16.5 7.7  14.7 5.8  12.3 5.8  C 11.6 5.8  11 6  10.4 6.3  C 10.7 5.7  10.9 5.1  10.9 4.4  C 10.9 2.1  9.1 0.200000000000003  6.7 0.200000000000003  C 4.4 0.200000000000003  2.5 2  2.5 4.4  L 2.5 8.7  C 2.5 8.8  2.5 8.8  2.5 8.8  C 2.5 10.9  1.6 12.8  0.199999999999999 14.1  L 4.5 14.1  L 9.5 14.1  L 12.3 14.1  Z " fill-rule="nonzero" fill="#a12224" stroke="none" transform="matrix(1 0 0 1 22 19 )" />
  </g>
</svg>