<?xml version="1.0" encoding="utf-8"?>
<svg version="1.1" xmlns:xlink="http://www.w3.org/1999/xlink" width="31px" height="18px" xmlns="http://www.w3.org/2000/svg">
  <g transform="matrix(1 0 0 1 -10 -17 )">
    <path d="M 30.3 12  C 30.4 8.8  27.9 6.2  24.8 6  C 24.6 2.9  22 0.399999999999999  18.8 0.399999999999999  C 15.5 0.399999999999999  12.8 3.1  12.8 6.4  L 12.8 10.9  C 12.8 13.8  10.4 16.2  7.5 16.2  C 4.59999999999999 16.2  2.2 13.8  2.2 10.9  C 2.2 9.4  2.8 8.09999999999999  3.8 7.09999999999999  C 3.7 6.79999999999999  3.7 6.4  3.7 6.09999999999999  C 3.7 5.7  3.8 5.2  3.9 4.7  C 1.8 5.9  0.299999999999995 8.2  0.299999999999995 10.9  C 0.299999999999995 14.9  3.5 18  7.4 18  L 24.3 18  C 27.6 18  30.3 15.3  30.3 12  Z M 28.3 11.6  C 28.5 12.9  28.3 13.7  27.9 14.3  C 27.6 14.7  27.2 15.1  26.8 15.4  C 26.1 15.8  25.4 16.1  24.5 16  L 12.3 16  C 13.7 14.8  14.6 12.9  14.6 10.8  L 14.6 6.3  C 14.6 4  16.5 2.1  18.8 2.1  C 19.1 2.1  19.4 2.2  19.6 2.2  C 19.7 2.2  19.8 2.3  19.9 2.3  C 20 2.40000000000001  20.2 2.40000000000001  20.3 2.40000000000001  C 20.5 2.50000000000001  20.6 2.60000000000001  20.7 2.60000000000001  C 20.8 2.70000000000001  20.9 2.70000000000001  20.9 2.70000000000001  C 21.1 2.80000000000001  21.2 3.00000000000001  21.4 3.10000000000001  L 21.5 3.20000000000001  C 22.2 3.90000000000001  22.7 4.90000000000001  22.8 6.00000000000001  C 22.8 6.10000000000001  22.8 6.20000000000001  22.8 6.20000000000001  C 22.8 6.90000000000001  22.6 7.50000000000001  22.3 8.10000000000001  C 22.9 7.8  23.5 7.60000000000001  24.2 7.60000000000001  C 24.3 7.60000000000001  24.4 7.60000000000001  24.4 7.60000000000001  C 25.5 7.70000000000001  26.5 8.20000000000001  27.2 8.90000000000001  L 27.3 9.00000000000001  C 27.5 9.20000000000001  27.6 9.30000000000001  27.7 9.50000000000001  C 27.8 9.60000000000001  27.8 9.70000000000001  27.8 9.70000000000001  C 27.9 9.90000000000001  28 10  28 10.1  C 28.1 10.2  28.1 10.4  28.1 10.5  C 28.2 10.6  28.2 10.7  28.2 10.8  C 28.3 11.1  28.3 11.4  28.3 11.6  Z " fill-rule="nonzero" fill="#ffffff" stroke="none" transform="matrix(1 0 0 1 10 17 )" />
  </g>
</svg>