<?xml version="1.0" encoding="utf-8"?>
<svg version="1.1" xmlns:xlink="http://www.w3.org/1999/xlink" width="12px" height="14px" xmlns="http://www.w3.org/2000/svg">
  <g transform="matrix(1 0 0 1 -15 -14 )">
    <path d="M 2.3 8.9  C 2.3 5.5  5 2.8  8.3 2.8  C 8.7 2.8  9 2.9  9.4 2.9  C 10.2 2.4  11 2.1  11.9 1.8  C 10.8 1.2  9.6 0.900000000000002  8.3 0.900000000000002  C 4 0.900000000000002  0.4 4.4  0.4 8.8  C 0.4 10.7  1.1 12.6  2.3 14  C 2.6 13.4  3 12.9  3.5 12.5  C 2.7 11.5  2.3 10.2  2.3 8.9  Z " fill-rule="nonzero" fill="#ffffff" stroke="none" transform="matrix(1 0 0 1 15 14 )" />
  </g>
</svg>