<?xml version="1.0" encoding="utf-8"?>
<svg version="1.1" xmlns:xlink="http://www.w3.org/1999/xlink" width="16px" height="16px" xmlns="http://www.w3.org/2000/svg">
  <g transform="matrix(1 0 0 1 -48 -17 )">
    <path d="M 5.2 10.5  L 5.2 13  C 6.2 13.4  7.3 13.5  9.90000000000001 13.5  C 12.2 13.5  13.8 13.4  15.3 13.3  C 15 14.1  14.9 14.4  14.8 15.1  C 12.7 15.1  11.4 15.2  10.7 15.2  C 7.2 15.2  5.7 15  4.5 14.5  C 3.6 14.1  3 13.5  2.4 12.6  C 2.2 13.7  1.9 14.5  1.4 15.4  C 1 14.9  0.600000000000001 14.6  0.100000000000001 14.3  C 0.600000000000001 13.4  0.800000000000004 12.9  1 11.9  C 1.2 10.9  1.3 9.90000000000001  1.3 8.8  C 1.3 8.5  1.3 8.3  1.3 8  L 2.9 8.2  C 2.9 8.6  2.9 8.6  2.8 9.5  C 2.8 9.8  2.8 10.1  2.7 10.7  C 2.9 11.1  3.2 11.5  3.59999999999999 11.9  L 3.59999999999999 7.1  L 2.2 7.1  C 1.4 7.1  0.999999999999993 7.1  0.599999999999994 7.2  L 0.599999999999994 5.5  C 0.999999999999993 5.60000000000001  1.39999999999999 5.60000000000001  2.2 5.60000000000001  L 3.4 5.60000000000001  L 3.4 4  L 2.4 4  C 1.7 4  1.4 4  0.899999999999999 4.10000000000001  L 0.899999999999999 2.40000000000001  C 1.3 2.50000000000001  1.6 2.50000000000001  2.4 2.50000000000001  L 3.4 2.50000000000001  L 3.4 2.10000000000001  C 3.4 1.40000000000001  3.4 1.10000000000001  3.3 0.70000000000001  L 5.09999999999999 0.70000000000001  C 5 1.1  5 1.5  5 2.2  L 5 2.6  L 5.5 2.6  C 6.3 2.6  6.6 2.6  6.9 2.5  L 6.9 4.2  C 6.5 4.09999999999999  6.1 4.09999999999999  5.5 4.09999999999999  L 5 4.09999999999999  L 5 5.7  L 5.8 5.7  C 6.5 5.7  6.8 5.7  7.2 5.59999999999999  L 7.2 5.9  C 7.9 5.59999999999999  8.2 5.4  8.49999999999999 5  C 8.89999999999999 4.5  9.2 3.8  9.29999999999999 2.9  L 8.59999999999999 2.9  C 7.99999999999999 2.9  7.69999999999999 2.9  7.39999999999998 3  L 7.39999999999998 1.3  C 7.79999999999998 1.4  8.39999999999998 1.4  9.09999999999999 1.4  L 12.9 1.4  C 13.7 1.4  14.2 1.4  14.5 1.3  C 14.5 1.7  14.5 1.7  14.4 2.8  C 14.4 3.6  14.3 5  14.2 5.4  C 14 6.8  13.5 7.1  11.8 7.1  C 11.6 7.1  11.4 7.1  10.9 7.1  C 10.8 6.3  10.8 6  10.5 5.5  C 11.1 5.6  11.4 5.6  11.7 5.6  C 12.2 5.6  12.4 5.5  12.5 5.3  C 12.6 4.9  12.7 4.2  12.7 3  L 11 3  C 10.9 3.8  10.7 4.5  10.4 5.1  C 10 6  9.2 6.8  8.1 7.4  C 7.8 6.9  7.6 6.6  7.3 6.2  L 7.3 7.4  C 6.90000000000001 7.3  6.50000000000001 7.3  5.8 7.3  L 5.2 7.3  L 5.2 9.1  L 5.90000000000001 9.1  C 6.50000000000001 9.1  6.8 9.1  7.2 9  L 7.2 10.6  C 6.8 10.5  6.5 10.5  5.90000000000001 10.5  L 5.2 10.5  Z M 7.79999999999999 11  L 7.8 8.8  C 7.8 8  7.8 7.8  7.7 7.5  C 8.09999999999999 7.5  8.4 7.6  9.09999999999999 7.6  L 12.6 7.6  C 13.4 7.6  13.8 7.6  14.4 7.5  C 14.3 7.9  14.3 8.3  14.3 9.1  L 14.3 11  C 14.3 11.9  14.3 12.2  14.4 12.6  C 13.9 12.6  13.4 12.5  12.7 12.5  L 9.39999999999999 12.5  C 8.59999999999999 12.5  8.09999999999999 12.5  7.69999999999999 12.6  C 7.79999999999999 12.2  7.79999999999999 11.8  7.79999999999999 11  Z M 9.4 9  L 9.4 11.1  L 12.7 11.1  L 12.7 9  L 9.4 9  Z " fill-rule="nonzero" fill="#ffffff" stroke="none" transform="matrix(1 0 0 1 48 17 )" />
  </g>
</svg>