<?xml version="1.0" encoding="utf-8"?>
<svg version="1.1" xmlns:xlink="http://www.w3.org/1999/xlink" width="16px" height="16px" xmlns="http://www.w3.org/2000/svg">
  <g transform="matrix(1 0 0 1 -64 -17 )">
    <path d="M 8.09999999999999 2.8  L 8.2 2.8  C 7.7 2.8  7.40000000000001 2.7  6.5 2.7  L 2.2 2.7  C 1.40000000000001 2.7  1.10000000000001 2.7  0.5 2.8  L 0.5 1.2  C 1 1.3  1.40000000000001 1.3  2.3 1.3  L 6.39999999999999 1.3  C 7.3 1.3  7.69999999999999 1.3  8.09999999999999 1.2  L 8.09999999999999 2.8  Z M 0.899999999999991 8.6  L 0.700000000000003 8.6  C 0.700000000000003 8  0.700000000000003 7.5  0.700000000000003 7.1  C 1 7.1  1.5 7.1  2 7.1  L 6.8 7.1  C 7.5 7.1  7.8 7.1  8.09999999999999 7.1  C 8.09999999999999 7.5  8.09999999999999 7.9  8.09999999999999 8.5  L 8.09999999999999 13.7  C 8.09999999999999 14.9  7.69999999999999 15.2  6 15.2  C 5.90000000000001 15.2  5.8 15.2  5.59999999999999 15.2  C 5.59999999999999 14.5  5.5 14.2  5.3 13.5  C 5.8 13.6  6 13.6  6.3 13.6  C 6.59999999999999 13.6  6.7 13.5  6.7 13.3  L 6.7 8.5  L 2.40000000000001 8.5  L 2.40000000000001 13.7  C 2.40000000000001 14.5  2.40000000000001 14.9  2.5 15.3  L 0.799999999999997 15.3  C 0.899999999999991 14.8  0.899999999999991 14.3  0.899999999999991 13.3  L 0.899999999999991 8.6  Z M 7.50000000000001 4.3  L 7.5 5.4  C 7.5 6.1  7.5 6.2  7.5 6.6  C 7.2 6.6  7 6.6  6.5 6.6  L 2.40000000000001 6.6  C 1.80000000000001 6.6  1.5 6.6  1.2 6.6  C 1.2 6.3  1.2 6  1.2 5.4  L 1.2 4.3  C 1.2 3.8  1.2 3.4  1.2 3.1  C 1.60000000000001 3.1  1.8 3.1  2.40000000000001 3.1  L 6.30000000000001 3.1  C 7.00000000000001 3.1  7.20000000000002 3.1  7.50000000000001 3.1  C 7.50000000000001 3.4  7.50000000000001 3.6  7.50000000000001 4.3  Z M 2.59999999999998 12  L 2.59999999999999 10.8  C 2.8 10.8  3 10.8  3.3 10.8  C 3.09999999999999 10.2  2.89999999999999 9.7  2.5 9.2  L 3.5 8.8  C 3.8 9.2  4.2 9.9  4.40000000000001 10.4  L 3.30000000000001 10.8  L 4.30000000000001 10.8  C 4.60000000000001 10.2  4.80000000000001 9.7  5.00000000000001 8.7  L 6.30000000000001 9.1  C 6.20000000000002 9.4  5.70000000000002 10.5  5.60000000000001 10.8  C 5.90000000000001 10.8  6.00000000000001 10.8  6.30000000000001 10.8  L 6.30000000000001 12.1  C 6.00000000000001 12.1  5.80000000000001 12.1  5.40000000000001 12.1  L 5 12.1  L 5 13.8  C 5 14.2  5 14.5  5 14.8  L 3.59999999999999 14.8  C 3.59999999999999 14.5  3.69999999999999 14.1  3.69999999999999 13.8  L 3.69999999999999 12  L 3.49999999999999 12  C 3.09999999999998 12  2.89999999999999 12  2.59999999999998 12  Z M 6 5.3  L 6 4.5  L 2.8 4.5  L 2.8 5.3  L 6 5.3  Z M 13.2 3.19999999999999  L 13.2 3.4  C 13.9 3.4  14.3 3.4  14.7 3.3  C 14.7 3.8  14.6 4.2  14.6 4.9  L 14.6 8.3  C 14.6 9.1  14.6 9.5  14.7 10  C 14.3 10  13.9 10  13.2 10  L 12.4 10  L 12.4 12.7  C 12.7 12.6  13 12.6  13.2 12.5  C 13.1 12.1  13 11.8  12.8 11.1  L 14.2 10.6  C 14.8 12.2  15 13  15.5 14.8  L 14 15.4  C 13.9 15  13.8 14.5  13.7 13.9  C 12.9 14.1  11.2 14.6  9.90000000000001 14.8  C 9.10000000000001 15  9.10000000000001 15  8.7 15.1  L 8.3 13.2  C 9.2 13.2  9.3 13.2  10.9 12.9  L 10.9 9.9  L 10 9.9  C 9.2 9.9  9 9.9  8.59999999999999 9.9  C 8.59999999999999 9.4  8.59999999999999 9.2  8.59999999999999 8.29999999999999  L 8.59999999999999 4.69999999999999  C 8.59999999999999 3.89999999999999  8.59999999999999 3.49999999999999  8.59999999999999 3.09999999999999  C 9 3.09999999999999  9.39999999999999 3.19999999999999  10.2 3.19999999999999  L 10.8 3.19999999999999  L 10.8 2.19999999999999  C 10.8 1.49999999999999  10.8 0.999999999999993  10.7 0.499999999999993  L 12.5 0.499999999999993  C 12.4 0.999999999999993  12.4 1.39999999999999  12.4 2.19999999999999  L 12.4 3.19999999999999  L 13.2 3.19999999999999  Z M 10.8 8.5  L 10.8 4.9  L 10 4.9  L 10 8.5  L 10.8 8.5  Z M 12.4 4.9  L 12.4 8.5  L 13.2 8.5  L 13.2 4.9  L 12.4 4.9  Z " fill-rule="nonzero" fill="#ffffff" stroke="none" transform="matrix(1 0 0 1 64 17 )" />
  </g>
</svg>