<?xml version="1.0" encoding="utf-8"?>
<svg version="1.1" xmlns:xlink="http://www.w3.org/1999/xlink" width="14px" height="16px" xmlns="http://www.w3.org/2000/svg">
  <g transform="matrix(1 0 0 1 -112 -17 )">
    <path d="M 7.7 5.50000000000001  L 7.7 5.6  C 7.60000000000001 6.8  7.5 6.9  7.40000000000001 7.6  C 6.90000000000001 10.1  6 11.7  4.40000000000001 13.2  C 3.60000000000001 14  2.80000000000001 14.5  1.60000000000001 15.2  C 1.2 14.5  0.800000000000011 14  0.300000000000011 13.5  C 2.50000000000001 12.5  3.90000000000001 11.3  4.80000000000001 9.5  C 5.30000000000001 8.5  5.60000000000001 7.4  5.80000000000001 5.5  L 3 5.5  C 2.2 5.5  1.59999999999999 5.5  1 5.60000000000001  L 1 3.70000000000001  C 1.59999999999999 3.80000000000001  2.09999999999999 3.80000000000001  3 3.80000000000001  L 5.8 3.80000000000001  C 5.8 3.30000000000001  5.8 2.90000000000001  5.8 2.10000000000001  C 5.8 1.40000000000001  5.8 0.900000000000009  5.7 0.600000000000009  L 7.8 0.600000000000009  C 7.7 1.00000000000001  7.7 1.00000000000001  7.59999999999999 3.80000000000001  L 11.6 3.80000000000001  C 12.6 3.80000000000001  13.1 3.80000000000001  13.7 3.70000000000001  C 13.6 4.30000000000001  13.6 4.30000000000001  13.6 6.10000000000001  C 13.6 8.3  13.4 11  13.2 12.1  C 13 13.6  12.8 14.1  12.3 14.5  C 11.9 14.8  11.3 14.9  10.3 14.9  C 9.59999999999998 14.9  8.99999999999999 14.9  7.89999999999998 14.7  C 7.79999999999998 13.9  7.69999999999997 13.4  7.49999999999997 12.8  C 8.49999999999997 13  9.39999999999998 13.1  10.3 13.1  C 11.1 13.1  11.3 12.8  11.5 11.7  C 11.7 10.5  11.9 8.00000000000001  11.9 5.50000000000001  L 7.7 5.50000000000001  Z " fill-rule="nonzero" fill="#ffffff" stroke="none" transform="matrix(1 0 0 1 112 17 )" />
  </g>
</svg>