<?xml version="1.0" encoding="utf-8"?>
<svg version="1.1" xmlns:xlink="http://www.w3.org/1999/xlink" width="15px" height="15px" xmlns="http://www.w3.org/2000/svg">
  <g transform="matrix(1 0 0 1 -160 -18 )">
    <path d="M 8.39999999999998 7.2  L 8.5 7.2  L 13 7.2  C 13.9 7.2  14.4 7.2  14.9 7.1  L 14.9 9  C 14.4 8.9  13.7 8.9  12.9 8.9  L 8.5 8.9  L 8.5 12.5  C 8.5 13.2  8.5 13.8  8.59999999999999 14.6  L 6.59999999999999 14.6  C 6.69999999999999 13.9  6.69999999999999 13.3  6.69999999999999 12.5  L 6.69999999999999 8.9  L 2.39999999999998 8.9  C 1.59999999999997 8.9  0.999999999999972 8.9  0.399999999999977 9  L 0.399999999999977 7.1  C 0.899999999999977 7.2  1.39999999999998 7.2  2.39999999999998 7.2  L 6.69999999999999 7.2  L 6.69999999999999 1.8  L 3.09999999999999 1.8  C 2.29999999999998 1.8  1.69999999999999 1.8  1.09999999999999 1.90000000000001  L 1.09999999999999 0.100000000000005  C 1.69999999999999 0.200000000000006  2.19999999999999 0.200000000000006  3.09999999999999 0.200000000000006  L 12.2 0.200000000000006  C 13.1 0.200000000000006  13.6 0.200000000000006  14.2 0.100000000000005  L 14.2 1.90000000000001  C 13.6 1.8  13.1 1.8  12.2 1.8  L 8.39999999999998 1.8  L 8.39999999999998 7.2  Z M 2 2.9  L 3.5 2.2  C 4.40000000000001 3.6  4.90000000000001 4.5  5.5 6  L 3.90000000000001 6.8  C 3.40000000000001 5.2  2.90000000000001 4.2  2 2.9  Z M 11.8 2.2  L 13.5 3  C 12.8 4.6  12.3 5.6  11.3 6.9  L 9.70000000000002 6.1  C 10.7 4.8  11.3 3.9  11.8 2.2  Z " fill-rule="nonzero" fill="#ffffff" stroke="none" transform="matrix(1 0 0 1 160 18 )" />
  </g>
</svg>