<?xml version="1.0" encoding="utf-8"?>
<svg version="1.1" xmlns:xlink="http://www.w3.org/1999/xlink" width="14px" height="16px" xmlns="http://www.w3.org/2000/svg">
  <g transform="matrix(1 0 0 1 -420 -17 )">
    <path d="M 14 4  L 8 0.6  L 8 7  L 14 7  L 14 4  Z M 9.7 5.3  L 9.7 3.5  L 12.3 5  L 12.3 5.3  L 9.7 5.3  Z M 6 7  L 6 0.6  L 0 4  L 0 7  L 6 7  Z M 1.7 5.3  L 1.7 5  L 4.3 3.5  L 4.3 5.3  L 1.7 5.3  Z M 14 9  L 8 9  L 8 15.4  L 14 12  L 14 9  Z M 9.7 12.5  L 9.7 10.7  L 12.3 10.7  L 12.3 11  L 9.7 12.5  Z M 6 9  L 0 9  L 0 12  L 6 15.4  L 6 9  Z M 4.3 12.5  L 1.7 11  L 1.7 10.7  L 4.3 10.7  L 4.3 12.5  Z " fill-rule="nonzero" fill="#ffffff" stroke="none" transform="matrix(1 0 0 1 420 17 )" />
  </g>
</svg>