<?xml version="1.0" encoding="utf-8"?>
<svg version="1.1" xmlns:xlink="http://www.w3.org/1999/xlink" width="15px" height="16px" xmlns="http://www.w3.org/2000/svg">
  <g transform="matrix(1 0 0 1 -96 -17 )">
    <path d="M 12 2.8  L 12 3.1  C 12 3.1  12 3.2  12.1 3.3  C 12.3 3.6  12.4 3.7  12.6 4.1  L 11.5 4.5  C 12.4 4.5  12.6 4.5  13 4.5  C 13 4.9  13 5.4  13 6.2  L 13 9.2  C 13 10.1  13 10.5  13.1 10.9  C 12.6 10.9  12.3 10.9  11.4 10.9  L 11 10.9  L 11 11.6  L 13 11.6  C 13.9 11.6  14.4 11.6  14.9 11.5  L 14.9 13  C 14.4 12.9  13.8 12.9  13 12.9  L 11 12.9  L 11 14  C 11 14.6  11 15  11.1 15.4  L 9.19999999999999 15.4  C 9.29999999999998 15  9.29999999999998 14.6  9.29999999999998 14  L 9.29999999999998 12.9  L 6.09999999999998 12.9  C 5.89999999999998 13.6  5.49999999999999 14.1  4.89999999999998 14.5  C 4.19999999999997 15  3.39999999999998 15.3  1.99999999999997 15.6  C 1.69999999999997 15.1  1.49999999999997 14.8  0.999999999999972 14.1  C 2.29999999999997 14  2.39999999999998 13.9  2.89999999999998 13.8  C 3.59999999999998 13.6  4.09999999999998 13.3  4.29999999999998 12.8  L 2.19999999999999 12.8  C 1.49999999999999 12.8  0.999999999999986 12.8  0.399999999999991 12.9  L 0.399999999999991 11.3  C 0.899999999999991 11.4  1.39999999999999 11.4  2.19999999999999 11.4  L 4.69999999999999 11.4  C 4.69999999999999 11.1  4.69999999999999 11.1  4.69999999999999 10.7  L 3.99999999999999 10.7  C 3.09999999999998 10.7  2.79999999999998 10.7  2.29999999999998 10.7  C 2.29999999999998 10.3  2.39999999999998 9.9  2.39999999999998 9.1  L 2.39999999999998 5.4  C 2.39999999999998 4.9  2.39999999999998 4.6  2.39999999999998 4.2  C 2.79999999999998 4.2  2.99999999999997 4.2  3.69999999999997 4.2  L 4.59999999999998 4.2  C 4.39999999999998 3.6  4.19999999999997 3.3  3.89999999999998 2.8  L 3.09999999999998 2.8  C 2.39999999999998 3.7  2.09999999999998 4.2  1.39999999999998 4.8  C 1.09999999999998 4.3  0.699999999999974 3.90000000000001  0.299999999999983 3.5  C 1.09999999999998 2.8  1.49999999999999 2.4  1.99999999999999 1.7  C 2.39999999999999 1.1  2.69999999999999 0.600000000000001  2.79999999999998 0.200000000000003  L 4.49999999999999 0.600000000000001  C 4.49999999999999 0.700000000000003  4.29999999999998 1  4.09999999999998 1.4  L 6.09999999999998 1.4  C 6.79999999999998 1.4  7.19999999999997 1.4  7.59999999999998 1.3  L 7.59999999999998 2.7  C 8.29999999999998 1.9  8.79999999999998 1  8.99999999999999 0.199999999999999  L 10.7 0.599999999999998  C 10.5 0.899999999999999  10.5 0.999999999999996  10.3 1.4  L 13.3 1.4  C 14.1 1.4  14.5 1.4  14.9 1.3  L 14.9 2.9  C 14.4 2.8  14 2.8  13.3 2.8  L 12 2.8  Z M 4.09999999999999 5.6  L 4.09999999999999 6.2  L 11.4 6.2  L 11.4 5.6  L 4.09999999999999 5.6  Z M 4.09999999999999 7.3  L 4.09999999999999 7.9  L 11.4 7.9  L 11.4 7.3  L 4.09999999999999 7.3  Z M 4.09999999999999 9  L 4.09999999999999 9.6  L 11.4 9.6  L 11.4 9  L 4.09999999999999 9  Z M 5.00000000000001 4.4  L 7.90000000000001 4.4  C 7.60000000000001 4.1  7.30000000000001 3.9  6.80000000000001 3.6  C 7.10000000000001 3.4  7.10000000000001 3.4  7.30000000000001 3.1  C 7.00000000000001 3.1  6.60000000000001 3.1  6.10000000000001 3.1  L 5.50000000000001 3.1  C 5.80000000000001 3.5  5.80000000000001 3.6  6.10000000000001 4.1  L 5.00000000000001 4.4  Z M 9.30000000000001 10.8  L 6.40000000000001 10.8  C 6.40000000000001 11.1  6.40000000000001 11.3  6.40000000000001 11.5  L 9.30000000000001 11.5  L 9.30000000000001 10.8  Z M 10.3 3.1  L 9.40000000000001 3.1  C 9.10000000000001 3.6  8.7 4.1  8.30000000000001 4.5  L 11.1 4.5  C 10.8 3.9  10.7 3.6  10.3 3.1  Z " fill-rule="nonzero" fill="#ffffff" stroke="none" transform="matrix(1 0 0 1 96 17 )" />
  </g>
</svg>