<?xml version="1.0" encoding="utf-8"?>
<svg version="1.1" xmlns:xlink="http://www.w3.org/1999/xlink" width="15px" height="16px" xmlns="http://www.w3.org/2000/svg">
  <g transform="matrix(1 0 0 1 -144 -17 )">
    <path d="M 11.9 4.4  L 13.5 4.4  C 14.2 4.4  14.5 4.4  14.9 4.3  L 14.9 6  C 14.5 6  14.2 5.9  13.5 5.9  L 12 5.9  L 12 7.4  C 12 7.8  12 8.1  12 8.4  C 11.9 8.4  11.9 8.4  11.8 8.4  C 11.7 8.4  11.4 8.4  11 8.4  L 6.5 8.4  C 5.90000000000001 8.4  5.69999999999999 8.4  5.40000000000001 8.4  C 5.40000000000001 8.1  5.5 7.7  5.5 7.4  L 5.5 5.9  L 3.19999999999999 5.9  L 3.19999999999999 6.5  C 3.19999999999999 8.2  3 10.3  2.69999999999999 11.8  C 2.39999999999998 13.2  2.09999999999999 14.1  1.39999999999998 15.4  C 0.999999999999972 14.8  0.599999999999966 14.4  0.0999999999999659 13.9  C 0.69999999999996 12.7  0.999999999999972 11.9  1.19999999999996 10.4  C 1.39999999999995 8.8  1.49999999999997 7.3  1.49999999999997 4  C 1.49999999999997 2.8  1.49999999999997 2.3  1.39999999999998 1.7  C 1.99999999999997 1.7  2.49999999999997 1.8  3.19999999999999 1.8  L 7.19999999999999 1.8  C 7.19999999999999 1.7  7.19999999999999 1.7  7.09999999999999 1.6  C 7 1.3  6.90000000000001 1.2  6.69999999999999 0.900000000000002  L 8.59999999999999 0.500000000000004  C 8.79999999999998 0.900000000000002  9 1.3  9.19999999999999 1.8  L 12.9 1.8  C 13.8 1.8  14.4 1.8  14.8 1.7  L 14.8 3.4  C 14.3 3.4  13.9 3.3  13.1 3.3  L 11.9 3.3  L 11.9 4.4  Z M 12.3 9.4  L 13.2 10.2  C 13.1 10.3  13 10.4  12.9 10.5  C 12 11.5  11.3 12.2  10.3 12.9  C 11.8 13.4  13.1 13.6  15 13.7  C 14.7 14.3  14.5 14.8  14.3 15.5  C 11.6 15.2  10.1 14.8  8.49999999999997 13.9  C 6.89999999999998 14.7  5.49999999999997 15.1  2.99999999999997 15.5  C 2.89999999999998 14.9  2.69999999999996 14.6  2.39999999999998 13.9  C 4.39999999999998 13.8  5.59999999999997 13.5  6.99999999999997 13  C 6.09999999999997 12.3  5.69999999999996 11.9  4.79999999999998 10.7  C 4.29999999999998 10.7  3.99999999999997 10.7  3.69999999999999 10.8  L 3.69999999999999 9.3  C 4.09999999999999 9.4  4.59999999999999 9.4  5.39999999999998 9.4  L 11 9.4  C 11.7 9.4  11.9 9.4  12.3 9.4  Z M 5.5 4.4  L 5.5 3.3  L 3.19999999999999 3.3  L 3.19999999999999 4.4  L 5.5 4.4  Z M 10.7 10.7  L 6.80000000000001 10.7  C 7.20000000000002 11.3  7.80000000000001 11.7  8.70000000000002 12.2  C 9.60000000000002 11.7  10 11.4  10.7 10.7  Z M 10.3 4.4  L 10.3 3.3  L 7.20000000000002 3.3  L 7.20000000000002 4.4  L 10.3 4.4  Z M 10.2 5.9  L 7.09999999999999 5.9  L 7.09999999999999 7  L 10.2 7  L 10.2 5.9  Z " fill-rule="nonzero" fill="#ffffff" stroke="none" transform="matrix(1 0 0 1 144 17 )" />
  </g>
</svg>