<?xml version="1.0" encoding="utf-8"?>
<svg version="1.1" xmlns:xlink="http://www.w3.org/1999/xlink" width="14px" height="14px" xmlns="http://www.w3.org/2000/svg">
  <g transform="matrix(1 0 0 1 0 -183 )">
    <path d="M 0 0  L 0 6.5625  L 6.5625 6.5625  L 6.5625 0  L 0 0  Z M 1.75 4.8125  L 1.75 1.75  L 4.8125 1.75  L 4.8125 4.8125  L 1.75 4.8125  Z M 14 0  L 7.4375 0  L 7.4375 6.5625  L 14 6.5625  L 14 0  Z M 12.25 1.75  L 12.25 4.8125  L 9.1875 4.8125  L 9.1875 1.75  L 12.25 1.75  Z M 0 7.4375  L 0 14  L 6.5625 14  L 6.5625 7.4375  L 0 7.4375  Z M 1.75 12.25  L 1.75 9.1875  L 4.8125 9.1875  L 4.8125 12.25  L 1.75 12.25  Z M 7.4375 7.4375  L 7.4375 14  L 14 14  L 14 7.4375  L 7.4375 7.4375  Z M 9.1875 12.25  L 9.1875 9.1875  L 12.25 9.1875  L 12.25 12.25  L 9.1875 12.25  Z " fill-rule="nonzero" fill="#7c878e" stroke="none" transform="matrix(1 0 0 1 0 183 )" />
  </g>
</svg>