<?xml version="1.0" encoding="utf-8"?>
<svg version="1.1" xmlns:xlink="http://www.w3.org/1999/xlink" width="14px" height="14px" xmlns="http://www.w3.org/2000/svg">
  <g transform="matrix(1 0 0 1 0 -504 )">
    <path d="M 12.25 5.25  L 14 5.25  L 14 3.5  L 12.25 3.5  L 12.25 1.75  L 10.5 1.75  L 10.5 0  L 8.75 0  L 8.75 1.75  L 7.875 1.75  L 7.875 0  L 6.125 0  L 6.125 1.75  L 5.25 1.75  L 5.25 0  L 3.5 0  L 3.5 1.75  L 1.75 1.75  L 1.75 3.5  L 0 3.5  L 0 5.25  L 1.75 5.25  L 1.75 6.125  L 0 6.125  L 0 7.875  L 1.75 7.875  L 1.75 8.75  L 0 8.75  L 0 10.5  L 1.75 10.5  L 1.75 12.25  L 3.5 12.25  L 3.5 14  L 5.25 14  L 5.25 12.25  L 6.125 12.25  L 6.125 14  L 7.875 14  L 7.875 12.25  L 8.75 12.25  L 8.75 14  L 10.5 14  L 10.5 12.25  L 12.25 12.25  L 12.25 10.5  L 14 10.5  L 14 8.75  L 12.25 8.75  L 12.25 7.875  L 14 7.875  L 14 6.125  L 12.25 6.125  L 12.25 5.25  Z M 10.5 3.5  L 10.5 10.5  L 3.5 10.5  L 3.5 3.5  L 10.5 3.5  Z M 8.75 8.75  L 8.75 5.25  L 5.25 5.25  L 5.25 8.75  L 8.75 8.75  Z " fill-rule="nonzero" fill="#7c878e" stroke="none" transform="matrix(1 0 0 1 0 504 )" />
  </g>
</svg>