<?xml version="1.0" encoding="utf-8"?>
<svg version="1.1" xmlns:xlink="http://www.w3.org/1999/xlink" width="12px" height="14px" xmlns="http://www.w3.org/2000/svg">
  <g transform="matrix(1 0 0 1 -281 -152 )">
    <path d="M 6 12.25  C 3.44596875 12.25  2.0023125 11.59025  1.78125 11.291875  L 1.78125 8.922375  C 2.9068125 9.3975  4.45509375 9.625  6 9.625  C 7.54490625 9.625  9.0931875 9.3975  10.21875 8.922375  L 10.21875 11.291875  C 9.9976875 11.59025  8.55403125 12.25  6 12.25  Z M 1.85803125 2.625  C 2.25459375 2.30125  3.667875 1.75  6 1.75  C 8.332125 1.75  9.74540625 2.30125  10.14196875 2.625  C 9.74540625 2.94875  8.332125 3.5  6 3.5  C 3.667875 3.5  2.25459375 2.94875  1.85803125 2.625  Z M 10.21875 4.547375  L 10.21875 6.916875  C 9.9976875 7.21525  8.55403125 7.875  6 7.875  C 3.44596875 7.875  2.0023125 7.21525  1.78125 6.916875  L 1.78125 4.547375  C 2.9068125 5.0225  4.45509375 5.25  6 5.25  C 7.54490625 5.25  9.0931875 5.0225  10.21875 4.547375  Z M 11.90625 2.625  C 11.90625 0.811125  8.939625 0  6 0  C 3.060375 0  0.09375 0.811125  0.09375 2.625  L 0.09375 11.375  C 0.09375 13.188  3.060375 14  6 14  C 8.939625 14  11.90625 13.188  11.90625 11.375  L 11.90625 2.625  Z " fill-rule="nonzero" fill="#7c878e" stroke="none" transform="matrix(1 0 0 1 281 152 )" />
  </g>
</svg>