<?xml version="1.0" encoding="utf-8"?>
<svg version="1.1" xmlns:xlink="http://www.w3.org/1999/xlink" width="36px" height="36px" xmlns="http://www.w3.org/2000/svg">
  <g transform="matrix(1 0 0 1 -1250 -133 )">
    <path d="M 0 0  L 31.5 0  L 31.5 5  L 5 5  L 5 31  L 18 31  L 18 36  L 0 36  L 0 0  Z M 9 14  L 9 9  L 27 9  L 27 14  L 9 14  Z M 31.5 28.125  L 36 28.125  C 35.55 32.175  32.175 35.55  28.125 36  L 28.125 31.5  C 29.7 31.05  31.05 29.925  31.5 28.125  Z M 25.875 35.775  C 21.825 35.325  18.675 32.175  18.225 28.125  L 22.725 28.125  C 23.175 29.7  24.3 30.825  25.875 31.275  L 25.875 35.775  Z M 24.75 27  C 24.75 25.65  25.65 24.75  27 24.75  C 28.35 24.75  29.25 25.65  29.25 27  C 29.25 28.35  28.35 29.25  27 29.25  C 25.65 29.25  24.75 28.35  24.75 27  Z M 28.125 22.725  L 28.125 18.225  C 32.175 18.675  35.55 21.825  36 25.875  L 31.5 25.875  C 31.05 24.3  29.7 22.95  28.125 22.725  Z M 18.225 25.875  C 18.675 21.825  21.825 18.675  25.875 18.225  L 25.875 22.725  C 24.3 23.175  23.175 24.3  22.725 25.875  L 18.225 25.875  Z M 9 20.25  L 9 15.75  L 18 15.75  L 18 20.25  L 9 20.25  Z M 31 0  L 36 0  L 36 18  L 31 18  L 31 0  Z " fill-rule="nonzero" fill="#7e36b5" stroke="none" transform="matrix(1 0 0 1 1250 133 )" />
  </g>
</svg>