<?xml version="1.0" encoding="utf-8"?>
<svg version="1.1" xmlns:xlink="http://www.w3.org/1999/xlink" width="34px" height="27px" xmlns="http://www.w3.org/2000/svg">
  <g transform="matrix(1 0 0 1 -531 -133 )">
    <path d="M 33.75 10.8  C 32.4 6.75  28.8 4.05  24.525 4.05  L 24.075 4.05  C 22.5 1.575  19.575 0  16.425 0  C 11.7 0  7.65 3.375  6.975 7.875  C 2.925 9.225  0 13.05  0 17.55  C 0 22.05  2.925 25.65  6.75 27  L 6.75 22.05  C 5.4 21.15  4.5 19.35  4.5 17.55  C 4.5 14.85  6.525 12.375  9.45 11.925  C 10.35 11.7  11.25 10.8  11.25 9.675  L 11.25 9.45  C 11.25 6.75  13.5 4.5  16.425 4.5  C 18.45 4.5  20.025 5.625  20.925 7.2  C 21.15 8.1  22.05 8.55  22.95 8.55  L 24.525 8.55  C 26.325 8.55  27.675 9.45  28.575 10.8  L 33.75 10.8  Z " fill-rule="nonzero" fill="#27c17e" stroke="none" transform="matrix(1 0 0 1 531 133 )" />
  </g>
</svg>