<?xml version="1.0" encoding="utf-8"?>
<svg version="1.1" xmlns:xlink="http://www.w3.org/1999/xlink" width="14px" height="14px" xmlns="http://www.w3.org/2000/svg">
  <g transform="matrix(1 0 0 1 -280 -351 )">
    <path d="M 7.984375 11.921875  L 7.984375 9.953125  L 2.078125 9.953125  L 2.078125 11.921875  L 7.984375 11.921875  Z M 11.921875 9.953125  L 9.953125 9.953125  L 9.953125 11.921875  L 11.921875 11.921875  L 11.921875 9.953125  Z M 9.953125 2.078125  L 9.953125 4.046875  L 11.921875 4.046875  L 11.921875 2.078125  L 9.953125 2.078125  Z M 2.078125 4.046875  L 7.984375 4.046875  L 7.984375 2.078125  L 2.078125 2.078125  L 2.078125 4.046875  Z M 0.109375 13.890625  L 0.109375 8  L 13.890625 8  L 13.890625 13.890625  L 0.109375 13.890625  Z M 0.109375 6  L 0.109375 0.109375  L 13.890625 0.109375  L 13.890625 6  L 0.109375 6  Z " fill-rule="nonzero" fill="#7c878e" stroke="none" transform="matrix(1 0 0 1 280 351 )" />
  </g>
</svg>