<?xml version="1.0" encoding="utf-8"?>
<svg version="1.1" xmlns:xlink="http://www.w3.org/1999/xlink" width="14px" height="14px" xmlns="http://www.w3.org/2000/svg">
  <g transform="matrix(1 0 0 1 -507 -242 )">
    <path d="M 0 11.375  L 0 0  L 14 0  L 14 11.375  L 0 11.375  Z M 12.25 2  L 1.75 2  L 1.75 9.625  L 12.25 9.625  L 12.25 2  Z M 2.625 14  L 2.625 12.25  L 11.375 12.25  L 11.375 14  L 2.625 14  Z M 3.5 7.875  L 3.5 4.375  L 5.25 4.375  L 5.25 7.875  L 3.5 7.875  Z M 6.125 7.875  L 6.125 5.25  L 7.875 5.25  L 7.875 7.875  L 6.125 7.875  Z M 8.75 7.875  L 8.75 3.5  L 10.5 3.5  L 10.5 7.875  L 8.75 7.875  Z " fill-rule="nonzero" fill="#7c878e" stroke="none" transform="matrix(1 0 0 1 507 242 )" />
  </g>
</svg>