<?xml version="1.0" encoding="utf-8"?>
<svg version="1.1" xmlns:xlink="http://www.w3.org/1999/xlink" width="14px" height="14px" xmlns="http://www.w3.org/2000/svg">
  <g transform="matrix(1 0 0 1 -227 -74 )">
    <path d="M 1.70625 8.640625  L 0.021875 13.234375  L 7.021875 13.234375  L 7.021875 11.484375  L 2.84375 11.484375  L 3.215625 10.2375  L 7.021875 9.734375  L 7.021875 7.984375  L 1.70625 8.640625  Z M 14 9.734375  L 12.3375 7.91875  L 8.00625 7.91875  L 8.00625 14  L 14 14  L 14 9.734375  Z M 12.29375 11.4625  L 12.271875 12.3375  L 9.66875 12.3375  L 9.690625 11.4625  L 12.29375 11.4625  Z M 12.29375 9.734375  L 12.271875 10.609375  L 9.66875 10.609375  L 9.690625 9.734375  L 12.29375 9.734375  Z M 7.04375 7.0875  C 9.0125 7.0875  10.5875 5.490625  10.5875 3.54375  C 10.5875 1.575  9.0125 0  7.04375 0  C 5.096875 0  3.5 1.575  3.5 3.54375  C 3.5 5.490625  5.075 7.0875  7.04375 7.0875  Z M 8.771875 3.54375  C 8.79375 4.50625  8.00625 5.271875  7.04375 5.271875  C 6.08125 5.271875  5.315625 4.484375  5.315625 3.54375  C 5.315625 2.58125  6.103125 1.815625  7.04375 1.815625  C 8.00625 1.815625  8.771875 2.603125  8.771875 3.54375  Z " fill-rule="nonzero" fill="#7c878e" stroke="none" transform="matrix(1 0 0 1 227 74 )" />
  </g>
</svg>