<?xml version="1.0" encoding="utf-8"?>
<svg version="1.1" xmlns:xlink="http://www.w3.org/1999/xlink" width="14px" height="14px" xmlns="http://www.w3.org/2000/svg">
  <g transform="matrix(1 0 0 1 -557 -523 )">
    <path d="M 10.8732027787383 0.0790337228805829  L 8.98054254021941 0.0790337228805829  L 8.98054254021941 4.00052433910665  L 10.8732027787383 4.00052433910665  L 10.8732027787383 3.02039672379216  L 13.7121931285952 3.02039672379216  L 13.7121931285952 1.06014147675479  L 10.8732027787383 1.06014147675479  L 10.8732027787383 0.0790337228805829  Z M 0.463571490648477 1.06014147675479  L 0.463571490648477 3.02039672379216  L 7.08788231754314 3.02039672379216  L 7.08788231754314 1.06014147675479  L 0.463571490648477 1.06014147675479  Z M 5.1952220790243 4.97967183226983  L 3.30256184050545 4.97967183226983  L 3.30256184050545 5.95979944758432  L 0.463571490648477 5.95979944758432  L 0.463571490648477 7.9200546946217  L 3.30256184050545 7.9200546946217  L 3.30256184050545 8.90018230993619  L 5.1952220790243 8.90018230993619  L 5.1952220790243 4.97967183226983  Z M 7.08788231754314 5.95979944758432  L 7.08788231754314 7.92005469462169  L 13.7121931285952 7.92005469462169  L 13.7121931285952 5.95979944758432  L 7.08788231754314 5.95979944758432  Z M 10.8732027787383 9.88129006381039  L 8.98054254021941 9.88129006381039  L 8.98054254021941 13.8008204193254  L 10.8732027787383 13.8008204193254  L 10.8732027787383 12.8216729261623  L 13.7121931285952 12.8216729261623  L 13.7121931285952 10.8614176791249  L 10.8732027787383 10.8614176791249  L 10.8732027787383 9.88129006381039  Z M 0.463571490648477 10.8614176791249  L 0.463571490648477 12.8216729261623  L 7.08788231754314 12.8216729261623  L 7.08788231754314 10.8614176791249  L 0.463571490648477 10.8614176791249  Z " fill-rule="nonzero" fill="#7c878e" stroke="none" transform="matrix(1 0 0 1 557 523 )" />
  </g>
</svg>