<?xml version="1.0" encoding="utf-8"?>
<svg version="1.1" xmlns:xlink="http://www.w3.org/1999/xlink" width="14px" height="14px" xmlns="http://www.w3.org/2000/svg">
  <g transform="matrix(1 0 0 1 -557 -353 )">
    <path d="M 11.375 12.25  L 11.375 11.375  L 6.125 11.375  L 6.125 12.25  L 11.375 12.25  Z M 11.375 9.625  L 11.375 8.75  L 6.125 8.75  L 6.125 9.625  L 11.375 9.625  Z M 4.375 2.625  L 4.375 0  L 3.5 0  L 3.5 2.625  L 4.375 2.625  Z M 11.375 7  L 11.375 6.125  L 6.125 6.125  L 6.125 7  L 11.375 7  Z M 4.375 12.25  L 4.375 10.5  L 2.625 10.5  L 2.625 12.25  L 4.375 12.25  Z M 10.5 2.625  L 10.5 0  L 9.625 0  L 9.625 2.625  L 10.5 2.625  Z M 4.375 7  L 4.375 5.25  L 2.625 5.25  L 2.625 7  L 4.375 7  Z M 14 0.875  L 11.375 0.875  L 11.375 3.5  L 8.75 3.5  L 8.75 0.875  L 5.25 0.875  L 5.25 3.5  L 2.625 3.5  L 2.625 0.875  L 0 0.875  L 0 14  L 14 14  L 14 0.875  Z M 13.125 4.375  L 13.125 13  L 0.875 13  L 0.875 4.375  L 13.125 4.375  Z M 4.375 9.625  L 4.375 7.875  L 2.625 7.875  L 2.625 9.625  L 4.375 9.625  Z " fill-rule="nonzero" fill="#7c878e" stroke="none" transform="matrix(1 0 0 1 557 353 )" />
  </g>
</svg>