<?xml version="1.0" encoding="utf-8"?>
<svg version="1.1" xmlns:xlink="http://www.w3.org/1999/xlink" width="14px" height="14px" xmlns="http://www.w3.org/2000/svg">
  <g transform="matrix(1 0 0 1 -557 -13 )">
    <path d="M 0.875 11.375  L 7 11.375  L 7 12.7575  L 7.643125 13.125  L 0.875 13.125  L 0.875 11.375  Z M 13.125 6.125  L 13.125 7.242375  L 11.375 6.24225  L 11.375 6.125  C 11.375 3.70875421949028  9.41624578050972 1.75  7 1.75  C 4.58375421949028 1.75  2.625 3.70875421949028  2.625 6.125  L 2.625 8.75  L 7 8.75  L 7 10.5  L 0.875 10.5  L 0.875 6.125  C 0.875 2.74225590728639  3.61725590728639 0  7 0  C 10.3827440927136 0  13.125 2.74225590728639  13.125 6.125  Z M 3.5 7  L 3.5 6.125  C 3.5 4.19200337559222  5.06700337559222 2.625  7 2.625  L 7 4.375  C 6.03350168779611 4.375  5.25 5.15850168779611  5.25 6.125  L 5.25 7  L 3.5 7  Z M 7.875 8.75  L 10.9375 7  L 14 8.75  L 14 12.25  L 10.9375 14  L 7.875 12.25  L 7.875 8.75  Z M 10.9375 11.8125  C 11.6623737341529 11.8125  12.25 11.2248737341529  12.25 10.5  C 12.25 9.77512626584708  11.6623737341529 9.1875  10.9375 9.1875  C 10.2126262658471 9.1875  9.625 9.77512626584708  9.625 10.5  C 9.625 11.2248737341529  10.2126262658471 11.8125  10.9375 11.8125  Z " fill-rule="nonzero" fill="#7c878e" stroke="none" transform="matrix(1 0 0 1 557 13 )" />
  </g>
</svg>