<?xml version="1.0" encoding="utf-8"?>
<svg version="1.1" xmlns:xlink="http://www.w3.org/1999/xlink" width="14px" height="14px" xmlns="http://www.w3.org/2000/svg">
  <g transform="matrix(1 0 0 1 0 -731 )">
    <path d="M 14 7  C 14 3.15  10.85 0  7 0  C 3.15 0  0 3.15  0 7  C 0 10.85  3.15 14  7 14  C 10.85 14  14 10.85  14 7  Z M 11.2875 10.01875  C 10.85 9.84375  10.36875 9.66875  9.93125 9.49375  C 10.10625 8.79375  10.19375 8.09375  10.19375 7.4375  L 12.25 7.4375  C 12.1625 8.4  11.8125 9.275  11.2875 10.01875  Z M 9.66875 10.36875  C 10.01875 10.45625  10.36875 10.5875  10.675 10.71875  C 10.2375 11.15625  9.7125 11.50625  9.14375 11.76875  C 9.3625 11.2875  9.5375 10.85  9.66875 10.36875  Z M 4.06875 9.49375  C 3.63125 9.66875  3.15 9.84375  2.7125 10.01875  C 2.1875 9.275  1.8375 8.4  1.75 7.4375  L 3.80625 7.4375  C 3.85 8.1375  3.9375 8.8375  4.06875 9.49375  Z M 3.28125 10.71875  C 3.63125 10.5875  3.98125 10.45625  4.2875 10.36875  C 4.41875 10.85  4.59375 11.33125  4.8125 11.76875  C 4.24375 11.50625  3.71875 11.15625  3.28125 10.71875  Z M 2.75625 3.98125  C 3.15 4.15625  3.63125 4.33125  4.06875 4.4625  C 3.9375 5.1625  3.85 5.8625  3.80625 6.5625  L 1.79375 6.5625  C 1.88125 5.6  2.23125 4.725  2.75625 3.98125  Z M 4.2875 3.675  C 3.9375 3.54375  3.63125 3.4125  3.325 3.28125  C 3.7625 2.84375  4.24375 2.49375  4.8125 2.275  C 4.59375 2.7125  4.4625 3.19375  4.2875 3.675  Z M 4.68125 6.5625  C 4.725 5.95  4.76875 5.3375  4.9 4.68125  C 5.6 4.8125  6.3 4.9  7 4.9  C 7.7 4.9  8.4 4.8125  9.1 4.68125  C 9.23125 5.29375  9.31875 5.90625  9.31875 6.5625  L 4.68125 6.5625  Z M 4.9 9.275  C 4.8125 8.6625  4.725 8.05  4.68125 7.4375  L 9.31875 7.4375  C 9.275 8.05  9.23125 8.6625  9.05625 9.275  C 7.7 8.96875  6.3 8.96875  4.9 9.275  Z M 10.19375 6.51875  L 10.19375 6.5625  C 10.15 5.8625  10.10625 5.1625  9.93125 4.4625  C 10.36875 4.33125  10.85 4.15625  11.2875 3.9375  C 11.8125 4.68125  12.1625 5.55625  12.25 6.51875  L 10.19375 6.51875  Z M 10.675 3.2375  C 10.36875 3.4125  10.0625 3.54375  9.7125 3.63125  C 9.58125 3.15  9.40625 2.7125  9.1875 2.23125  C 9.75625 2.49375  10.2375 2.84375  10.675 3.2375  Z M 7 1.75  C 7.35 1.75  7.7 1.79375  8.05 1.8375  C 8.4 2.49375  8.6625 3.15  8.88125 3.85  C 7.65625 4.1125  6.3875 4.1125  5.1625 3.85  C 5.38125 3.15  5.64375 2.49375  5.99375 1.8375  C 6.3 1.79375  6.65 1.75  7 1.75  Z M 7 12.25  C 6.65 12.25  6.34375 12.20625  5.99375 12.1625  C 5.64375 11.50625  5.3375 10.85  5.1625 10.15  C 6.3875 9.8875  7.6125 9.8875  8.8375 10.15  C 8.61875 10.85  8.35625 11.50625  8.00625 12.1625  C 7.65625 12.20625  7.35 12.25  7 12.25  Z " fill-rule="nonzero" fill="#7c878e" stroke="none" transform="matrix(1 0 0 1 0 731 )" />
  </g>
</svg>