<?xml version="1.0" encoding="utf-8"?>
<svg version="1.1" xmlns:xlink="http://www.w3.org/1999/xlink" width="24px" height="24px" xmlns="http://www.w3.org/2000/svg">
  <g transform="matrix(1 0 0 1 -602 -50 )">
    <path d="M 614 50  C 620.72 50  626 55.28  626 62  C 626 68.72  620.72 74  614 74  C 607.28 74  602 68.72  602 62  C 602 55.28  607.28 50  614 50  Z " fill-rule="nonzero" fill="#ffffff" stroke="none" />
    <path d="M 614 50.5  C 620.44 50.5  625.5 55.56  625.5 62  C 625.5 68.44  620.44 73.5  614 73.5  C 607.56 73.5  602.5 68.44  602.5 62  C 602.5 55.56  607.56 50.5  614 50.5  Z " stroke-width="1" stroke="#bbbbbb" fill="none" />
  </g>
</svg>