<?xml version="1.0" encoding="utf-8"?>
<svg version="1.1" xmlns:xlink="http://www.w3.org/1999/xlink" width="16px" height="16px" xmlns="http://www.w3.org/2000/svg">
  <g transform="matrix(1 0 0 1 -662 -191 )">
    <path d="M 16 8  C 16 3.581722  12.4182779428571 0  8 0  C 3.581722 0  0 3.581722  0 8  C 0 12.4182779428571  3.581722 16  8 16  C 12.4182779428571 16  16 12.4182779428571  16 8  Z M 9.616 8  L 12.0411428571429 10.424  L 10.4251428571429 12.04  L 8 9.616  L 5.576 12.04  L 3.96 10.424  L 6.384 8  L 3.95885714285714 5.576  L 5.57485714285714 3.96  L 8 6.384  L 10.424 3.96  L 12.04 5.576  L 9.616 8  Z " fill-rule="nonzero" fill="#888888" stroke="none" transform="matrix(1 0 0 1 662 191 )" />
  </g>
</svg>