<?xml version="1.0" encoding="utf-8"?>
<svg version="1.1" xmlns:xlink="http://www.w3.org/1999/xlink" width="454px" height="57px" xmlns="http://www.w3.org/2000/svg">
  <g transform="matrix(1 0 0 1 -291 -431 )">
    <path d="M 2.79848488325957 48.0476625851949  C 3.83790868315389 48.2491380035689  4.66558268070005 48.4493380417185  5.28151904542698 48.648269631058  C 6.72027376568065 49.117713524828  8.28299947653896 49.5913578556412  9.96970834753077 50.0692095549119  C 12.6485867378124 50.8281508967779  15.3241550162413 51.5055164241862  17.9964253523462 52.1012922743082  C 21.4768254226312 52.8772433067749  24.8062868263342 53.4811774314841  27.9848095634555 53.9130946484358  C 31.7910365997214 54.4302682608188  35.2976011570781 54.6888585327174  38.5045154050544 54.6888585327174  C 41.6262429509366 54.6888585327174  44.7452932004673 54.4793010853131  47.8616661536465 54.0601792590903  C 50.6583090748088 53.6840322012963  53.5465763788377 53.1252007891945  56.526492404791 52.3836780913706  C 59.036737633513 51.7590675579158  61.800121232272 50.9547462468719  64.8166188620102 49.9707141582389  C 66.0339003263481 49.5736342293715  67.397690748759 49.1133190081855  68.9080144683006 48.5897684946808  C 69.8185386183977 48.2741604090572  71.1856634917191 47.79397282318  73.0093890882648 47.1492126684635  C 74.9355821179008 46.4682705312957  76.3856179914175 45.9593175762283  77.3595088783438 45.6223607346755  C 78.9899823564246 45.0581436136916  80.4706854426952 44.5603779612442  81.8016303066843 44.1290568459191  C 85.1565260257269 43.0418437245715  88.2680676759445 42.1498122974473  91.1362674268658 41.4529764273751  C 94.6094509665305 40.6091460550338  98.0158603012823 39.9755939971801  101.35550760065 39.5523133223997  C 105.123278925685 39.0747388796995  108.924260895008 38.8477835824959  112.758477847676 38.8714404993745  C 118.689334251342 38.906652083829  124.107086809237 39.0037611976494  129.011735521362 39.1627678408358  C 133.661310908359 39.3135053068068  138.254091104118 39.5335777096476  142.790076108637 39.8229850493582  C 146.755723973108 40.0760717783322  151.225993521726 40.4191559900932  156.200896924021 40.8522307532268  C 159.294391162923 41.1215369915755  164.352448955991 41.587168607501  171.375082472752 42.2491186695891  C 179.430495226644 43.0084343078253  185.941193172407 43.6103305967412  190.907176310039 44.0548213991655  C 195.914535845832 44.502590760536  200.442817538576 44.5531415647539  204.492021388272 44.2064807432334  C 208.060127253127 43.9009925224334  211.377942417701 43.2727707221476  214.445479051523 42.3218292052048  C 217.028668436295 41.520834973007  219.637000067714 40.4201749079898  222.270486115308 39.0198420787389  C 223.34302320326 38.4495738331036  224.514948833497 37.7800200095694  225.78626300602 37.0111875395505  C 226.556995777981 36.5454450209968  227.704996114459 35.8314400377959  229.230239676395 34.8691725899478  C 230.632984760721 33.984536981842  231.694569272689 33.3224968113685  232.415005381827 32.8830451471132  C 233.627090457337 32.1443435348943  234.748719424753 31.4914458998334  235.779880114544 30.9243661047589  C 238.392276368605 29.4868393065744  240.972618083622 28.3027458080771  243.520917429122 27.3720856092669  C 246.610359214911 26.2439771437694  249.891665792873 25.3910388930869  253.364849332538 24.8132847200479  C 257.249362948028 24.1671382824788  261.485977542331 23.8440650636943  266.074705284976 23.8440650636943  C 270.514149416965 23.8440650636943  274.878544064409 23.4476089621105  279.167901396837 22.6547036903573  C 282.977779291764 21.9503818928814  286.827402867983 20.9129779144256  290.716784295021 19.5424986864042  C 293.959562144579 18.3996471027699  297.43031177847 16.9487426750583  301.129033196693 15.1897784718553  C 302.605598643147 14.4876262070436  304.234696964466 13.6817106707193  306.016315991119 12.7720318628823  C 307.084800625957 12.2262523038371  308.662373162037 11.4077007993119  310.74904576889 10.3163704178923  C 312.421139035708 9.44167445783913  313.671351245169 8.79129985756982  314.499694566804 8.36524661708433  C 315.878903782293 7.65576784739696  317.115741679526 7.03377738853341  318.210183919445 6.49926137766516  C 320.9507618211 5.16087459768006  323.426859351811 4.06810248209381  325.638464342049 3.22094503090639  C 328.319009957786 2.19404907647285  330.87988042661 1.41855551734751  333.321087918049 0.8944574221161  C 336.09898976475 0.298154784510125  338.833884496423 0  341.525784282596 0  C 346.262980277462 0  350.812351763739 0.300892693143892  355.173910910956 0.902685010845927  C 359.039768638688 1.43606426977509  362.852068269861 2.22066570724163  366.610834143531 3.25648932324553  C 369.708380835548 4.10999594989758  372.96414357241 5.1924610524752  376.378098015062 6.50388463097838  C 377.725666455488 7.0219038759014  379.206698119038 7.61673012226942  380.821193005712 8.28837723291097  C 381.783401144923 8.68864561233921  383.201552852799 9.28920413830248  385.075660298868 10.0900597422151  C 386.690155185542 10.7798740896391  387.897372449504 11.2921263978956  388.697312090754 11.6268235983987  C 390.022172190308 12.1810109629445  391.216806161418 12.666722885989  392.281238343141 13.0839455047039  C 394.904173409205 14.1119643482479  397.31902170111 14.9488633063266  399.5257588798 15.5946423789397  C 402.128419510765 16.3561275498401  404.68604071538 16.9288495161244  407.198646832703 17.3128013463782  C 409.990336755615 17.7391734319198  412.844091275767 17.9523629403977  415.759910393159 17.9523629403977  C 422.500210840123 17.9523629403977  428.872176156761 17.2312879146489  434.875806343072 15.7891378631511  C 437.002224631216 15.27829263199  439.074695397877 14.6769716504578  441.093218643054 13.9851679871403  C 442.229037281132 13.5959898705324  443.558363597781 13.0965398844192  445.081173253944 12.4868041659721  C 445.581742484978 12.2863476654948  445.927770868884 12.1503533176605  446.119234066605 12.0788211224695  C 447.351605746742 11.6178820739998  448.80788458857 11.3068903102751  450.488094931145 11.1458527627098  C 451.359433198278 11.062350015087  452.344349678361 11.0207199410252  453.442856540922 11.0209486776959  L 453.485449891969 11.0209486776959  L 453.485449891969 13.1003729565065  L 453.441639588035 13.1003729565065  C 452.546777621595 13.1001858083214  451.764276915216 13.1322366678721  451.0941374689 13.1965116723301  C 449.917745621567 13.3091679483418  448.927145971501 13.5159805556981  448.122338518703 13.8169425629846  C 447.963319284951 13.8764626172584  447.64934544009 14.0000913220479  447.18041698412 14.1878425401817  C 445.587024060508 14.8259970571059  444.185495929069 15.3523686562155  442.975844759333 15.7669573375105  C 440.808050073029 16.509817798287  438.581026289713 17.1558741274707  436.294773409382 17.7051193936472  C 429.837621390651 19.2562312773546  422.9926629954 20.0317872192083  415.759910393159 20.0317872192083  C 412.522815713584 20.0317872192083  409.353870395684 19.7949407938518  406.253074439459 19.3212479431387  C 403.488972838496 18.8989861862549  400.690382792715 18.2732874207608  397.857316471643 17.4441516466564  C 395.511846663829 16.7578030063637  392.963547318328 15.8754547649645  390.212418435142 14.7971138538732  C 389.116345478355 14.3677335345416  387.890873921087 13.8696005171383  386.536003763339 13.3027009388347  C 385.725513140558 12.9637062614888  384.508560253499 12.4472743104319  382.885145102163 11.7533912228356  C 381.024022543398 10.958129270233  379.618441958846 10.3628316876952  378.668403348506 9.96751233805049  C 377.090417048444 9.31105888747278  375.646307735487 8.73115597601236  374.336051070578 8.22779667225496  C 371.066500257505 6.97181747643912  367.961651848166 5.93868324916915  365.021493673033 5.12838012761652  C 361.496382753678 4.15706718415559  357.927473699917 3.42215705553837  354.314742172693 2.92365667317911  C 350.235516095274 2.36083276646199  345.972530131908 2.07942427881056  341.525784282596 2.07942427881056  C 339.276855347313 2.07942427881056  336.97113122079 2.33303779526855  334.608624072556 2.84026482818455  C 332.431896952062 3.3074698751477  330.120903419538 4.00949737450267  327.675643474985 4.94635425766371  C 325.582484509244 5.748284230787  323.21956359703 6.79214135592137  320.58689290787 8.07793949589534  C 319.515159008824 8.60117116434391  318.301856980427 9.21131583623251  316.946986822678 9.90838737438964  C 316.12837912414 10.329449996606  314.885468632001 10.9759845933738  313.218243176731 11.8480050275215  C 311.119401041008 12.9455251618777  309.530875928944 13.7696495234702  308.45265567101 14.3203711808846  C 306.639395869293 15.2462694980963  304.978255178459 16.0681272872249  303.469233598506 16.7859445482703  C 299.638265910046 18.6079846212639  296.027566694144 20.1162811590706  292.637135950799 21.3108410931046  C 288.498680776366 22.7693492822624  284.384576829203 23.8765941908291  280.294799770253 24.6325827502192  C 275.638738024368 25.4931871450763  270.898706529275 25.9234893425048  266.074705284976 25.9234893425048  C 261.83402606803 25.9234893425048  257.938559876556 26.2187675900959  254.388306710554 26.8093240852781  C 251.251817526151 27.3311209509743  248.28610334039 28.1022199934571  245.49116415327 29.1226142813122  C 243.146497534361 29.9789697192263  240.754783516838 31.0780840788629  238.316009931173 32.4199573602221  C 237.330278092656 32.9624098404212  236.252459429175 33.590028607666  235.082566110259 34.3028067305424  C 234.375918077331 34.7334762929269  233.328535405555 35.3867898128436  231.940393755874 36.262733427464  C 230.398112853519 37.2354881050916  229.232673582169 37.9602853002995  228.444088111356 38.4371180816736  C 227.118424822896 39.2383410505421  225.890920954307 39.9392248665437  224.761588675117 40.5397625982642  C 221.902564748964 42.0602376309304  219.045560964604 43.2630459479371  216.190589491565 44.1481875492841  C 212.746612821189 45.2160897504958  209.028006392792 45.9209660611127  205.0347823759 46.2628234125492  C 200.615624848538 46.6411400030074  195.717389478128 46.5898683317062  190.34007626467 46.1090153300598  C 185.362738956601 45.6634640212534  178.842305387742 45.060659717069  170.778775558093 44.3006093489209  C 163.770745475977 43.6400455696854  158.727692712007 43.1757794423697  155.649617266183 42.9078109669736  C 150.722576620936 42.4788950523976  146.300169829366 42.1394429017103  142.382396891472 41.8894475834975  C 137.913745890194 41.6042406808301  133.387496508771 41.3873567285501  128.803636577675 41.2387957266576  C 123.955868243491 41.081681359565  118.594253722276 40.9856604777838  112.718805183558 40.9507261498997  C 109.165546143925 40.9288228808296  105.642102450024 41.1392606178452  102.148474101857 41.5820393609466  C 99.0283651033148 41.9775458587764  95.8350807276736 42.5721017799882  92.5686209749335 43.3657001931677  C 89.8283716505575 44.0314417388574  86.8411904158685 44.8883447584982  83.6071016099241 45.9364231149185  C 82.3064223642361 46.3579432104762  80.8557293361604 46.8456375179999  79.2550346952259 47.3995060374896  C 78.2917799765325 47.7328169551402  76.8516744385742 48.238324997319  74.9347302508798 48.9160301640262  C 73.102084389672 49.5639302494037  71.7258688782842 50.0473062858417  70.8060958862455 50.366151341926  C 69.2682690314564 50.8992256186276  67.8766103879319 51.3688982490683  66.6310956166142 51.7751692332481  C 63.5002044154925 52.7964923306144  60.6191901506704 53.634500314975  57.9880528221481 54.28919318633  C 54.8067797715021 55.0808092150304  51.7110098307008 55.6790595800442  48.7007551692732 56.0839442813714  C 45.3085355051845 56.5401699681424  41.9097929736212 56.7682828115279  38.5045154050543 56.7682828115279  C 35.0112886513398 56.7682828115279  31.222354515599 56.4907697786921  27.1376886587741 55.9357506444348  C 23.7943905007451 55.4814657536573  20.3037315176223 54.8487870540007  16.6656873703478 54.0377214768792  C 13.8931036077626 53.4195779529314  11.1191325188862 52.7173563739771  8.34378627324746 51.9310567400162  C 6.59311435851185 51.4350932552771  4.97210877389232 50.9437668866798  3.4807938584466 50.4570914970527  C 3.06431607190861 50.3226220603563  2.4448383742804 50.175676077987  1.62236076556198 50.0162535499448  C 1.30864248080719 49.9554442526182  1.02146593851915 49.9040339530317  0.760818969168982 49.8620295825997  C 0.660651577035205 49.8458585931249  0.581294079270127 49.8338395207933  0.522722136816006 49.8259862284337  C 0.514166958019985 49.8248286822518  0.507400699967941 49.8239553240547  0.502411193131001 49.8233522910139  C 0.503336077325166 49.8234909192991  0.506244594725235 49.8238166957695  0.511124575802339 49.8243226890106  C 0.591820721743182 49.8326889060257  0.681108555066657 49.8368685488261  0.778975906243957 49.8368685488261  L 0.778975906243957 47.7574442700156  C 1.1270244319426 47.7574442700156  1.80019409094782 47.8541860188801  2.79848488325957 48.0476625851949  Z " fill-rule="nonzero" fill="#0085fe" stroke="none" transform="matrix(1 0 0 1 291 431 )" />
  </g>
</svg>