<?xml version="1.0" encoding="utf-8"?>
<svg version="1.1" xmlns:xlink="http://www.w3.org/1999/xlink" width="454px" height="97px" xmlns="http://www.w3.org/2000/svg">
  <g transform="matrix(1 0 0 1 -291 -432 )">
    <path d="M 232.547653246517 34.8725730714041  C 232.340771255717 35.00574328649  231.561921407999 35.5033793533896  231.37937847494 35.6155226924092  C 224.820002413696 39.7998710295795  221.144804694779 41.7273346689796  215.802381520593 43.3534130847644  C 208.817071948878 45.4771275674488  200.663487605586 46.1499876015666  190.343727123331 45.2177960959659  C 185.694967094768 44.7972585746422  181.277428114746 44.3837300120073  176.081039287007 43.8931029037964  C 174.937103573172 43.7809595647768  166.454941950375 42.9749293155731  164.191409580446 42.7646605549113  C 155.563213611202 41.9516213470189  150.001738917345 41.4750121561854  144.428094694618 41.0895194283054  C 134.607284896056 40.4096504354988  125.163730492483 40.0802293771286  112.714302457876 40.0031308315526  C 100.410908769715 39.9260322859766  91.9530862046594 41.9726482230851  75.5363917582416 47.83914664555  C 75.3660183540534 47.9022272737485  74.4533036887596 48.22463937343  74.1977435824773 48.3157558363834  C 73.6744538410422 48.5049977209791  73.2606898594424 48.6521858534423  72.8590954067131 48.7923650272169  C 58.3286779352358 53.9649765394978  49.8221772546975 55.9975745592287  38.5045154050544 55.9975745592287  C 31.8112745262332 55.9975745592287  24.4000314440475 54.9742665906745  16.6602110823561 53.2360448358701  C 11.5490089567108 52.0795666522301  7.10713091894765 50.8039361708817  3.48061131551361 49.612413193798  C 3.06684733391375 49.4792429787122  1.54565622509075 49.3180369288715  0.778975906243957 49.1708487964082  C 0.778975906243957 49.5423236069107  0.778975906243957 92.794607675048  0.778975906243957 92.794607675048  C 0.778975906243957 92.794607675048  0.778975906243957 96.9999828882845  8.08069322859437 96.9999828882845  C 61.7604850767405 96.9999828882845  392.698653183402 96.9999828882845  446.183732569619 96.9999828882845  C 453.473280363099 96.9999828882845  453.49761942084 92.794607675048  453.485449891969 92.794607675048  C 453.473280363099 92.794607675048  453.49761942084 11.8411348202456  453.49761942084 11.8411348202456  C 451.84256349444 11.8481437789344  450.686458251735 11.9182333658217  449.408657720324 12.191582754682  C 448.946215623242 12.2967171350129  448.508112583901 12.4158694327213  448.118687660042 12.5630575651846  C 447.972653313595 12.6261381933831  446.00118963656 13.4181505252093  445.124983557878 13.7545805422682  C 443.396910458255 14.4134226590086  441.644498300891 15.0091841475505  439.721712739339 15.5769098013374  C 432.712064109883 17.6375436558233  424.814039872873 18.8500935089731  415.759910393159 18.8500935089731  C 405.683540488315 18.8500935089731  397.943720126624 16.8455313239971  386.991144143098 12.2406454655031  C 386.078429477805 11.8551527376231  385.14137575477 11.4556420923656  383.887914281099 10.9089433146449  C 383.534997943852 10.7547462234929  382.2328583547 10.2010384870834  382.330214585665 10.2360832805271  C 381.697399084394 9.96974285035541  381.222787458442 9.76648304838232  380.760345361359 9.56322324640922  C 366.023045899082 3.24114250917704  356.311761860356 0.696890505168967  341.525784282596 0.696890505168967  C 336.621464147751 0.696890505168967  331.704974484035 1.88140452356391  325.985295914861 4.27846839510871  C 323.600068256226 5.28074948759673  321.105314837757 6.4722724646804  318.002084975758 8.07031504571027  C 316.310520462746 8.93241696442375  310.396129431643 12.0654214982849  309.592940526184 12.4789500609198  C 293.224924195248 21.0228707024786  281.615193652711 24.8077083943915  266.074705284976 24.8077083943915  C 257.994138114908 24.8077083943915  251.556457342369 25.8660611563893  245.873287359806 27.905668134809  C 241.480087437525 29.4826838397727  238.255162286821 31.2419324706433  232.547653246517 34.8725730714041  Z " fill-rule="nonzero" fill="#518cfe" stroke="none" transform="matrix(1 0 0 1 291 432 )" />
  </g>
</svg>