<?xml version="1.0" encoding="utf-8"?>
<svg version="1.1" xmlns:xlink="http://www.w3.org/1999/xlink" width="449px" height="82px" xmlns="http://www.w3.org/2000/svg">
  <g transform="matrix(1 0 0 1 -66 -111 )">
    <path d="M 2.767664565162 69.1211988067716  C 3.79564096637907 69.4110406367131  4.61419961152935 69.6990477091389  5.22335253611611 69.9852299955571  C 6.64626194006743 70.6605703339631  8.19177701534359 71.341953406361  9.85990979744784 72.0293891842592  C 12.5092851217572 73.1211995357156  15.1553867891902 74.0956552067239  17.7982268352499 74.9527362542679  C 21.240296508285 76.0690166869393  24.5330898348548 76.9378341996788  27.6766068149593 77.5591887924866  C 31.4409150512663 78.3031929366165  34.9088610562292 78.6751999944356  38.0804568653512 78.6751999944356  C 41.1678041519175 78.6751999944356  44.2525036277749 78.3737313858891  47.3345552929235 77.7707841972879  C 50.1003981819144 77.2296603597596  52.9568563746655 76.4257274511219  55.9039539421832 75.3589754998665  C 58.3865532983421 74.4604129780543  61.1195031570267 73.3033191621666  64.1027794472304 71.8876940522033  C 65.3066547280403 71.3164562597976  66.6554254321427 70.6542483977405  68.149115630544 69.901070466032  C 69.0496119816312 69.4470377814507  70.4016804136164 68.7562416052765  72.2053209264998 67.8286919090177  C 74.1103003765143 66.8490909397587  75.5443666919526 66.1169130043986  76.507531908318 65.6321680744455  C 78.1200486300323 64.8204873039072  79.5844444135906 64.1044033828425  80.9007312944962 63.4839063397432  C 84.2186788228004 61.9198453581555  87.2959523931698 60.6365720770295  90.1325640411074 59.6341064393818  C 93.5674966607317 58.4201750265399  96.9363904741757 57.5087492591012  100.239257516942 56.8998191655574  C 103.965533563067 56.2127822479888  107.724654497486 55.886285153766  111.516644391204 55.9203179113808  C 117.382182993067 55.9709731732277  122.740268672571 56.110674003636  127.590901429717 56.3394204026059  C 132.189270039324 56.5562707922484  136.731468955394 56.8728661787913  141.217498177925 57.2892065622346  C 145.139471506443 57.653296242513  149.560509011575 58.146855985748  154.480622728822 58.7698758204315  C 157.540047647913 59.1572988299858  162.542399958678 59.8271548388611  169.48769169662 60.7794338755492  C 177.45438845102 61.8717826884504  183.893382674913 62.7376685777681  188.804674368299 63.3771114865188  C 193.75688677264 64.0212709186659  198.235297521631 64.0939931282425  202.239906615274 63.5952880867569  C 205.768716160031 63.1558138042024  209.049991510017 62.2520561265984  212.083744700735 60.8840349969613  C 214.638484863208 59.7317275050276  217.218090375338 58.148321797459  219.822573272629 56.1338079027472  C 220.883298278114 55.3134220055175  222.042317238414 54.3502042242929  223.299630153531 53.2441645305815  C 224.061874679104 52.5741489775744  225.19723184007 51.5469839140222  226.705677565422 50.1626693399249  C 228.092973915339 48.8900356580884  229.142866967923 47.9376269917933  229.855368758679 47.3054333695313  C 231.054104879613 46.2427398221286  232.163381105097 45.3034835751989  233.183185399626 44.4876845717585  C 235.766810769832 42.4196635638439  238.318734624551 40.7162308116196  240.838968999286 39.3773863150857  C 243.894386095804 37.7544934348963  247.139554936123 36.5274594602302  250.574487555748 35.696304334104  C 254.416220184283 34.7667603361976  258.606176027548 34.3019883372444  263.144367121044 34.3019883372444  C 267.534918696513 34.3019883372444  271.851247323611 33.7316479805801  276.093365037841 32.5909772387596  C 279.861283925115 31.5777423722153  283.668510765912 30.0853366488227  287.515057595737 28.1137700400902  C 290.722122032855 26.4696677618795  294.154647551835 24.3824017430664  297.812634152676 21.8519620121427  C 299.272937865139 20.8418482276768  300.884094574989 19.6824609648944  302.646092246724 18.3738002237955  C 303.702809429636 17.5886436651692  305.263007818843 16.4110783428697  307.326699449849 14.8410942853889  C 308.980377592583 13.5827597463651  310.216820945112 12.6471331284338  311.03604154294 12.034214431595  C 312.400061229625 11.0135607629219  313.623277564113 10.1187674712235  314.705666475398 9.34981461348321  C 317.416061801044 7.42441608789062  319.864889535161 5.85235795669636  322.052137642247 4.63364021990042  C 324.703161830498 3.15635130299603  327.235828880061 2.04072898986835  329.65015082644 1.28676330900913  C 332.397459040469 0.428924426839127  335.10223378611 0  337.764487098867 0  C 342.449511331675 0  346.948779607751 0.432863172592967  351.262303962598 1.29859948928712  C 355.085586164694 2.06591701967645  358.855900117109 3.19464189462831  362.573269890849 4.68477411414269  C 365.636702632513 5.91262575248423  368.856608951569 7.46985625092923  372.232964777011 9.35646560947767  C 373.565692155318 10.1016862776125  375.030412897463 10.9574012285279  376.627127003447 11.9236304052403  C 377.578738136719 12.4994550914354  378.981271433715 13.3634164796632  380.834738929938 14.5155245414322  C 382.431453035922 15.5078890412352  383.625374955567 16.2448134145165  384.416504688874 16.7263076327841  C 385.726773818168 17.5235596309026  386.908251027482 18.2223030991421  387.96096038782 18.8225180944862  C 390.555008503817 20.3014223957251  392.943261550217 21.5053823003294  395.125695456013 22.4343978082992  C 397.699692423642 23.5298677032788  400.229145993845 24.3537835144246  402.714080237629 24.9061352702283  C 405.475024676809 25.519512656446  408.297350182422 25.826206335309  411.181056754468 25.826206335309  C 417.847124817654 25.826206335309  424.148914304814 24.7888703333545  430.086425215946 22.7141983294455  C 432.189424800476 21.9792981723365  434.239070999222 21.1142399182025  436.235363812183 20.1190135955352  C 437.358673434423 19.5591433225203  438.673359593401 18.8406363249539  440.179398218108 17.9634726598195  C 440.674454572148 17.6750966415889  441.016672070769 17.4794556499678  441.206026642964 17.3765496849561  C 442.424825947769 16.7134443871576  443.865066476361 16.2660527270625  445.526772299744 16.034384676179  C 446.388514330456 15.914257916441  447.362583712741 15.8543690379661  448.448992482102 15.854698097738  L 448.491116743379 15.854698097738  L 448.491116743379 18.8461505690093  L 448.447788931779 18.8461505690093  C 447.562782273339 18.8458813382869  446.78889941615 18.8919895923774  446.126140360211 18.9844553882644  C 444.962704370228 19.1465223116496  443.983014407939 19.444042202934  443.187070473343 19.8770050906094  C 443.029802552738 19.9626304318454  442.719286569604 20.1404822527707  442.255522523942 20.4105804964018  C 440.679677980546 21.3286273453103  439.293585180952 22.0858636808714  438.097256160662 22.6822895030852  C 435.953335865177 23.7509659554304  433.750838775509 24.6803803237297  431.489764891658 25.4705226364749  C 425.103726881943 27.7019467498785  418.334153491045 28.8176588065803  411.181056754468 28.8176588065803  C 407.979612897355 28.8176588065803  404.845567858286 28.4769323701025  401.778921637262 27.7954794971469  C 399.045261683887 27.1880152153141  396.277493114381 26.2878871667086  393.475627964246 25.0950953513303  C 391.155989321716 24.107716605646  388.635754946981 22.8383735215279  385.914924840041 21.2870760704843  C 384.830923171325 20.6693710496915  383.618947996846 19.9527586386902  382.278999316606 19.137218894464  C 381.477434802005 18.6495423410891  380.273884479782 17.9066051483406  378.668348349937 16.9083873732021  C 376.827722735652 15.7643263185809  375.437622113484 14.9079333051053  374.498046483434 14.3392282757919  C 372.937438887117 13.3948566451363  371.509233861748 12.5606103514564  370.213407336321 11.836479423244  C 366.979864792114 10.0296321590879  363.909210748517 8.54336888476966  361.001433170026 7.37766965727289  C 357.515145058153 5.98034226492558  353.985541170182 4.92310313252888  350.412597435108 4.205962231591  C 346.378296755017 3.39628573420847  342.16225997627 2.99145247127133  337.764487098867 2.99145247127133  C 335.540326103399 2.99145247127133  333.259995414393 3.35629998617581  330.923507067352 4.08599501598479  C 328.770752712502 4.75811455723003  326.4852106506 5.7680488545477  324.066880881648 7.11580787944604  C 321.996774327424 8.26946152499182  319.659876773274 9.77115072255354  317.056200254699 11.6208954151477  C 315.996269592427 12.3736146574772  314.796329921171 13.2513666415976  313.45638124093 14.2541713105254  C 312.646789045681 14.8599105214332  311.417566995085 15.7900129238009  309.768703053639 17.044498460645  C 307.692975919411 18.623387074982  306.121945577304 19.8089694899044  305.055599991814 20.6012357339042  C 303.262310011702 21.9332298042789  301.619463821868 23.1155515360077  300.127061422311 24.1482009290906  C 296.338285007953 26.7693813849762  292.767351201918 28.9392114919963  289.414260004205 30.6577012216593  C 285.321382529931 32.755905985009  281.252588097604 34.3487846254033  277.207852636219 35.4363471143505  C 272.603069103394 36.6744095771273  267.915240598336 37.2934408085157  263.144367121044 37.2934408085157  C 258.950391419703 37.2934408085157  255.097826838268 37.7182270594363  251.586673376737 38.5677995612773  C 248.484727024762 39.3184547014016  245.551674889505 40.4277550783067  242.787516970965 41.8956907204843  C 240.468672671648 43.1276406487115  238.103299116873 44.7088227099431  235.691384271138 46.6392369041792  C 234.716508510138 47.4196071388515  233.650560096255 48.3224972952388  232.493551064992 49.347897401833  C 231.794685499387 49.967457123158  230.758837879062 50.907311660582  229.385984133012 52.1674410710886  C 227.86068870315 53.5668425371493  226.708084666066 54.6095332390274  225.928184057266 55.2955032052146  C 224.617120584759 56.4481397569202  223.403135481242 57.4564287553786  222.286240782219 58.3203602290818  C 219.458703903711 60.5077102760754  216.633164918738 62.2380661005411  213.809635862803 63.5114277024789  C 210.403588450912 65.0477080621167  206.725935837805 66.0617406493201  202.776690058985 66.5535354355971  C 198.406201667387 67.0977803552037  193.56191162044 67.0240211087704  188.243819918143 66.3322676678054  C 183.321299100251 65.6912991182943  176.87267647378 64.8241069613974  168.897952038731 63.7307011686231  C 161.967102904655 62.7804164335825  156.979590369363 62.11252481183  153.935414432855 61.7270263033655  C 149.062636349781 61.1099893736246  144.688934478823 60.6216547007061  140.81430881998 60.2620123131016  C 136.394872036778 59.8517146636503  131.918471216824 59.5397061708967  127.385094324617 59.3259868348408  C 122.590715509532 59.0999626576198  117.288149606392 58.9618273540047  111.477408650699 58.9115709524874  C 107.963282419873 58.8800609864566  104.478643171941 59.1827959765493  101.023490906903 59.8197759227653  C 97.9377443422651 60.3887501828011  94.779628296752 61.2440762448953  91.5491427703637 62.3857441375395  C 88.8390724033046 63.3434775892335  85.8847896403633 64.5762152666114  82.6863185525461 66.0839771126898  C 81.3999639681542 66.6903744431413  79.9652477355419 67.3919697627368  78.3821818902124 68.1887630714763  C 77.4295357036632 68.6682629880964  76.0052903588543 69.3954850838625  74.1094578912886 70.3704293587745  C 72.2969953545434 71.302496148265  70.9359364016512 71.9978792182285  70.0262930681151 72.4565685971567  C 68.5054026324316 73.2234473811836  67.1290706259503 73.8991167793614  65.8972729776647 74.4835767916902  C 62.8008629571721 75.9528486159716  59.9515779243415 77.1584039618939  57.3494178791729 78.1002428294572  C 54.2031808753402 79.2390588707455  51.1415053171469 80.0996997467302  48.1644032400961 80.6821654574115  C 44.8095428234093 81.3384901296084  41.4482313769954 81.6666524657068  38.0804568653511 81.6666524657068  C 34.6257017719198 81.6666524657068  30.8784959856915 81.2674231903992  26.8388154356598 80.4689746112922  C 23.5323377419263 79.8154419614018  20.0801221396749 78.905272604001  16.482144557899 77.7384765105981  C 13.7400958587785 76.8492174059715  10.9966751122906 75.8390039064232  8.25189435393857 74.7078360119532  C 6.52050296689829 73.9943446830302  4.91734986669087 73.2875242931183  3.44245912432274 72.5873947852337  C 3.03056809754838 72.3939475254248  2.41791284152401 72.1825515507883  1.60449335624962 71.9532068613242  C 1.29423011868377 71.865726819556  1.01021631364559 71.7917681429579  0.752439905631879 71.7313408030382  C 0.653375678609707 71.70807727432  0.574892162097548 71.690786679036  0.516965285088957 71.6794889602028  C 0.50850432632373 71.6778237183272  0.50181258653217 71.6765673082892  0.496878030211056 71.6756997870726  C 0.497792728455946 71.6758992172373  0.500669213726059 71.6763678781245  0.505495450518173 71.6770957982258  C 0.585302872384777 71.6891314086686  0.673607359526275 71.6951442281358  0.770396876439508 71.6951442281358  L 0.770396876439508 68.7036917568645  C 1.11461226859521 68.7036917568645  1.78036816483606 68.8428640973363  2.767664565162 69.1211988067716  Z " fill-rule="nonzero" fill="#0085fe" stroke="none" transform="matrix(1 0 0 1 66 111 )" />
  </g>
</svg>