<?xml version="1.0" encoding="utf-8"?>
<svg version="1.1" xmlns:xlink="http://www.w3.org/1999/xlink" width="449px" height="138px" xmlns="http://www.w3.org/2000/svg">
  <g transform="matrix(1 0 0 1 -66 -113 )">
    <path d="M 229.986555743802 49.6125266376677  C 229.781952189024 49.8019852941816  229.011679982801 50.5099623790491  228.831147434468 50.6695065108503  C 222.344011197686 56.6224969286802  218.709289224573 59.3646616940122  213.425703310014 61.6780516051287  C 206.517324460454 64.6994186011127  198.45353730156 65.6566833919195  188.247430569109 64.3304727963226  C 183.649868338218 63.7321823020683  179.280980668548 63.1438633160516  174.141820792656 62.4458577394217  C 173.010483489767 62.2863136076205  164.621737743873 61.1395901602999  162.383134144538 60.8404449131727  C 153.849962359977 59.6837499576145  148.349737387418 59.0056873974597  142.837476911637 58.4572544443933  C 133.124825811298 57.4900181453489  123.785275310848 57.021357258183  111.472955514507 56.9116706675697  C 99.305061756833 56.8019840769565  90.9403870173834 59.7136644823272  74.7044931705957 68.0598168771742  C 74.5359961254845 68.1495604513123  73.6333333838173 68.6082498302406  73.3805878161505 68.737879437329  C 72.8630611775946 69.0071101597434  72.4538540680388 69.2165118327324  72.0566824617052 69.4159419974838  C 57.6862916143631 76.7749150768113  49.2734748620247 79.6666524657069  38.0804568653512 79.6666524657069  C 31.4609300931249 79.6666524657069  24.1313086307871 78.2108122630215  16.4767285814491 75.7378782201039  C 11.4218172281127 74.0925793609047  7.02885855199888 72.2777648616667  3.44227859177447 70.5826084612796  C 3.03307148221867 70.3931498047658  1.52863357943997 70.1638051153017  0.770396876439508 69.9544034423127  C 0.770396876439508 70.4828933789039  0.770396876439508 132.017070712955  0.770396876439508 132.017070712955  C 0.770396876439508 132.017070712955  0.770396876439508 137.999975655497  7.99169880977725 137.999975655497  C 61.0803035230319 137.999975655497  388.373778148343 137.999975655497  441.269814810042 137.999975655497  C 448.479081240157 137.999975655497  448.503152246602 132.017070712955  448.491116743379 132.017070712955  C 448.479081240157 132.017070712955  448.503152246602 16.8461505690093  448.503152246602 16.8461505690093  C 446.866323808378 16.8561220772468  445.722951002267 16.9558371596226  444.459223163933 17.3447259808878  C 444.001874041488 17.4942986044514  443.568595925488 17.6638142444901  443.183459822376 17.8732159174791  C 443.039033783709 17.9629594916172  441.089282261708 19.0897399224628  440.222726029708 19.5683723178662  C 438.513684572151 20.5056940921978  436.78057210815 21.3532722923914  434.878962599038 22.1609644596346  C 427.946512743034 25.0925878814805  420.135471151807 26.8176588065803  411.181056754468 26.8176588065803  C 401.215660086462 26.8176588065803  393.561080037124 23.965807450635  382.729127137117 17.4145265385508  C 381.82646439545 16.8660935854844  380.899730647338 16.2977176159429  379.660073815449 15.5199399734123  C 379.311044222004 15.3005667921858  378.023245377225 14.5128176414177  378.119529403003 14.5626751826055  C 377.493683235447 14.1837578695778  377.02429860978 13.8945841306882  376.566949487336 13.6054103917987  C 361.991955085216 4.6111099615096  352.387623513876 0.991452471271313  337.764487098867 0.991452471271313  C 332.914179300309 0.991452471271313  328.051835998528 2.67663736342082  322.39514948408 6.08689318067012  C 320.036190852523 7.51281885864278  317.568912691966 9.20797525902985  314.499859370298 11.4814791371961  C 312.826924422408 12.7079746504173  306.977669856404 17.1652388326116  306.183326643737 17.7535578186282  C 289.995574809838 29.9088263602273  278.513704735831 35.2934408085157  263.144367121044 35.2934408085157  C 255.152792981484 35.2934408085157  248.786011776924 36.7991385523889  243.165431772143 39.7008474495221  C 238.820615108918 41.9444368029756  235.631206755027 44.4472853706059  229.986555743802 49.6125266376677  Z " fill-rule="nonzero" fill="#518cfe" stroke="none" transform="matrix(1 0 0 1 66 113 )" />
  </g>
</svg>