<?xml version="1.0" encoding="utf-8"?>
<svg version="1.1" xmlns:xlink="http://www.w3.org/1999/xlink" width="506px" height="82px" xmlns="http://www.w3.org/2000/svg">
  <g transform="matrix(1 0 0 1 -66 -150 )">
    <path d="M 3.11901619147432 69.1211988067716  C 4.27749293761205 69.4110406367131  5.19996660007539 69.6990477091389  5.88645074226003 69.9852299955571  C 7.48999675205817 70.6605703339631  9.23171307297073 71.341953406361  11.1116132683933 72.0293891842592  C 14.0973235447865 73.1211995357156  17.0793445775729 74.0956552067239  20.057689930148 74.9527362542679  C 23.9367261318312 76.0690166869393  27.6475355377205 76.9378341996788  31.190118147816 77.5591887924866  C 35.4323007036543 78.3031929366165  39.3404982059064 78.6751999944356  42.9147242179681 78.6751999944356  C 46.3940064607355 78.6751999944356  49.870304756468 78.3737313858891  53.3436191051654 77.7707841972879  C 56.4605823609102 77.2296603597596  59.6796644222288 76.4257274511219  63.0008924159124 75.3589754998665  C 65.7986547192898 74.4604129780543  68.8785492148229 73.3033191621666  72.2405487757206 71.8876940522033  C 73.5972545487492 71.3164562597976  75.1172500415684 70.6542483977405  76.8005623809694 69.901070466032  C 77.8153756407692 69.4470377814507  79.3390875039865 68.7562416052765  81.3716979706211 67.8286919090177  C 83.5185122283212 66.8490909397587  85.134631505853 66.1169130043986  86.2200693666122 65.6321680744455  C 88.0372931109049 64.8204873039072  89.6875921453827 64.1044033828425  91.1709800334411 63.4839063397432  C 94.9101369361626 61.9198453581555  98.3780666168015 60.6365720770295  101.574782638754 59.6341064393818  C 105.445775746838 58.4201750265399  109.242346503191 57.5087492591012  112.964508471209 56.8998191655574  C 117.163830696909 56.2127822479888  121.400167429238 55.886285153766  125.673545794987 55.9203179113808  C 132.283707337398 55.9709731732277  138.321995430559 56.110674003636  143.788410074469 56.3394204026059  C 148.970535946321 56.5562707922484  154.089361450845 56.8728661787913  159.14488658804 57.2892065622346  C 163.564749626415 57.653296242513  168.547032427298 58.146855985748  174.091748554085 58.7698758204315  C 177.539563719029 59.1572988299858  183.176958528042 59.8271548388611  191.003946544521 60.7794338755492  C 199.982005693132 61.8717826884504  207.238422346339 62.7376685777681  212.773196504141 63.3771114865188  C 218.354086207028 64.0212709186659  223.401025714801 64.0939931282425  227.914015027458 63.5952880867569  C 231.890802621327 63.1558138042024  235.588631857614 62.2520561265984  239.007516299715 60.8840349969613  C 241.886577596399 59.7317275050276  244.793660868421 58.148321797459  247.728779679176 56.1338079027472  C 248.924162424778 55.3134220055175  250.230317422355 54.3502042242929  251.647244671908 53.2441645305815  C 252.506255206296 52.5741489775744  253.785744568097 51.5469839140222  255.48568563052 50.1626693399249  C 257.049097552698 48.8900356580884  258.232273242248 47.9376269917933  259.035226262565 47.3054333695313  C 260.386140465667 46.2427398221286  261.636237949174 45.3034835751989  262.78550514969 44.4876845717585  C 265.697118595847 42.4196635638439  268.573006057957 40.7162308116196  271.413181099418 39.3773863150857  C 274.856479653623 37.7544934348963  278.51361870307 36.5274594602302  282.384611811154 35.696304334104  C 286.714047690974 34.7667603361976  291.435913296078 34.3019883372444  296.550222189863 34.3019883372444  C 301.498148909657 34.3019883372444  306.362430168702 33.7316479805801  311.143079530395 32.5909772387596  C 315.389331104918 31.5777423722153  319.679880729514 30.0853366488227  324.014741967579 28.1137700400902  C 327.628939306513 26.4696677618795  331.497219735475 24.3824017430664  335.619583254464 21.8519620121427  C 337.265270734433 20.8418482276768  339.080961815021 19.6824609648944  341.066642932833 18.3738002237955  C 342.257509067696 17.5886436651692  344.015772731257 16.4110783428697  346.341447486912 14.8410942853889  C 348.205058044203 13.5827597463651  349.598466365762 12.6471331284338  350.521686014984 12.034214431595  C 352.058866330045 11.0135607629219  353.437368479825 10.1187674712235  354.657165337531 9.34981461348321  C 357.711642029684 7.42441608789062  360.47134544497 5.85235795669636  362.936262019993 4.63364021990042  C 365.923830481585 3.15635130299603  368.778016510715 2.04072898986835  371.498833670777 1.28676330900913  C 374.594909297277 0.428924426839127  377.643051883679 0  380.643274993378 0  C 385.923057313647 0  390.993502186018 0.432863172592967  395.854623173885 1.29859948928712  C 400.16326636823 2.06591701967645  404.412217058479 3.19464189462831  408.601502371425 4.68477411414269  C 412.053834147108 5.91262575248423  415.682503629162 7.46985625092923  419.487483690796 9.35646560947767  C 420.989399177262 10.1016862776125  422.640064423422 10.9574012285279  424.439479429274 11.9236304052403  C 425.511896430244 12.4994550914354  427.092479611269 13.3634164796632  429.181242535743 14.5155245414322  C 430.980657541595 15.5078890412352  432.326146386452 16.2448134145165  433.217709070312 16.7263076327841  C 434.694315260564 17.5235596309026  436.025779554356 18.2223030991421  437.212129078479 18.8225180944862  C 440.135488425237 20.3014223957251  442.8269272704 21.5053823003294  445.286418487178 22.4343978082992  C 448.187181216844 23.5298677032788  451.037745819344 24.3537835144246  453.838139421471 24.9061352702283  C 456.949582375201 25.519512656446  460.13019864656 25.826206335309  463.379988235547 25.826206335309  C 470.892305473793 25.826206335309  477.994099417006 24.7888703333545  484.685370065186 22.7141983294455  C 487.055342870915 21.9792981723365  489.365189143889 21.1142399182025  491.614908884108 20.1190135955352  C 492.8808212869 19.5591433225203  494.362405243342 18.8406363249539  496.059633626643 17.9634726598195  C 496.617536778411 17.6750966415889  497.003198369285 17.4794556499678  497.216591272472 17.3765496849561  C 498.590115656061 16.7134443871576  500.213192955542 16.2660527270625  502.085850297707 16.034384676179  C 503.056989423632 15.914257916441  504.154715720817 15.8543690379661  505.379042752658 15.854698097738  L 505.426514637305 15.854698097738  L 505.426514637305 18.8461505690093  L 505.377686413097 18.8461505690093  C 504.380329243451 18.8458813382869  503.508202905505 18.8919895923774  502.761307399258 18.9844553882644  C 501.450174635491 19.1465223116496  500.346114232555 19.444042202934  499.449126190449 19.8770050906094  C 499.271893299968 19.9626304318454  498.92195769314 20.1404822527707  498.399319369966 20.4105804964018  C 496.623423292108 21.3286273453103  495.061367709491 22.0858636808714  493.713166185512 22.6822895030852  C 491.297077834698 23.7509659554304  488.814976437433 24.6803803237297  486.266861993717 25.4705226364749  C 479.07012428121 27.7019467498785  471.441161840688 28.8176588065803  463.379988235547 28.8176588065803  C 459.772125002364 28.8176588065803  456.240216784616 28.4769323701025  452.784263582304 27.7954794971469  C 449.70356884643 27.1880152153141  446.584435447387 26.2878871667086  443.426876948571 25.0950953513303  C 440.8127630218 24.107716605646  437.972587980339 22.8383735215279  434.906351824189 21.2870760704843  C 433.684737471471 20.6693710496915  432.318903533194 19.9527586386902  430.80885000936 19.137218894464  C 429.905527861503 18.6495423410891  428.549188300155 17.9066051483406  426.739831325319 16.9083873732021  C 424.665540543964 15.7643263185809  423.098968350608 14.9079333051053  422.040114745251 14.3392282757919  C 420.281389926239 13.3948566451363  418.671876022371 12.5606103514564  417.211545906856 11.836479423244  C 413.567509097571 10.0296321590879  410.10703928452 8.54336888476966  406.830122904306 7.37766965727289  C 402.901254787139 5.98034226492558  398.923572009158 4.92310313252888  394.897047443574 4.205962231591  C 390.350597233939 3.39628573420847  385.599339750541 2.99145247127133  380.643274993378 2.99145247127133  C 378.136759484009 2.99145247127133  375.566943607312 3.35629998617581  372.933840926682 4.08599501598479  C 370.507797043487 4.75811455723003  367.932108216489 5.7680488545477  365.206774445688 7.11580787944604  C 362.873870400171 8.26946152499182  360.24030656409 9.77115072255354  357.306096500841 11.6208954151477  C 356.11160893935 12.3736146574772  354.759338396687 13.2513666415976  353.249284872853 14.2541713105254  C 352.336915940121 14.8599105214332  350.951645655931 15.7900129238009  349.093460456885 17.044498460645  C 346.754222305617 18.623387074982  344.983751586004 19.8089694899044  343.78203473465 20.6012357339042  C 341.761088788243 21.9332298042789  339.909685287004 23.1155515360077  338.227824230934 24.1482009290906  C 333.958067291814 26.7693813849762  329.933807813297 28.9392114919963  326.155045795384 30.6577012216593  C 321.542582539298 32.755905985009  316.957259637835 34.3487846254033  312.399049964203 35.4363471143505  C 307.209694802489 36.6744095771273  301.926752211042 37.2934408085157  296.550222189863 37.2934408085157  C 291.823826410623 37.2934408085157  287.482183474752 37.7182270594363  283.525293382247 38.5677995612773  C 280.029558740601 39.3184547014016  276.724159229598 40.4277550783067  273.609094849239 41.8956907204843  C 270.995876106578 43.1276406487115  268.330221276476 44.7088227099431  265.612116795537 46.6392369041792  C 264.513481750846 47.4196071388515  263.312212491547 48.3224972952388  262.008322581038 49.347897401833  C 261.22073688795 49.967457123158  260.053389681082 50.907311660582  258.50625383364 52.1674410710886  C 256.787324017358 53.5668425371493  255.488398309643 54.6095332390274  254.60949027389 55.2955032052146  C 253.131988899528 56.4481397569202  251.763889874184 57.4564287553786  250.505206761254 58.3203602290818  C 247.318717539594 60.5077102760754  244.134479841607 62.2380661005411  240.952507230686 63.5114277024789  C 237.114066272074 65.0477080621167  232.969540164653 66.0617406493201  228.518942471818 66.5535354355971  C 223.593625932512 67.0977803552037  218.13435919809 67.0240211087704  212.141142268553 66.3322676678054  C 206.593713462644 65.6912991182943  199.326446092946 64.8241069613974  190.339340159461 63.7307011686231  C 182.528628217718 62.7804164335825  176.907957075496 62.11252481183  173.477326732794 61.7270263033655  C 167.985955440956 61.1099893736246  163.05701747502 60.6216547007061  158.690512834989 60.2620123131016  C 153.710033965723 59.8517146636503  148.665359545018 59.5397061708967  143.556476009479 59.3259868348408  C 138.153456676666 59.0999626576198  132.17773652747 58.9618273540047  125.629329125287 58.9115709524874  C 121.669088874066 58.8800609864566  117.742078942098 59.1827959765493  113.848299329383 59.8197759227653  C 110.370821018232 60.3887501828011  106.811786009257 61.2440762448953  103.171194302459 62.3857441375395  C 100.117083821987 63.3434775892335  96.7877584811221 64.5762152666114  93.1832454066555 66.0839771126898  C 91.7335896834878 66.6903744431413  90.1167379825929 67.3919697627368  88.3327038673663 68.1887630714763  C 87.2591204143733 68.6682629880964  85.654068867662 69.3954850838625  83.5175627906282 70.3704293587745  C 81.4750103550089 71.302496148265  79.9411666352683 71.9978792182285  78.9160451948023 72.4565685971567  C 77.2020795813148 73.2234473811836  75.6510239125409 73.8991167793614  74.262851061689 74.4835767916902  C 70.7733555820247 75.9528486159716  67.5623573044917 77.1584039618939  64.6298562290901 78.1002428294572  C 61.084208291586 79.2390588707455  57.6338567716622 80.0996997467302  54.2788152327141 80.6821654574115  C 50.4980593956461 81.3384901296084  46.7100335785293 81.6666524657068  42.9147242179681 81.6666524657068  C 39.0213921973083 81.6666524657068  34.7984832266367 81.2674231903992  30.2459701791623 80.4689746112922  C 26.5197391924604 79.8154419614018  22.6292690482751 78.905272604001  18.5745326198149 77.7384765105981  C 15.484384197198 76.8492174059715  12.3926895474811 75.8390039064232  9.29946223405994 74.7078360119532  C 7.34827283129295 73.9943446830302  5.54160140878748 73.2875242931183  3.87947509333476 72.5873947852337  C 3.41529500525497 72.3939475254248  2.72486391494688 72.1825515507883  1.80818182241049 71.9532068613242  C 1.45853104689084 71.865726819556  1.13846203720416 71.7917681429579  0.847961229954857 71.7313408030382  C 0.736320920660383 71.70807727432  0.647874017864943 71.690786679036  0.582593394777311 71.6794889602028  C 0.573058327661041 71.6778237183272  0.565517079699951 71.6765673082892  0.559956087498429 71.6756997870726  C 0.560986905565052 71.6758992172373  0.564228557116672 71.6763678781245  0.569667478757673 71.6770957982258  C 0.659606355070595 71.6891314086686  0.759120988686626 71.6951442281358  0.868197816210225 71.6951442281358  L 0.868197816210225 68.7036917568645  C 1.2561109307554 68.7036917568645  2.00638372251013 68.8428640973363  3.11901619147432 69.1211988067716  Z " fill-rule="nonzero" fill="#0085fe" stroke="none" transform="matrix(1 0 0 1 66 150 )" />
  </g>
</svg>