<?xml version="1.0" encoding="utf-8"?>
<svg version="1.1" xmlns:xlink="http://www.w3.org/1999/xlink" width="506px" height="138px" xmlns="http://www.w3.org/2000/svg">
  <g transform="matrix(1 0 0 1 -66 -152 )">
    <path d="M 259.183067274752 49.6125266376677  C 258.952489549323 49.8019852941816  258.084432230061 50.5099623790491  257.880981295859 50.6695065108503  C 250.570311060198 56.6224969286802  246.47416558493 59.3646616940122  240.519834910617 61.6780516051287  C 232.734445828485 64.6994186011127  223.64697076746 65.6566833919195  212.145211287237 64.3304727963226  C 206.963994162891 63.7321823020683  202.040481555202 63.1438633160516  196.24891162825 62.4458577394217  C 194.973952440584 62.2863136076205  185.520265697995 61.1395901602999  182.997474113889 60.8404449131727  C 173.381026623939 59.6837499576145  167.182554828583 59.0056873974597  160.970519637614 58.4572544443933  C 150.024859377543 57.4900181453489  139.49966438149 57.021357258183  125.62431066891 56.9116706675697  C 111.911717703692 56.8019840769565  102.48515775233 59.7136644823272  84.1881370697582 68.0598168771742  C 83.9982495311696 68.1495604513123  82.9809948601594 68.6082498302406  82.6961635522765 68.737879437329  C 82.1129375408973 69.0071101597434  81.6517820900393 69.2165118327324  81.2041900347948 69.4159419974838  C 65.0094956723112 76.7749150768113  55.5286821384955 79.6666524657069  42.9147242179681 79.6666524657069  C 35.4548566305595 79.6666524657069  27.1947487019561 78.2108122630215  18.568429091789 75.7378782201039  C 12.8718029341314 74.0925793609047  7.92116353521478 72.2777648616667  3.87927164240063 70.5826084612796  C 3.41811619154264 70.3931498047658  1.72269173985885 70.1638051153017  0.868197816210225 69.9544034423127  C 0.868197816210225 70.4828933789039  0.868197816210225 132.017070712955  0.868197816210225 132.017070712955  C 0.868197816210225 132.017070712955  0.868197816210225 137.999975655497  9.0062351842924 137.999975655497  C 68.8343732353099 137.999975655497  437.677353548021 137.999975655497  497.288477269223 137.999975655497  C 505.412951241692 137.999975655497  505.440078032919 132.017070712955  505.426514637305 132.017070712955  C 505.412951241692 132.017070712955  505.440078032919 16.8461505690093  505.440078032919 16.8461505690093  C 503.595456229487 16.8561220772468  502.306933646207 16.9558371596226  500.882777106793 17.3447259808878  C 500.367368073481 17.4942986044514  499.879085831396 17.6638142444901  499.445057171765 17.8732159174791  C 499.282296424403 17.9629594916172  497.085026335021 19.0897399224628  496.108461850851 19.5683723178662  C 494.182459673738 20.5056940921978  492.229330705399 21.3532722923914  490.08631419847 22.1609644596346  C 482.273798325111 25.0925878814805  473.471154571969 26.8176588065803  463.379988235547 26.8176588065803  C 452.149496667594 26.8176588065803  443.523177057427 23.965807450635  431.316121005303 17.4145265385508  C 430.298866334293 16.8660935854844  429.254484872056 16.2977176159429  427.857455123869 15.5199399734123  C 427.464116651078 15.3005667921858  426.012833320437 14.5128176414177  426.121340485344 14.5626751826055  C 425.416043913444 14.1837578695778  424.887071484519 13.8945841306882  424.371662451207 13.6054103917987  C 407.946390363294 4.6111099615096  397.122800663745 0.991452471271313  380.643274993378 0.991452471271313  C 375.17722656115 0.991452471271313  369.697614733308 2.67663736342082  363.322818794977 6.08689318067012  C 360.664393254737 7.51281885864278  357.883897153975 9.20797525902985  354.42523127254 11.4814791371961  C 352.539919282268 12.7079746504173  345.948109014121 17.1652388326116  345.052924903632 17.7535578186282  C 326.810157803515 29.9088263602273  313.870678388264 35.2934408085157  296.550222189863 35.2934408085157  C 287.544127502518 35.2934408085157  280.369091222993 36.7991385523889  274.034985471502 39.7008474495221  C 269.138599655039 41.9444368029756  265.54429981747 44.4472853706059  259.183067274752 49.6125266376677  Z " fill-rule="nonzero" fill="#518cfe" stroke="none" transform="matrix(1 0 0 1 66 152 )" />
  </g>
</svg>