<?xml version="1.0" encoding="utf-8"?>
<svg version="1.1" xmlns:xlink="http://www.w3.org/1999/xlink" width="15px" height="16px" xmlns="http://www.w3.org/2000/svg">
  <g transform="matrix(1 0 0 1 -9 -8 )">
    <path d="M 12.81675 9.7685  C 13.015875 9.200375  13.1205 8.603  13.128375 8  C 13.128375 7.377875  13.0035 6.790625  12.81675 6.2315  L 14.755125 5.112125  L 13.630125 3.163625  L 11.694 4.281875  C 10.8947048439592 3.36619449062242  9.81828378257563 2.73653754682597  8.628375 2.488625  L 8.628375 0.125  L 6.378375 0.125  L 6.378375 2.488625  C 5.18897057400959 2.73716497728233  4.11284513843577 3.3662540851242  3.31275 4.28075  L 1.376625 3.163625  L 0.251625000000002 5.112125  L 2.19 6.2315  C 1.9913858704586 6.80032498090071  1.88615009059987 7.39754752941303  1.878375 8  C 1.878375 8.622125  2.004375 9.209375  2.19 9.7685  L 0.251625 10.887875  L 1.376625 12.836375  L 3.31275 11.718125  C 4.11310276663895 12.6325263833878  5.18906281300577 13.261913654547  6.378375 13.511375  L 6.378375 15.875  L 8.628375 15.875  L 8.628375 13.511375  C 9.81798495681433 13.2626862942416  10.8941747636526 12.6331646237461  11.694 11.718125  L 13.630125 12.836375  L 14.755125 10.887875  L 12.81675 9.7685  Z M 7.503375 11.375  C 5.63941396932107 11.375  4.128375 9.86396103067893  4.128375 8  C 4.128375 6.13603896932107  5.63941396932107 4.625  7.503375 4.625  C 9.36733603067893 4.625  10.878375 6.13603896932107  10.878375 8  C 10.878375 9.86396103067893  9.36733603067893 11.375  7.503375 11.375  Z " fill-rule="nonzero" fill="#0085fe" stroke="none" transform="matrix(1 0 0 1 9 8 )" />
  </g>
</svg>