<?xml version="1.0" encoding="utf-8"?>
<svg version="1.1" xmlns:xlink="http://www.w3.org/1999/xlink" width="14px" height="14px" xmlns="http://www.w3.org/2000/svg">
  <g transform="matrix(1 0 0 1 -12 -32 )">
    <path d="M 14 1.44999999999999  C 13.9310344827586 0.650000000000006  13.284236453202 0  12.4881773399014 0  L 1.44285714285718 0  C 0.646798029556635 0  0 0.650000000000006  0 1.44999999999999  L 0 12.6  C 0 13.35  0.646798029556635 14  1.44285714285718 14  L 12.5379310344828 14  C 13.3339901477833 14  13.9807881773399 13.35  14 12.55  L 14 1.44999999999999  Z M 11.4931034482759 4.80000000000001  L 5.9206896551724 10.5  L 2.38817733990152 6.95000000000002  L 3.78128078817736 5.54999999999998  L 5.87093596059117 7.65000000000001  L 10.1 3.40000000000001  L 11.4931034482759 4.80000000000001  Z " fill-rule="nonzero" fill="#ffffff" stroke="none" fill-opacity="0" transform="matrix(1 0 0 1 12 32 )" />
  </g>
</svg>