<?xml version="1.0" encoding="utf-8"?>
<svg version="1.1" xmlns:xlink="http://www.w3.org/1999/xlink" width="16px" height="15px" xmlns="http://www.w3.org/2000/svg">
  <g transform="matrix(1 0 0 1 -20 -111 )">
    <path d="M 0 8  L 16 8  L 16 15  L 0 15  L 0 8  Z M 14 13  L 14 10  L 2 10  L 2 13  L 14 13  Z M 10 11  L 12 11  L 12 12  L 10 12  L 10 11  Z M 0 0  L 16 0  L 16 7  L 0 7  L 0 0  Z M 14 5  L 14 2  L 2 2  L 2 5  L 14 5  Z M 10 3  L 12 3  L 12 4  L 10 4  L 10 3  Z " fill-rule="nonzero" fill="#0085fe" stroke="none" transform="matrix(1 0 0 1 20 111 )" />
  </g>
</svg>