<?xml version="1.0" encoding="utf-8"?>
<svg version="1.1" xmlns:xlink="http://www.w3.org/1999/xlink" width="36px" height="36px" xmlns="http://www.w3.org/2000/svg">
  <g transform="matrix(1 0 0 1 -40 -63 )">
    <path d="M 15.75 22.5  L 15.75 27  L 20.25 27  L 20.25 22.5  L 15.75 22.5  Z M 16 9  L 16 20.25  L 20 20.25  L 20 9  L 16 9  Z M 31.5 18  C 31.5 25.44525  25.44525 31.5  18 31.5  C 10.55475 31.5  4.5 25.44525  4.5 18  C 4.5 10.55475  10.55475 4.5  18 4.5  C 25.44525 4.5  31.5 10.55475  31.5 18  Z M 18 0  C 8.05887450304572 0  0 8.05887450304572  0 18  C 0 27.9411254969543  8.05887450304572 36  18 36  C 27.9411254969543 36  36 27.9411254969543  36 18  C 36 8.05887450304572  27.9411254969543 0  18 0  Z " fill-rule="nonzero" fill="#f39c12" stroke="none" transform="matrix(1 0 0 1 40 63 )" />
  </g>
</svg>