<?xml version="1.0" encoding="utf-8"?>
<svg version="1.1" xmlns:xlink="http://www.w3.org/1999/xlink" width="15px" height="16px" xmlns="http://www.w3.org/2000/svg">
  <g transform="matrix(1 0 0 1 -20 -72 )">
    <path d="M 0.9375 12.21875  C 0.9375 10.03625  5.31 8.9375  7.5 8.9375  L 7.5 10.8125  C 5.499375 10.8125  3.166875 11.714375  2.8125 12.2815625  L 2.8125 12.6875  L 7.5 12.6875  L 7.5 14.5625  L 0.9375 14.5625  L 0.9375 12.21875  Z M 7.5 8  L 7.5 8.9375  L 7.5 8  C 5.428125 8  3.75 6.321875  3.75 4.25  C 3.75 2.178125  5.428125 0.5  7.5 0.5  C 9.571875 0.5  11.25 2.178125  11.25 4.25  C 11.25 6.321875  9.571875 8  7.5 8  Z M 7.5 6.125  C 8.53553390593274 6.125  9.375 5.28553390593274  9.375 4.25  C 9.375 3.21446609406726  8.53553390593274 2.375  7.5 2.375  C 6.46446609406726 2.375  5.625 3.21446609406726  5.625 4.25  C 5.625 5.28553390593274  6.46446609406726 6.125  7.5 6.125  Z M 8.4375 15.5  L 8.4375 8.9375  L 13.125 8.9375  L 15 10.8125  L 15 15.5  L 8.4375 15.5  Z M 10.3125 10.8125  L 10.3125 11.7509375  L 13.1259375 11.7509375  L 13.1259375 10.8125  L 10.3125 10.8125  Z M 10.3125 12.6884375  L 10.3125 13.6259375  L 13.1259375 13.6259375  L 13.1259375 12.6884375  L 10.3125 12.6884375  Z " fill-rule="nonzero" fill="#888888" stroke="none" transform="matrix(1 0 0 1 20 72 )" />
  </g>
</svg>