<?xml version="1.0" encoding="utf-8"?>
<svg version="1.1" xmlns:xlink="http://www.w3.org/1999/xlink" width="16px" height="13px" xmlns="http://www.w3.org/2000/svg">
  <g transform="matrix(1 0 0 1 -20 -112 )">
    <path d="M 0 0  L 16 0  L 16 13  L 0 13  L 0 0  Z M 14 2  L 2 2  L 2 11  L 14 11  L 14 2  Z M 9.5 7  L 13 7  L 13 9  L 9.5 9  L 9.5 7  Z M 2.5 8.7  C 2.5 7.6  4.5 7  5.5 7  C 6.5 7  8.5 7.6  8.5 8.7  L 8.5 9  L 2.5 9  L 2.5 8.7  Z M 4 5  C 4 4.2  4.7 3.5  5.5 3.5  C 6.3 3.5  7 4.2  7 5  C 7 5.8  6.3 6.5  5.5 6.5  C 4.7 6.5  4 5.8  4 5  Z M 9.5 4  L 13 4  L 13 6  L 9.5 6  L 9.5 4  Z " fill-rule="nonzero" fill="#999999" stroke="none" transform="matrix(1 0 0 1 20 112 )" />
  </g>
</svg>