<?xml version="1.0" encoding="utf-8"?>
<svg version="1.1" xmlns:xlink="http://www.w3.org/1999/xlink" width="15px" height="16px" xmlns="http://www.w3.org/2000/svg">
  <g transform="matrix(1 0 0 1 -21 -148 )">
    <path d="M 5 4  C 5 5.1  5.9 6  7 6  C 8.1 6  9 5.1  9 4  C 9 2.9  8.1 2  7 2  C 5.9 2  5 2.9  5 4  Z M 11 4  C 11 6.2  9.2 8  7 8  C 4.8 8  3 6.2  3 4  C 3 1.8  4.8 0  7 0  C 9.2 0  11 1.8  11 4  Z M 0 12.5  C 0 10.2  4.7 9  7 9  C 7.8 9  8.9 9.1  10 9.4  L 10 11.5  L 9.7 11.4  C 8.8 11.2  7.9 11  7 11  C 4.9 11  2.4 12  2 12.6  L 2 13  L 9 13  L 9 15  L 0 15  L 0 12.5  Z M 11 9  L 13 9  L 14 10  L 14 11  L 13 11  L 13 12  L 14 12  L 15 13  L 15 16  L 10 16  L 10 13  L 11 12  L 11 9  Z M 13 15  L 13 14  L 12 14  L 12 15  L 13 15  Z " fill-rule="nonzero" fill="#999999" stroke="none" transform="matrix(1 0 0 1 21 148 )" />
  </g>
</svg>