<?xml version="1.0" encoding="utf-8"?>
<svg version="1.1" xmlns:xlink="http://www.w3.org/1999/xlink" width="15px" height="16px" xmlns="http://www.w3.org/2000/svg">
  <g transform="matrix(1 0 0 1 -175 -7 )">
    <path d="M 9.19921875 9.8125  C 9.98948317307693 8.9695512820513  10.3846153846154 7.95512820512822  10.3846153846154 6.76923076923076  C 10.3846153846154 5.58333333333335  9.98948317307693 4.56891025641027  9.19921875 3.72596153846151  C 8.40895432692307 2.88301282051281  7.45793269230767 2.46153846153849  6.3461538461538 2.46153846153849  C 5.23437500000004 2.46153846153849  4.28335336538463 2.88301282051281  3.4930889423077 3.72596153846151  C 2.70282451923077 4.56891025641027  2.3076923076923 5.58333333333335  2.3076923076923 6.76923076923076  C 2.3076923076923 7.95512820512822  2.70282451923077 8.9695512820513  3.4930889423077 9.8125  C 4.28335336538463 10.6554487179487  5.23437500000004 11.0769230769231  6.3461538461538 11.0769230769231  C 7.45793269230767 11.0769230769231  8.40895432692307 10.6554487179487  9.19921875 9.8125  Z M 14.6664663461538 13.9038461538462  C 14.8888221153846 14.1410256410256  15 14.4294871794872  15 14.7692307692308  C 15 15.1025641025641  14.8858173076923 15.3910256410256  14.6574519230769 15.6346153846154  C 14.4290865384615 15.8782051282051  14.1586538461538 16  13.8461538461538 16  C 13.5216346153846 16  13.2512019230769 15.8782051282051  13.0348557692308 15.6346153846154  L 9.9429086538462 12.3461538461538  C 8.86718750000004 13.1410256410256  7.66826923076923 13.5384615384615  6.3461538461538 13.5384615384615  C 5.48677884615383 13.5384615384615  4.6649639423077 13.3605769230769  3.8807091346154 13.0048076923077  C 3.0964543269231 12.6490384615385  2.4203725961538 12.1682692307692  1.8524639423077 11.5625  C 1.2845552884615 10.9567307692308  0.833834134615401 10.2355769230769  0.500300480769198 9.39903846153849  C 0.166766826923102 8.5625  0 7.68589743589746  0 6.76923076923076  C 0 5.85256410256411  0.166766826923102 4.97596153846151  0.500300480769198 4.13942307692308  C 0.833834134615401 3.3028846153846  1.2845552884615 2.58173076923076  1.8524639423077 1.97596153846151  C 2.4203725961538 1.37019230769232  3.0964543269231 0.889423076923081  3.8807091346154 0.533653846153838  C 4.6649639423077 0.177884615384595  5.48677884615383 0  6.3461538461538 0  C 7.20552884615387 0  8.02734375 0.177884615384595  8.8115985576923 0.533653846153838  C 9.5958533653846 0.889423076923081  10.2719350961538 1.37019230769232  10.83984375 1.97596153846151  C 11.4077524038462 2.58173076923076  11.8584735576923 3.3028846153846  12.1920072115385 4.13942307692308  C 12.5255408653846 4.97596153846151  12.6923076923077 5.85256410256411  12.6923076923077 6.76923076923076  C 12.6923076923077 8.17948717948719  12.3197115384615 9.45833333333335  11.5745192307692 10.6057692307692  L 14.6664663461538 13.9038461538462  Z " fill-rule="nonzero" fill="#888888" stroke="none" transform="matrix(1 0 0 1 175 7 )" />
  </g>
</svg>