<?xml version="1.0" encoding="utf-8"?>
<svg version="1.1" xmlns:xlink="http://www.w3.org/1999/xlink" width="5px" height="8px" xmlns="http://www.w3.org/2000/svg">
  <g transform="matrix(1 0 0 1 -339 -8 )">
    <path d="M 4.99953193196563 4  C 5.00429679442163 3.90828649340529  4.97284870221199 3.81568256441648  4.89756387540706 3.74622961767489  L 0.61395252745659 0.0981690689520747  C 0.472912598758729 -0.0327230229840438  0.245152173361697 -0.0327230229840438  0.105065217155013 0.0981690689520747  C -0.035021739051671 0.229061160888136  -0.035021739051671 0.440981690689512  0.105065217155013 0.571873782625573  L 4.13042101998987 4  L 0.105065217155013 7.42812621737443  C -0.035021739051671 7.55901830931049  -0.035021739051671 7.77093883911186  0.105065217155013 7.90183093104793  C 0.246105145852874 8.03272302298404  0.473865571249906 8.03272302298404  0.614905499947767 7.90183093104793  L 4.89756387540706 4.25287995993102  C 4.97284870221199 4.18342701318937  5.00429679442163 4.09082308420057  4.99953193196563 4  Z " fill-rule="nonzero" fill="#5888f5" stroke="none" transform="matrix(1 0 0 1 339 8 )" />
  </g>
</svg>