<?xml version="1.0" encoding="utf-8"?>
<svg version="1.1" xmlns:xlink="http://www.w3.org/1999/xlink" width="12px" height="16px" xmlns="http://www.w3.org/2000/svg">
  <g transform="matrix(1 0 0 1 -10 -8 )">
    <path d="M 11.975723625 8.0323685  C 11.9761860022684 6.69109916464443  11.5234417554674 5.38902074771874  10.690943046875 4.337379390625  L 9.26672890625 5.76159353125  C 9.73284324378523 6.42713331323082  9.98317113144316 7.21983827808705  9.98381575 8.0323685  C 9.98381575 10.229442890625  8.197074390625 12.01618425  6 12.01618425  L 6 9.959539375  L 3.0121381875 12.98026765625  L 6 16  L 6 14.008092125  C 9.30030102729109 14.008092125  11.975723625 11.3326695272911  11.975723625 8.0323685  Z M 2.01618425 8.0323685  C 2.01618425 5.835294109375  3.802925609375 4.04855275  6 4.04855275  L 6 6.040460625  L 8.9878618125 3.020728296875  L 6 0  L 6 2.056644875  C 2.69969897270891 2.056644875  0.0242763750000004 4.73206747270891  0.0242763750000004 8.0323685  C 0.0242763750000004 9.428695921875  0.50731403125 10.7094926875  1.309056953125 11.727357609375  L 2.73327109375 10.303143484375  C 2.26698162265412 9.63769013515149  2.01663585507937 8.84492854510468  2.01618425 8.0323685  Z " fill-rule="nonzero" fill="#0085fe" stroke="none" transform="matrix(1 0 0 1 10 8 )" />
  </g>
</svg>