<?xml version="1.0" encoding="utf-8"?>
<svg version="1.1" xmlns:xlink="http://www.w3.org/1999/xlink" width="16px" height="16px" xmlns="http://www.w3.org/2000/svg">
  <g transform="matrix(1 0 0 1 -20 -110 )">
    <path d="M 14.8693126815102 0.554014659106624  L 0.991287512100678 0.554014659106624  L 0.991287512100678 10.4668897801134  L 14.8693126815102 10.4668897801134  L 14.8693126815102 0.554014659106624  Z M 12.8867376573088 2.53658968330798  L 12.8867376573088 8.48431475591205  L 2.97386253630203 8.48431475591205  L 2.97386253630203 2.53658968330798  L 12.8867376573088 2.53658968330798  Z M 9.91287512100678 12.3106845526207  L 9.91287512100678 11.31939704052  L 5.94772507260407 11.31939704052  L 5.94772507260407 12.3106845526207  L 0.991287512100678 12.3106845526207  L 0.991287512100678 14.293259576822  L 5.94772507260407 14.293259576822  L 5.94772507260407 15.2845470889227  L 9.91287512100678 15.2845470889227  L 9.91287512100678 14.293259576822  L 14.8693126815102 14.293259576822  L 14.8693126815102 12.3106845526207  L 9.91287512100678 12.3106845526207  Z " fill-rule="nonzero" fill="#888888" stroke="none" transform="matrix(1 0 0 1 20 110 )" />
  </g>
</svg>