<?xml version="1.0" encoding="utf-8"?>
<svg version="1.1" xmlns:xlink="http://www.w3.org/1999/xlink" width="14px" height="16px" xmlns="http://www.w3.org/2000/svg">
  <g transform="matrix(1 0 0 1 -21 -72 )">
    <path d="M 3.4 10.2  C 3 10.1  2.6 10  2 9.8  L 2 13  C 2.1 13.1  2.2 13.1  2.2 13.2  C 2.4 13.3  3.1 13.6  4.3 13.8  C 4.6 13.9  5.5 14  7 14  L 7 16  C 5.5 16  4.6 15.9  4.1 15.8  C 2.9 15.6  1.9 15.3  1.2 15  C 1.2 15  1 14.9  0.7 14.7  C 0.2 14.3  0 13.7  0 13.1  L 0 3.1  C 0 0.9  2.2 0.2  5.8 0.1  L 6.7 0.1  C 6.8 0  6.9 0  7 0  C 11.4 0  14 0.5  14 3  L 14 7  L 12 7  L 12.1 5.5  C 10.9 5.9  9.1 6  7 6  C 4.9 6  3.2 5.9  2 5.5  L 2 7.8  C 2.7 8  3.3 8.1  3.7 8.2  C 4.2 8.3  5.1 8.4  6 8.4  L 6 10.4  C 5 10.4  4.1 10.3  3.4 10.2  Z M 7 2  C 4.5 2  2.4 2.4  2.1 2.8  C 2 2.9  2 2.9  2 3  C 2 3.6  4.2 4  7 4  C 9.8 4  12 3.6  12 3  C 12 2.4  9.8 2  7 2  Z M 8 13  L 8 8  L 14 8  L 14 13  L 8 13  Z M 8 16  L 8 14  L 14 14  L 14 16  L 8 16  Z M 12 10  L 10 10  L 10 11  L 12 11  L 12 10  Z " fill-rule="nonzero" fill="#888888" stroke="none" transform="matrix(1 0 0 1 21 72 )" />
  </g>
</svg>