<?xml version="1.0" encoding="utf-8"?>
<svg version="1.1" xmlns:xlink="http://www.w3.org/1999/xlink" width="15px" height="12px" xmlns="http://www.w3.org/2000/svg">
  <g transform="matrix(1 0 0 1 -20 -186 )">
    <path d="M 15 4.8  C 14.4 3  12.8 1.8  10.9 1.8  L 10.7 1.8  C 10 0.7  8.7 0  7.3 0  C 5.2 0  3.4 1.5  3.1 3.5  C 1.3 4.1  0 5.8  0 7.8  C 0 9.8  1.3 11.4  3 12  L 3 9.8  C 2.4 9.4  2 8.6  2 7.8  C 2 6.6  2.9 5.5  4.2 5.3  C 4.6 5.2  5 4.8  5 4.3  L 5 4.2  C 5 3  6 2  7.3 2  C 8.2 2  8.9 2.5  9.3 3.2  C 9.4 3.6  9.8 3.8  10.2 3.8  L 10.9 3.8  C 11.7 3.8  12.3 4.2  12.7 4.8  L 15 4.8  Z " fill-rule="nonzero" fill="#888888" stroke="none" transform="matrix(1 0 0 1 20 186 )" />
  </g>
</svg>