<?xml version="1.0" encoding="utf-8"?>
<svg version="1.1" xmlns:xlink="http://www.w3.org/1999/xlink" width="450px" height="138px" xmlns="http://www.w3.org/2000/svg">
  <g transform="matrix(1 0 0 1 -286 -525 )">
    <path d="M 230.498775244345 49.6125266376677  C 230.293716002362 49.8019852941816  229.521728267841 50.5099623790491  229.340793642562 50.6695065108503  C 222.839209440888 56.6224969286802  219.196392318614 59.3646616940122  213.90103895213 61.6780516051287  C 206.977273958139 64.6994186011127  198.895527362365 65.6566833919195  188.666689879954 64.3304727963226  C 184.058888089528 63.7321823020683  179.680270157788 63.1438633160516  174.529664491527 62.4458577394217  C 173.395807506448 62.2863136076205  164.988378585173 61.1395901602999  162.74478923172 60.8404449131727  C 154.192612610222 59.6837499576145  148.680137693404 59.0056873974597  143.155600468233 58.4572544443933  C 133.42131762825 57.4900181453489  124.060966347175 57.021357258183  111.721224903181 56.9116706675697  C 99.5262311594094 56.8019840769565  91.1429268548386 59.7136644823272  74.8708728881249 68.0598168771742  C 74.7020005711983 68.1495604513123  73.7973274448058 68.6082498302406  73.5440189694158 68.737879437329  C 73.0253397102841 69.0071101597434  72.6152212263195 69.2165118327324  72.2171650507068 69.4159419974838  C 57.8147688785377 76.7749150768113  49.3832153405592 79.6666524657069  38.1652685732918 79.6666524657069  C 31.5309989797466 79.6666524657069  24.1850531934392 78.2108122630215  16.5134250816305 75.7378782201039  C 11.4472555738323 74.0925793609047  7.04451302538864 72.2777648616667  3.4499451365223 70.5826084612796  C 3.03982665255768 70.3931498047658  1.53203810857013 70.1638051153017  0.772112682400398 69.9544034423127  C 0.772112682400398 70.4828933789039  0.772112682400398 132.017070712955  0.772112682400398 132.017070712955  C 0.772112682400398 132.017070712955  0.772112682400398 137.999975655497  8.00949769354067 137.999975655497  C 61.2163398337736 137.999975655497  389.238753155355 137.999975655497  442.252598361957 137.999975655497  C 449.477921064746 137.999975655497  449.502045681449 132.017070712955  449.489983373097 132.017070712955  C 449.477921064746 132.017070712955  449.502045681449 16.8461505690093  449.502045681449 16.8461505690093  C 447.861571745591 16.8561220772468  446.71565245216 16.9558371596226  445.449110075211 17.3447259808878  C 444.990742357839 17.4942986044514  444.55649925717 17.6638142444901  444.170505389909 17.8732159174791  C 444.025757689687 17.9629594916172  442.071663736679 19.0897399224628  441.203177535342 19.5683723178662  C 439.490329749372 20.5056940921978  437.753357346698 21.3532722923914  435.847512627098 22.1609644596346  C 428.899623016403 25.0925878814805  421.07118489602 26.8176588065803  412.096827482206 26.8176588065803  C 402.109236166832 26.8176588065803  394.437608055024 23.965807450635  383.581530538313 17.4145265385508  C 382.676857411921 16.8660935854844  381.748059668824 16.2977176159429  380.505641908579 15.5199399734123  C 380.155834966374 15.3005667921858  378.86516797272 14.5128176414177  378.961666439535 14.5626751826055  C 378.334426405237 14.1837578695778  377.863996379513 13.8945841306882  377.40562866214 13.6054103917987  C 362.798173247989 4.6111099615096  353.172451183172 0.991452471271313  338.516746535613 0.991452471271313  C 333.655636269797 0.991452471271313  328.78246369563 2.67663736342082  323.113178770236 6.08689318067012  C 320.748966333264 7.51281885864278  318.276193121124 9.20797525902985  315.20030449139 11.4814791371961  C 313.523643630475 12.7079746504173  307.661361771452 17.1652388326116  306.865249420226 17.7535578186282  C 290.64144468692 29.9088263602273  279.134002519207 35.2934408085157  263.73043475383 35.2934408085157  C 255.721062008169 35.2934408085157  249.340100890013 36.7991385523889  243.707002889676 39.7008474495221  C 239.35250957464 41.9444368029756  236.155997861386 44.4472853706059  230.498775244345 49.6125266376677  Z " fill-rule="nonzero" fill="#518cfe" stroke="none" transform="matrix(1 0 0 1 286 525 )" />
  </g>
</svg>