<?xml version="1.0" encoding="utf-8"?>
<svg version="1.1" xmlns:xlink="http://www.w3.org/1999/xlink" width="450px" height="82px" xmlns="http://www.w3.org/2000/svg">
  <g transform="matrix(1 0 0 1 -286 -523 )">
    <path d="M 2.77382862878151 69.1211988067716  C 3.80409450973403 69.4110406367131  4.62447622536349 69.6990477091389  5.23498583797829 69.9852299955571  C 6.66106430519007 70.6605703339631  8.21002150758267 71.341953406361  9.88186950746442 72.0293891842592  C 12.5371454449683 73.1211995357156  15.1891404346004 74.0956552067239  17.8378665386692 74.9527362542679  C 21.2876022911542 76.0690166869393  24.5877292331507 76.9378341996788  27.7382473646585 77.5591887924866  C 31.5109393609574 78.3031929366165  34.986609076399 78.6751999944356  38.1652685732918 78.6751999944356  C 41.2594919117213 78.6751999944356  44.3510615423134 78.3737313858891  47.4399774650681 77.7707841972879  C 50.2119803604933 77.2296603597596  53.0748003754999 76.4257274511219  56.0284616347047 75.3589754998665  C 58.5165901653763 74.4604129780543  61.2556267720757 73.3033191621666  64.2455473301863 71.8876940522033  C 65.4521038477019 71.3164562597976  66.803878495466 70.6542483977405  68.3008953980953 69.901070466032  C 69.2033973089845 69.4470377814507  70.558477029237 68.7562416052765  72.3661345588528 67.8286919090177  C 74.2753567247916 66.8490909397587  75.7126169518456 66.1169130043986  76.6779273023231 65.6321680744455  C 78.2940353753107 64.8204873039072  79.7616926194115 64.1044033828425  81.0809110969338 63.4839063397432  C 84.4062482633857 61.9198453581555  87.4903754497247 60.6365720770295  90.3333047182591 59.6341064393818  C 93.7758875218915 58.4201750265399  97.152284439597 57.5087492591012  100.462507533684 56.8998191655574  C 104.197082635591 56.2127822479888  107.96457577699 55.886285153766  111.765011082498 55.9203179113808  C 117.643613244722 55.9709731732277  123.013632299905 56.110674003636  127.875068248046 56.3394204026059  C 132.483678213131 56.5562707922484  137.035993385139 56.8728661787913  141.532013764068 57.2892065622346  C 145.462721999776 57.653296242513  149.893605913605 58.146855985748  154.824677567862 58.7698758204315  C 157.890916350915 59.1572988299858  162.90440975814 59.8271548388611  169.865169851847 60.7794338755492  C 177.849609806145 61.8717826884504  184.302944774412 62.7376685777681  189.225174756647 63.3771114865188  C 194.188416587278 64.0212709186659  198.67680152502 64.0939931282425  202.690329569873 63.5952880867569  C 206.226998378651 63.1558138042024  209.515581691554 62.2520561265984  212.556091570893 60.8840349969613  C 215.116521577826 59.7317275050276  217.701872313813 58.148321797459  220.312155841165 56.1338079027472  C 221.375243263143 55.3134220055175  222.536843557431 54.3502042242929  223.796956724029 53.2441645305815  C 224.56089889888 52.5741489775744  225.698784694948 51.5469839140222  227.210589987617 50.1626693399249  C 228.600976084415 48.8900356580884  229.653207428876 47.9376269917933  230.367296083309 47.3054333695313  C 231.568701995158 46.2427398221286  232.680448769028 45.3034835751989  233.702524342609 44.4876845717585  C 236.291903889587 42.4196635638439  238.849511316365 40.7162308116196  241.375358685253 39.3773863150857  C 244.437580719625 37.7544934348963  247.689977107473 36.5274594602302  251.132559911106 35.696304334104  C 254.982848737032 34.7667603361976  259.182136330504 34.3019883372444  263.73043475383 34.3019883372444  C 268.130764840604 34.3019883372444  272.456706671771 33.7316479805801  276.70827230964 32.5909772387596  C 280.484582998445 31.5777423722153  284.300289186326 30.0853366488227  288.155402935594 28.1137700400902  C 291.369610055199 26.4696677618795  294.809780397162 24.3824017430664  298.47591396148 21.8519620121427  C 299.939470020741 20.8418482276768  301.554215052885 19.6824609648944  303.320136995603 18.3738002237955  C 304.3792076689 17.5886436651692  305.942880887482 16.4110783428697  308.011168713657 14.8410942853889  C 309.668529881208 13.5827597463651  310.907727005124 12.6471331284338  311.728772147713 12.034214431595  C 313.095829740159 11.0135607629219  314.321770387196 10.1187674712235  315.406569964207 9.34981461348321  C 318.123001805055 7.42441608789062  320.577283498491 5.85235795669636  322.769402982207 4.63364021990042  C 325.426331455955 3.15635130299603  327.964639189371 2.04072898986835  330.384338244762 1.28676330900913  C 333.137765185325 0.428924426839127  335.848563928173 0  338.516746535613 0  C 343.212205120832 0  347.721494038948 0.432863172592967  352.04462535227 1.29859948928712  C 355.876422659493 2.06591701967645  359.655133747659 3.19464189462831  363.380782741386 4.68477411414269  C 366.45103827312 5.91262575248423  369.678115875737 7.46985625092923  373.061991424621 9.35646560947767  C 374.397687015352 10.1016862776125  375.865669941778 10.9574012285279  377.4659402039 11.9236304052403  C 378.41967073836 12.4994550914354  379.825327717532 13.3634164796632  381.682923203724 14.5155245414322  C 383.283193465846 15.5078890412352  384.479774454354 16.2448134145165  385.27266616925 16.7263076327841  C 386.585853492596 17.5235596309026  387.769962054269 18.2223030991421  388.825015978884 18.8225180944862  C 391.424841484895 20.3014223957251  393.818413580396 21.5053823003294  396.005708140771 22.4343978082992  C 398.585437841067 23.5298677032788  401.120524938152 24.3537835144246  403.610993556644 24.9061352702283  C 406.37808709257 25.519512656446  409.206698401091 25.826206335309  412.096827482206 25.826206335309  C 418.777742022148 25.826206335309  425.093566675203 24.7888703333545  431.044301441371 22.7141983294455  C 433.151984766624 21.9792981723365  435.206195878953 21.1142399182025  437.206934778357 20.1190135955352  C 438.332746203765 19.5591433225203  439.650360394277 18.8406363249539  441.159753225275 17.9634726598195  C 441.655912154714 17.6750966415889  441.998891830392 17.4794556499678  442.188668127692 17.3765496849561  C 443.410181907564 16.7134443871576  444.853630098803 16.2660527270625  446.519036826024 16.034384676179  C 447.38269810402 15.914257916441  448.358936905865 15.8543690379661  449.447765293866 15.854698097738  L 449.489983373097 15.854698097738  L 449.489983373097 18.8461505690093  L 449.446559063031 18.8461505690093  C 448.55958134299 18.8458813382869  447.783974915963 18.8919895923774  447.119739781949 18.9844553882644  C 445.953712620496 19.1465223116496  444.971840720651 19.444042202934  444.174124082415 19.8770050906094  C 444.016505899181 19.9626304318454  443.705298343702 20.1404822527707  443.240501415978 20.4105804964018  C 441.661147196538 21.3286273453103  440.271967330575 22.0858636808714  439.072973880396 22.6822895030852  C 436.924278706747 23.7509659554304  434.716876278349 24.6803803237297  432.450766595203 25.4705226364749  C 426.050505783685 27.7019467498785  419.265855391916 28.8176588065803  412.096827482206 28.8176588065803  C 408.8882534606 28.8176588065803  405.747228365766 28.4769323701025  402.673752197701 27.7954794971469  C 399.934003914809 27.1880152153141  397.160071050048 26.2878871667086  394.351965665725 25.0950953513303  C 392.027160790138 24.107716605646  389.50131342125 22.8383735215279  386.774423559061 21.2870760704843  C 385.688007632731 20.6693710496915  384.473333181694 19.9527586386902  383.130400205952 19.137218894464  C 382.327050469716 18.6495423410891  381.120819634526 17.9066051483406  379.511707700382 16.9083873732021  C 377.666982697201 15.7643263185809  376.273786082556 14.9079333051053  375.332117856449 14.3392282757919  C 373.768034519383 13.3948566451363  372.336648636496 12.5606103514564  371.037936083172 11.836479423244  C 367.797191885192 10.0296321590879  364.719698968447 8.54336888476966  361.805445270628 7.37766965727289  C 358.311392597258 5.98034226492558  354.773927676129 4.92310313252888  351.193026382625 4.205962231591  C 347.149740623068 3.39628573420847  342.924314007398 2.99145247127133  338.516746535613 2.99145247127133  C 336.287631952182 2.99145247127133  334.002222575673 3.35629998617581  331.660530468393 4.08599501598479  C 329.502981560414 4.75811455723003  327.212349204388 5.7680488545477  324.788633400315 7.11580787944604  C 322.713916363788 8.26946152499182  320.371814138025 9.77115072255354  317.762338785333 11.6208954151477  C 316.700047475706 12.3736146574772  315.497435333022 13.2513666415976  314.15450235728 14.2541713105254  C 313.343107061373 14.8599105214332  312.111147322468 15.7900129238009  310.458611078258 17.044498460645  C 308.37826094373 18.623387074982  306.803731647632 19.8089694899044  305.735011127653 20.6012357339042  C 303.93772718322 21.9332298042789  302.291222093186 23.1155515360077  300.79549585755 24.1482009290906  C 296.998281188372 26.7693813849762  293.419394300363 28.9392114919963  290.058835193523 30.6577012216593  C 285.956842179218 32.755905985009  281.878985843924 34.3487846254033  277.825242063026 35.4363471143505  C 273.210202887589 36.6744095771273  268.511933784524 37.2934408085157  263.73043475383 37.2934408085157  C 259.527118349369 37.2934408085157  255.665973445925 37.7182270594363  252.1470000435 38.5677995612773  C 249.03814512504 39.3184547014016  246.098560579682 40.4277550783067  243.328246407426 41.8956907204843  C 241.00423764419 43.1276406487115  238.633595996866 44.7088227099431  236.216309403145 46.6392369041792  C 235.239262426641 47.4196071388515  234.170939962839 48.3224972952388  233.011354074045 49.347897401833  C 232.310932014976 49.967457123158  231.272777384361 50.907311660582  229.896866057585 52.1674410710886  C 228.368173533223 53.5668425371493  227.213002449287 54.6095332390274  226.431364868084 55.2955032052146  C 225.117381432386 56.4481397569202  223.900692575855 57.4564287553786  222.781310360799 58.3203602290818  C 219.947476072762 60.5077102760754  217.115644127911 62.2380661005411  214.285826588555 63.5114277024789  C 210.872193324967 65.0477080621167  207.186349948802 66.0617406493201  203.228308522368 66.5535354355971  C 198.848086303617 67.0977803552037  193.993007191977 67.0240211087704  188.663071187448 66.3322676678054  C 183.729587071521 65.6912991182943  177.266602256573 64.8241069613974  169.274116742603 63.7307011686231  C 162.32783141892 62.7804164335825  157.329210837892 62.11252481183  154.278254999521 61.7270263033655  C 149.394624404012 61.1099893736246  145.011181548931 60.6216547007061  141.127926434279 60.2620123131016  C 136.698646807461 59.8517146636503  132.212276275214 59.5397061708967  127.668802775228 59.3259868348408  C 122.863746056324 59.0999626576198  117.549370429568 58.9618273540047  111.725687957271 58.9115709524874  C 108.203735164683 58.8800609864566  104.711335027557 59.1827959765493  101.248487545894 59.8197759227653  C 98.155868494475 60.3887501828011  94.9907187829363 61.2440762448953  91.7530384112777 62.3857441375395  C 89.0369322527552 63.3434775892335  86.0760697954643 64.5762152666114  82.8704751640217 66.0839771126898  C 81.5812556473706 66.6903744431413  80.1433440556656 67.3919697627368  78.5567524512151 68.1887630714763  C 77.6019845582371 68.6682629880964  76.1745671747982 69.3954850838625  74.2745123632069 70.3704293587745  C 72.4580131615692 71.302496148265  71.0939228969778 71.9978792182285  70.1822536317411 72.4565685971567  C 68.6579759122365 73.2234473811836  67.2785785783466 73.8991167793614  66.0440375054546 74.4835767916902  C 62.9407312488362 75.9528486159716  60.0851003696073 77.1584039618939  57.4771448677679 78.1002428294572  C 54.3239006545725 79.2390588707455  51.2554062198577 80.0996997467302  48.2716736259316 80.6821654574115  C 44.9093413597644 81.3384901296084  41.5405436963205 81.6666524657068  38.1652685732918 81.6666524657068  C 34.7028191478038 81.6666524657068  30.947267691673 81.2674231903992  26.8985900802827 80.4689746112922  C 23.5847482936901 79.8154419614018  20.1248440152644 78.905272604001  16.5188531203888 77.7384765105981  C 13.7706974085753 76.8492174059715  11.0211665936097 75.8390039064232  8.27027273780035 74.7078360119532  C 6.535025245221 73.9943446830302  4.92830164813116 73.2875242931183  3.45012607114752 72.5873947852337  C 3.03731769242043 72.3939475254248  2.42329794807529 72.1825515507883  1.60806683811209 71.9532068613242  C 1.29711259110845 71.865726819556  1.0124662386203 71.7917681429579  0.754115718339299 71.7313408030382  C 0.654830858294807 71.70807727432  0.576172545532064 71.690786679036  0.518116655434367 71.6794889602028  C 0.509636852662981 71.6778237183272  0.502930209219324 71.6765673082892  0.497984662795045 71.6756997870726  C 0.49890139822979 71.6758992172373  0.501784289925894 71.6763678781245  0.506621275575006 71.6770957982258  C 0.586606442256458 71.6891314086686  0.675107598634352 71.6951442281358  0.772112682400398 71.6951442281358  L 0.772112682400398 68.7036917568645  C 1.11709470126469 68.7036917568645  1.78433335005841 68.8428640973363  2.77382862878151 69.1211988067716  Z " fill-rule="nonzero" fill="#0085fe" stroke="none" transform="matrix(1 0 0 1 286 523 )" />
  </g>
</svg>