<?xml version="1.0" encoding="utf-8"?>
<svg version="1.1" xmlns:xlink="http://www.w3.org/1999/xlink" width="36px" height="32px" xmlns="http://www.w3.org/2000/svg">
  <g transform="matrix(1 0 0 1 -360 -544 )">
    <path d="M 36 25  C 36 22.075  33.975 19.6  31.275 18.7  L 31.275 17.575  C 31.275 12.625  28.575 8.125  24.3 5.875  C 24.075 2.725  21.15 0.25  18 0.25  C 14.85 0.25  11.925 2.725  11.25 5.875  C 7.2 8.35  4.5 12.625  4.5 17.575  L 4.5 18.7  C 1.8 19.6  0 22.075  0 25  C 0 28.825  2.925 31.75  6.75 31.75  C 8.775 31.75  10.575 30.85  11.7 29.5  C 13.5 30.625  15.75 31.075  18 31.075  C 20.25 31.075  22.5 30.4  24.3 29.5  C 25.425 30.85  27.225 31.75  29.25 31.75  C 33.075 31.75  36 28.825  36 25  Z M 15.75 7  C 15.75 5.875  16.65 4.75  18 4.75  C 19.35 4.75  20.25 5.65  20.25 7  C 20.25 8.35  19.35 9.25  18 9.25  C 16.65 9.25  15.75 8.35  15.75 7  Z M 9 25  C 9 26.35  8.1 27.25  6.75 27.25  C 5.4 27.25  4.5 26.35  4.5 25  C 4.5 23.65  5.4 22.75  6.75 22.75  C 8.1 22.75  9 23.65  9 25  Z M 27 17.575  C 27 18.025  27 18.475  26.775 18.7  C 24.3 19.825  22.5 22.3  22.5 25  L 22.5 25.45  C 21.15 26.35  19.575 26.8  18 26.8  C 16.425 26.8  14.85 26.35  13.5 25.675  L 13.5 25.225  C 13.5 22.3  11.7 19.825  9 18.925  L 9 17.8  C 9 15.1  10.35 12.4  12.375 10.825  C 13.5 12.625  15.525 13.75  18 13.75  C 20.475 13.75  22.5 12.4  23.625 10.6  C 25.65 12.4  27 14.875  27 17.575  Z M 31.5 25  C 31.5 26.35  30.6 27.25  29.25 27.25  C 27.9 27.25  27 26.35  27 25  C 27 23.65  27.9 22.75  29.25 22.75  C 30.6 22.75  31.5 23.65  31.5 25  Z " fill-rule="nonzero" fill="#888888" stroke="none" transform="matrix(1 0 0 1 360 544 )" />
  </g>
</svg>