<svg t="1697506134596" class="icon" viewBox="0 0 1024 1024" version="1.1" xmlns="http://www.w3.org/2000/svg" p-id="2372" width="16" height="16"><path d="M512 76.8c-6.4 0-32 6.4-32 6.4L172.8 230.4s-12.8 6.4-19.2 12.8c-6.4 6.4-6.4 19.2-6.4 19.2L70.4 608v25.6l6.4 6.4 6.4 12.8 224 281.6 12.8 12.8c6.4 6.4 19.2 0 19.2 0h384l12.8-12.8 217.6-268.8s12.8-19.2 19.2-25.6c0-19.2-6.4-38.4-6.4-38.4l-76.8-326.4s-6.4-19.2-6.4-25.6c-6.4-6.4-25.6-12.8-25.6-12.8L544 83.2s-19.2-6.4-32-6.4z" fill="#316CE4" p-id="2373"></path><path d="M819.2 582.4c-12.8-6.4-19.2-6.4-38.4-6.4-12.8 0-19.2-6.4-25.6-12.8 6.4-57.6-6.4-115.2-38.4-166.4 6.4-12.8 12.8-19.2 19.2-25.6 19.2-12.8 19.2-12.8 32-25.6 12.8-6.4 12.8-19.2 6.4-25.6-6.4-6.4-19.2-6.4-32 0l-32 32c-6.4 6.4-19.2 12.8-32 12.8-32-44.8-89.6-70.4-147.2-76.8 0-12.8-6.4-25.6-6.4-32 0-25.6 6.4-25.6 6.4-38.4 0-19.2-12.8-25.6-19.2-25.6-12.8 0-19.2 6.4-19.2 19.2 0 19.2 6.4 19.2 6.4 38.4 0 6.4 0 19.2-6.4 32-64 12.8-115.2 38.4-160 76.8-12.8 0-19.2-6.4-25.6-12.8-19.2-12.8-19.2-12.8-32-25.6-6.4-6.4-19.2-6.4-25.6 0-6.4 6.4-6.4 19.2 6.4 25.6 12.8 12.8 19.2 6.4 32 25.6 6.4 6.4 19.2 12.8 19.2 25.6-32 44.8-44.8 108.8-38.4 166.4-6.4 6.4-12.8 6.4-25.6 12.8-19.2 6.4-25.6 0-38.4 6.4-12.8 0-25.6 12.8-19.2 19.2 0 12.8 12.8 12.8 25.6 12.8l38.4-12.8c12.8-6.4 19.2 0 32 0 19.2 57.6 57.6 102.4 102.4 134.4 0 12.8 0 19.2-6.4 32-12.8 19.2-12.8 19.2-19.2 38.4-6.4 12.8 0 25.6 6.4 32 6.4 6.4 19.2 0 25.6-12.8 6.4-12.8 6.4-19.2 12.8-38.4 6.4-12.8 12.8-19.2 19.2-25.6 57.6 19.2 115.2 19.2 172.8 0l19.2 19.2c6.4 19.2 6.4 25.6 12.8 38.4 6.4 12.8 19.2 19.2 25.6 12.8 6.4-6.4 12.8-19.2 6.4-32s-12.8-12.8-19.2-38.4c-6.4-6.4-6.4-19.2-6.4-25.6 51.2-32 89.6-76.8 108.8-134.4 12.8-6.4 19.2-6.4 32 0 19.2 6.4 25.6 12.8 38.4 12.8 12.8 0 25.6 0 25.6-12.8 6.4-6.4-6.4-19.2-19.2-19.2z m-172.8-192c-32 25.6-70.4 51.2-89.6 64-6.4-6.4-6.4-6.4-12.8-6.4-6.4-19.2-6.4-64-12.8-108.8 44.8 0 83.2 19.2 115.2 51.2zM524.8 499.2l19.2 19.2-6.4 32-25.6 12.8-25.6-12.8-6.4-25.6 19.2-25.6h25.6z m-38.4-160c0 44.8-6.4 89.6-12.8 108.8l-6.4 6.4c-19.2-12.8-57.6-38.4-89.6-64 25.6-32 70.4-51.2 108.8-51.2zM320 524.8c0-38.4 12.8-70.4 25.6-102.4 32 25.6 64 57.6 83.2 76.8V512c-19.2 12.8-70.4 25.6-108.8 38.4v-25.6z m89.6 166.4c-38.4-25.6-64-57.6-76.8-96 38.4-12.8 83.2-19.2 108.8-19.2l6.4 6.4c-6.4 19.2-19.2 64-38.4 108.8z m102.4 32c-19.2 0-44.8-6.4-64-12.8 19.2-38.4 44.8-76.8 57.6-96h12.8c12.8 19.2 38.4 57.6 57.6 96-19.2 6.4-44.8 12.8-64 12.8z m102.4-32c-12.8-38.4-32-83.2-38.4-102.4l6.4-6.4c19.2 0 64 6.4 108.8 12.8-12.8 38.4-38.4 70.4-76.8 96zM704 550.4c-44.8-12.8-89.6-25.6-108.8-38.4v-12.8c12.8-12.8 44.8-51.2 76.8-76.8 25.6 38.4 38.4 83.2 32 128z" fill="#F2F2F2" p-id="2374"></path></svg>