<?xml version="1.0" encoding="utf-8"?>
<svg version="1.1" xmlns:xlink="http://www.w3.org/1999/xlink" width="32px" height="32px" xmlns="http://www.w3.org/2000/svg">
  <g transform="matrix(1 0 0 1 -788 -670 )">
    <path d="M 0 0  L 28 0  L 28 4  L 4 4  L 4 28  L 16 28  L 16 32  L 0 32  L 0 0  Z M 8 12  L 8 8  L 24 8  L 24 12  L 8 12  Z M 28 25  L 32 25  C 31.6 28.6  28.6 31.6  25 32  L 25 28  C 26.4 27.6  27.6 26.6  28 25  Z M 23 31.8  C 19.4 31.4  16.6 28.6  16.2 25  L 20.2 25  C 20.6 26.4  21.6 27.4  23 27.8  L 23 31.8  Z M 22 24  C 22 22.8  22.8 22  24 22  C 25.2 22  26 22.8  26 24  C 26 25.2  25.2 26  24 26  C 22.8 26  22 25.2  22 24  Z M 25 20.2  L 25 16.2  C 28.6 16.6  31.6 19.4  32 23  L 28 23  C 27.6 21.6  26.4 20.4  25 20.2  Z M 16.2 23  C 16.6 19.4  19.4 16.6  23 16.2  L 23 20.2  C 21.6 20.6  20.6 21.6  20.2 23  L 16.2 23  Z M 8 18  L 8 14  L 16 14  L 16 18  L 8 18  Z M 28 0  L 32 0  L 32 16  L 28 16  L 28 0  Z " fill-rule="nonzero" fill="#888888" stroke="none" transform="matrix(1 0 0 1 788 670 )" />
  </g>
</svg>