<?xml version="1.0" encoding="utf-8"?>
<svg version="1.1" xmlns:xlink="http://www.w3.org/1999/xlink" width="16px" height="16px" xmlns="http://www.w3.org/2000/svg">
  <g transform="matrix(1 0 0 1 -20 -11 )">
    <path d="M 13.7142857142857 13.7142857142857  L 13.7142857142857 9  L 2.28571428571429 9  L 2.28571428571429 7  L 13.7142857142857 7  L 13.7142857142857 2.28571428571429  L 2.28571428571429 2.28571428571429  L 2.28571428571429 13.7142857142857  L 13.7142857142857 13.7142857142857  Z M 0 0  L 16 0  L 16 16  L 0 16  L 0 0  Z M 3.42857142857143 5.71428571428571  L 3.42857142857143 3.42857142857143  L 5.71428571428571 3.42857142857143  L 5.71428571428571 5.71428571428571  L 3.42857142857143 5.71428571428571  Z M 3.42857142857143 12.5714285714286  L 3.42857142857143 10.2857142857143  L 5.71428571428571 10.2857142857143  L 5.71428571428571 12.5714285714286  L 3.42857142857143 12.5714285714286  Z " fill-rule="nonzero" fill="#0085fe" stroke="none" transform="matrix(1 0 0 1 20 11 )" />
  </g>
</svg>