<?xml version="1.0" encoding="utf-8"?>
<svg version="1.1" xmlns:xlink="http://www.w3.org/1999/xlink" width="16px" height="16px" xmlns="http://www.w3.org/2000/svg">
  <g transform="matrix(1 0 0 1 -20 -11 )">
    <path d="M 2.8 10.1  L 6.3 8  L 2.9 6.1  L 2.8 6.1  L 2.8 10.1  Z M 7.2 13.3  L 7.2 9.5  L 4.1 11.4  L 7.2 13.3  Z M 12.2 11.4  L 8.9 9.5  L 8.9 13.3  L 12.2 11.4  Z M 13.2 6  L 9.7 8  L 13.2 10  L 13.2 6  Z M 2 3  C 2.6 3  3.1 3.3  3.3 3.8  L 6.5 1.8  L 6.5 1.4  C 6.5 0.7  7.2 0  8 0  C 8.8 0  9.5 0.7  9.5 1.5  L 9.5 1.8  L 12.9 3.6  C 13.1 3.2  13.5 3  14 3  C 14.8 3  15.5 3.7  15.5 4.5  C 15.5 5  15.2 5.5  14.9 5.7  L 14.9 10.2  C 15.3 10.5  15.5 10.9  15.5 11.4  C 15.5 12.2  14.8 12.9  14 12.9  C 13.7 12.9  13.4 12.8  13.2 12.7  L 9.5 14.8  C 9.3 15.5  8.7 16  8 16  C 7.3 16  6.7 15.5  6.5 14.8  L 2.9 12.6  C 2.7 12.9  2.4 13  2 13  C 1.2 13  0.5 12.3  0.5 11.5  C 0.5 11  0.8 10.5  1.1 10.3  L 1.1 5.7  C 0.8 5.5  0.5 5  0.5 4.5  C 0.5 3.7  1.2 3  2 3  Z M 7.2 3.5  L 4.6 5.1  L 7.2 6.6  L 7.2 3.5  Z M 11.7 4.9  L 8.9 3.4  L 8.9 6.5  L 11.7 4.9  Z " fill-rule="nonzero" fill="#0085fe" stroke="none" transform="matrix(1 0 0 1 20 11 )" />
  </g>
</svg>