<?xml version="1.0" encoding="utf-8"?>
<svg version="1.1" xmlns:xlink="http://www.w3.org/1999/xlink" width="14px" height="14px" xmlns="http://www.w3.org/2000/svg">
  <g transform="matrix(1 0 0 1 -20 -73 )">
    <path d="M 0 6  L 0 0  L 6 0  L 6 6  L 0 6  Z M 8 14  L 8 8  L 14 8  L 14 14  L 8 14  Z M 14 0  L 8 0  L 8 6  L 14 6  L 14 0  Z M 12 2  L 12 4  L 10 4  L 10 2  L 12 2  Z M 6 8  L 0 8  L 0 14  L 6 14  L 6 8  Z M 4 10  L 4 12  L 2 12  L 2 10  L 4 10  Z " fill-rule="nonzero" fill="#0085fe" stroke="none" transform="matrix(1 0 0 1 20 73 )" />
  </g>
</svg>