<?xml version="1.0" encoding="utf-8"?>
<svg version="1.1" xmlns:xlink="http://www.w3.org/1999/xlink" width="16px" height="15px" xmlns="http://www.w3.org/2000/svg">
  <g transform="matrix(1 0 0 1 -20 -111 )">
    <path d="M 4.57142857142857 7  L 16 7  L 16 0  L 4.57142857142857 0  L 4.57142857142857 2.30769230769231  L 2.28571428571429 2.30769230769231  L 2.28571428571429 0  L 0 0  L 0 15  L 2.28571428571429 15  L 2.28571428571429 12.6923076923077  L 4.57142857142857 12.6923076923077  L 4.57142857142857 15  L 16 15  L 16 8  L 4.57142857142857 8  L 4.57142857142857 10.3846153846154  L 2.28571428571429 10.3846153846154  L 2.28571428571429 4.61538461538462  L 4.57142857142857 4.61538461538462  L 4.57142857142857 7  Z M 6.85714285714286 4.61538461538462  L 6.85714285714286 2.30769230769231  L 13.7142857142857 2.30769230769231  L 13.7142857142857 4.61538461538462  L 6.85714285714286 4.61538461538462  Z M 6.85714285714286 12.6923076923077  L 6.85714285714286 10.3846153846154  L 13.7142857142857 10.3846153846154  L 13.7142857142857 12.6923076923077  L 6.85714285714286 12.6923076923077  Z " fill-rule="nonzero" fill="#888888" stroke="none" transform="matrix(1 0 0 1 20 111 )" />
  </g>
</svg>