<?xml version="1.0" encoding="utf-8"?>
<svg version="1.1" xmlns:xlink="http://www.w3.org/1999/xlink" width="15px" height="16px" xmlns="http://www.w3.org/2000/svg">
  <g transform="matrix(1 0 0 1 -20 -490 )">
    <path d="M 15 16  L 8.57142857142857 16  L 8.57142857142857 7.46666666666667  L 15 7.46666666666667  L 15 16  Z M 10.7142857142857 9.6  L 10.7142857142857 13.8677333333333  L 12.8571428571429 13.8677333333333  L 12.8571428571429 9.6  L 10.7142857142857 9.6  Z M 15 5.33333333333333  L 8.57142857142857 5.33333333333333  L 8.57142857142857 1.0656  L 15 1.0656  L 15 5.33333333333333  Z M 6.42857142857143 16  L 0 16  L 0 11.7333333333333  L 6.42857142857143 11.7333333333333  L 6.42857142857143 16  Z M 0 1.06666666666667  L 6.42857142857143 1.06666666666667  L 6.42857142857143 9.6  L 0 9.6  L 0 1.06666666666667  Z M 4.28571428571429 7.46666666666667  L 4.28571428571429 3.2  L 2.14285714285714 3.2  L 2.14285714285714 7.46666666666667  L 4.28571428571429 7.46666666666667  Z " fill-rule="nonzero" fill="#888888" stroke="none" transform="matrix(1 0 0 1 20 490 )" />
  </g>
</svg>