<?xml version="1.0" encoding="utf-8"?>
<svg version="1.1" xmlns:xlink="http://www.w3.org/1999/xlink" width="14px" height="14px" xmlns="http://www.w3.org/2000/svg">
  <g transform="matrix(1 0 0 1 -20 -12 )">
    <path d="M 11 0  L 9 0  L 9 4.001  L 11 4.001  L 11 3.001  L 14 3.001  L 14 1.001  L 11 1.001  L 11 0  Z M 0 1.001  L 0 3.001  L 7 3.001  L 7 1.001  L 0 1.001  Z M 5 5  L 3 5  L 3 6  L 0 6  L 0 8  L 3 8  L 3 9  L 5 9  L 5 5  Z M 7 6  L 7 8  L 14 8  L 14 6  L 7 6  Z M 11 10.001  L 9 10.001  L 9 14  L 11 14  L 11 13.001  L 14 13.001  L 14 11.001  L 11 11.001  L 11 10.001  Z M 0 11.001  L 0 13.001  L 7 13.001  L 7 11.001  L 0 11.001  Z " fill-rule="nonzero" fill="#888888" stroke="none" transform="matrix(1 0 0 1 20 12 )" />
  </g>
</svg>