<?xml version="1.0" encoding="utf-8"?>
<svg version="1.1" xmlns:xlink="http://www.w3.org/1999/xlink" width="17px" height="17px" xmlns="http://www.w3.org/2000/svg">
  <g transform="matrix(1 0 0 1 -20 -11 )">
    <path d="M 15.56385409375 10.612900515625  L 15.562854109375 10.6139005  L 13.921869484375 8.971915890625  C 13.9745008491603 8.65095670008782  14.000947240716 8.32624934011223  14.000947240716 8.00100349071604  C 14.000947240716 4.68732605774846  11.3146809236836 2.00105974071604  8.00100349071604 2.00105974071604  C 4.68732605774846 2.00105974071604  2.00105974071604 4.68732605774846  2.00105974071604 8.00100349071604  C 2.00105974071604 11.3146809236836  4.68732605774846 14.000947240716  8.00100349071604 14.000947240716  C 8.32624934011222 14.000947240716  8.65095670008783 13.9745008491603  8.971915890625 13.921869484375  L 10.6139005 15.562854109375  C 9.77374180270021 15.8530315561202  8.89109751848713 16.0011639473572  8.00223893173218 16.0011639473572  C 3.58400235444207 16.0011639473572  0.00231393173217543 12.4194755246473  0.00231393173217543 8.00123894735718  C 0.00231393173217543 3.58300237006707  3.58400235444207 0.00131394735717741  8.00223893173218 0.00131394735717741  C 12.4204755090223 0.00131394735717741  16.0021639317322 3.58300237006707  16.0021639317322 8.00123894735718  C 16.0021639317322 8.89009753411214  15.8540315404952 9.7727418183252  15.56385409375 10.612900515625  Z M 10.120905125 5.17095153125  L 12.595881921875 7.645928328125  L 11.181895171875 9.0599150625  L 14.61686296875 12.494882875  C 14.0490309593872 13.3288800305329  13.3291475921051 14.0484241523521  12.494882875 14.615862984375  L 9.0599150625 11.181895171875  L 7.645928328125 12.595881921875  L 5.17095153125 10.120905125  C 4.2196414032017 9.16563758885718  3.90320184961627 7.74808182326383  4.357959140625 6.478939265625  L 6.938934953125 9.0599150625  L 9.0599150625 6.938934953125  L 6.478939265625 4.357959140625  C 7.74808182326384 3.90320184961627  9.16563758885718 4.2196414032017  10.120905125 5.17095153125  Z " fill-rule="nonzero" fill="#0085fe" stroke="none" transform="matrix(1 0 0 1 20 11 )" />
  </g>
</svg>