<?xml version="1.0" encoding="utf-8"?>
<svg version="1.1" xmlns:xlink="http://www.w3.org/1999/xlink" width="16px" height="16px" xmlns="http://www.w3.org/2000/svg">
  <g transform="matrix(1 0 0 1 -20 -300 )">
    <path d="M 8 14  C 4.7 14  2 11.3  2 8  C 2 4.7  4.7 2  8 2  C 11.3 2  14 4.7  14 8  C 14 11.3  11.3 14  8 14  Z M 16 8  C 16 3.6  12.4 0  8 0  C 3.6 0  0 3.6  0 8  C 0 12.4  3.6 16  8 16  C 12.4 16  16 12.4  16 8  Z " fill-rule="nonzero" fill="#0085fe" stroke="none" transform="matrix(1 0 0 1 20 300 )" />
  </g>
</svg>