<?xml version="1.0" encoding="utf-8"?>
<svg version="1.1" xmlns:xlink="http://www.w3.org/1999/xlink" width="10px" height="8px" xmlns="http://www.w3.org/2000/svg">
  <g transform="matrix(1 0 0 1 -23 -304 )">
    <path d="M 1.5 7.5  L 2.9 6.1  C 2.3 5.6  2 4.8  2 4  C 2 3.2  2.3 2.4  2.9 1.9  L 1.5 0.5  C 0.6 1.4  0 2.6  0 4  C 0 5.4  0.6 6.6  1.5 7.5  Z M 8 4  C 8 4.8  7.7 5.6  7.1 6.1  L 8.5 7.5  C 9.4 6.6  10 5.4  10 4  C 10 2.6  9.4 1.4  8.5 0.5  L 7.1 1.9  C 7.7 2.4  8 3.2  8 4  Z " fill-rule="nonzero" fill="#888888" stroke="none" transform="matrix(1 0 0 1 23 304 )" />
  </g>
</svg>