<?xml version="1.0" encoding="utf-8"?>
<svg version="1.1" xmlns:xlink="http://www.w3.org/1999/xlink" width="16px" height="16px" xmlns="http://www.w3.org/2000/svg">
  <g transform="matrix(1 0 0 1 -20 -262 )">
    <path d="M 0 0  L 14 0  L 14 2  L 2 2  L 2 14  L 8 14  L 8 16  L 0 16  L 0 0  Z M 4 6  L 4 4  L 12 4  L 12 6  L 4 6  Z M 14 12.5  L 16 12.5  C 15.8 14.3  14.3 15.8  12.5 16  L 12.5 14  C 13.2 13.8  13.8 13.3  14 12.5  Z M 11.5 15.9  C 9.7 15.7  8.3 14.3  8.1 12.5  L 10.1 12.5  C 10.3 13.2  10.8 13.7  11.5 13.9  L 11.5 15.9  Z M 11 12  C 11 11.4  11.4 11  12 11  C 12.6 11  13 11.4  13 12  C 13 12.6  12.6 13  12 13  C 11.4 13  11 12.6  11 12  Z M 12.5 10.1  L 12.5 8.1  C 14.3 8.3  15.8 9.7  16 11.5  L 14 11.5  C 13.8 10.8  13.2 10.2  12.5 10.1  Z M 8.1 11.5  C 8.3 9.7  9.7 8.3  11.5 8.1  L 11.5 10.1  C 10.8 10.3  10.3 10.8  10.1 11.5  L 8.1 11.5  Z M 4 9  L 4 7  L 8 7  L 8 9  L 4 9  Z M 14 0  L 16 0  L 16 8  L 14 8  L 14 0  Z " fill-rule="nonzero" fill="#888888" stroke="none" transform="matrix(1 0 0 1 20 262 )" />
  </g>
</svg>