<?xml version="1.0" encoding="utf-8"?>
<svg version="1.1" xmlns:xlink="http://www.w3.org/1999/xlink" width="14px" height="16px" xmlns="http://www.w3.org/2000/svg">
  <g transform="matrix(1 0 0 1 -21 -338 )">
    <path d="M 13.956521734375 3.08074534375  C 13.956521734375 1.093167703125  10.478260859375 0.0993788906249993  7 0.099378875  C 3.521739125 0.099378875  0.0434782656249997 0.9937888125  0.0434782656249997 3.08074534375  L 0.0434782656249997 13.018633546875  C 0.0434782656249997 15.1055900625  3.521739140625 16  7 16  C 10.478260859375 16  13.956521734375 15.1055900625  13.956521734375 13.018633546875  L 13.956521734375 3.08074534375  Z M 11.96894409375 10.23602484375  L 11.96894409375 12.91925465625  C 11.670807453125 13.217391296875  9.981366453125 14.012422359375  7 14.012422359375  C 4.018633546875 14.012422359375  2.329192546875 13.3167701875  2.03105590625 12.91925465625  L 2.03105590625 10.23602484375  C 3.322981375 10.73291925  5.211180125 11.03105590625  7 11.03105590625  C 8.788819875 11.03105590625  10.677018640625 10.732919265625  11.96894409375 10.23602484375  Z M 11.96894409375 5.26708075  L 11.96894409375 7.9503105625  C 11.670807453125 8.248447203125  9.981366453125 9.043478265625  7 9.043478265625  C 4.018633546875 9.043478265625  2.329192546875 8.34782609375  2.03105590625 7.9503105625  L 2.03105590625 5.26708075  C 3.322981375 5.76397515625  5.211180125 6.0621118125  7 6.062111796875  C 8.788819875 6.06211178125  10.677018640625 5.76397515625  11.96894409375 5.26708075  Z M 11.96894409375 3.08074534375  C 11.96894409375 3.677018640625  9.7826086875 4.07453415625  7 4.07453415625  C 4.217391296875 4.07453415625  2.03105590625 3.57763975  2.03105590625 2.981366453125  C 2.03105590625 2.38509315625  4.2173913125 1.987577640625  7 1.987577640625  C 9.7826086875 1.987577640625  11.96894409375 2.484472046875  11.96894409375 3.08074534375  Z " fill-rule="nonzero" fill="#0085fe" stroke="none" transform="matrix(1 0 0 1 21 338 )" />
  </g>
</svg>