<?xml version="1.0" encoding="utf-8"?>
<svg version="1.1" xmlns:xlink="http://www.w3.org/1999/xlink" width="16px" height="16px" xmlns="http://www.w3.org/2000/svg">
  <g transform="matrix(1 0 0 1 -20 -11 )">
    <path d="M 16 8  C 16 12.4  12.4 16  8 16  C 3.6 16  0 12.4  0 8  C 0 3.6  3.6 0  8 0  C 12.4 0  16 3.6  16 8  Z M 13.9 9  L 2.1 9  C 2.6 11.8  5 14  8 14  C 11 14  13.4 11.8  13.9 9  Z M 8 2  C 5 2  2.6 4.2  2.1 7  L 13.9 7  C 13.4 4.2  11 2  8 2  Z M 8 14  C 8.2 13.7  8.4 13.3  8.6 12.9  C 9.1 11.7  9.5 9.9  9.5 8  C 9.5 6.1  9.2 4.4  8.6 3.1  C 8.4 2.7  8.2 2.3  8 2.1  C 7.8 2.3  7.6 2.7  7.4 3.1  C 6.8 4.4  6.5 6.1  6.5 8  C 6.5 9.9  6.8 11.6  7.4 12.9  C 7.6 13.4  7.8 13.7  8 14  Z M 11.5 8  C 11.5 12.4  9.9 16  8 16  C 6.1 16  4.5 12.4  4.5 8  C 4.5 3.6  6.1 0  8 0  C 9.9 0  11.5 3.6  11.5 8  Z " fill-rule="nonzero" fill="#888888" stroke="none" transform="matrix(1 0 0 1 20 11 )" />
  </g>
</svg>