<?xml version="1.0" encoding="utf-8"?>
<svg version="1.1" xmlns:xlink="http://www.w3.org/1999/xlink" width="14px" height="16px" xmlns="http://www.w3.org/2000/svg">
  <g transform="matrix(1 0 0 1 -21 -376 )">
    <path d="M 2 2  L 2 6  L 12 6  L 12 4  L 14 4  L 14 8.9  C 14 9.8  13.9 10.4  13.8 10.7  C 13.5 11.5  13.1 12.1  12.6 12.7  L 12.3 13  L 12 13.3  C 11.2 14.1  9.6 15  7.4 15.8  L 7 16  L 6.6 15.9  C 4.2 15  2.7 14.2  1.9 13.4  C 1.2 12.7  0.6 11.8  0.2 10.8  C 0.0999999999999999 10.4  0.0999999999999999 9.8  0 8.9  L 0 0  L 14 0  L 14 2  L 2 2  Z M 11.9 7.9  L 2 7.9  C 2 9.1  2.1 9.9  2.1 10.1  C 2.3 10.7  2.8 11.5  3.3 11.9  C 3.8 12.4  5.1 13.1  7 13.8  C 8.8 13.1  10 12.4  10.5 11.9  L 10.8 11.6  C 10.9 11.5  11 11.4  11 11.3  C 11.4 10.9  11.6 10.5  11.8 10  C 11.8 9.9  11.9 9.4  11.9 8.6  L 11.9 7.9  Z M 3 5  L 3 3  L 6 3  L 6 5  L 3 5  Z " fill-rule="nonzero" fill="#888888" stroke="none" transform="matrix(1 0 0 1 21 376 )" />
  </g>
</svg>