<?xml version="1.0" encoding="utf-8"?>
<svg version="1.1" xmlns:xlink="http://www.w3.org/1999/xlink" width="14px" height="16px" xmlns="http://www.w3.org/2000/svg">
  <g transform="matrix(1 0 0 1 -21 -110 )">
    <path d="M 14 4  L 7 0  L 0 4  L 0 6  L 4 8.3  L 4 6  L 2.3 5  L 7 2.3  L 12 5.2  L 12 6.6  L 14 7.7  L 14 4  Z M 6 6  L 6 10  L 8 10  L 8 6  L 6 6  Z M 10 7.7  L 10 10  L 11.7 11  L 7 13.7  L 2 10.8  L 2 9.4  L 0 8.3  L 0 12  L 7 16  L 14 12  L 14 10  L 10 7.7  Z " fill-rule="nonzero" fill="#888888" stroke="none" transform="matrix(1 0 0 1 21 110 )" />
  </g>
</svg>