<?xml version="1.0" encoding="utf-8"?>
<svg version="1.1" xmlns:xlink="http://www.w3.org/1999/xlink" width="16px" height="16px" xmlns="http://www.w3.org/2000/svg">
  <g transform="matrix(1 0 0 1 -21 -186 )">
    <path d="M 10.5 0.8  L 10.6 0.3  L 12.4 1.1  L 9.1 8.4  L 9 8.5  L 8.9 8.6  C 8.7 8.8  8.5 9  8.1 9  C 7.5 9  7.1 8.6  7.1 8  C 7.1 7.9  7.1 7.7  7.2 7.6  L 8.1 5.7  C 6.8 5.7  5.8 6.7  5.8 8  C 5.8 9.3  6.8 10.3  8.1 10.3  C 9.4 10.3  10.4 9.3  10.4 8  L 10.4 7.7  L 11.5 5.3  C 12.2 6.1  12.5 7  12.5 8  C 12.5 10.4  10.6 12.3  8.2 12.3  C 5.8 12.3  3.9 10.4  3.9 8  C 3.9 5.6  5.8 3.7  8.2 3.7  C 8.5 3.7  8.8 3.7  9.1 3.8  L 8.9 4  L 9.6 2.5  C 9.2 2.5  8.8 2.4  8.5 2.4  L 8.2 2.4  C 5.5 2.4  3.2 4.2  2.7 6.8  C 2.2 9.4  3.5 12  6 13.1  C 8.5 14.2  11.3 13.3  12.8 11.2  C 14.3 9.1  14 6  12.2 4.1  L 13.1 2.2  C 15.9 4.6  16.6 8.7  14.7 11.8  C 12.8 14.9  8.9 16.4  5.5 15.1  C 2 13.8  0 10.2  0.7 6.6  C 1.4 3  4.6 0.3  8.3 0.4  C 9 0.4  9.8 0.5  10.5 0.8  Z " fill-rule="nonzero" fill="#888888" stroke="none" transform="matrix(1 0 0 1 21 186 )" />
  </g>
</svg>