<?xml version="1.0" encoding="utf-8"?>
<svg version="1.1" xmlns:xlink="http://www.w3.org/1999/xlink" width="14px" height="13px" xmlns="http://www.w3.org/2000/svg">
  <g transform="matrix(1 0 0 1 -115 -8 )">
    <path d="M 4.64457198572575 3.78285074295263  C 4.76798625116612 3.78285074295263  4.88630000560397 3.73361078223854  4.97327365484773 3.64605128670075  L 6.48738102169034 1.8113298220228  L 6.48738102169034 8.41829122456443  C 6.48699596110885 8.42599966924809  6.48680334086498 8.43371652342375  6.48680334086498 8.44143457959694  C 6.48680334086498 8.69762815901879  6.6944892718675 8.90531409012169  6.95068285116554 8.90531409012169  C 7.20687643046347 8.90531409012169  7.41456236146598 8.69762815901879  7.41456236146598 8.44143457959694  C 7.41456236146598 8.43371652342375  7.41436974122212 8.42599966924809  7.41398468064062 8.41829122456443  L 7.41398468064062 1.79342164196021  L 8.94253411550596 3.64605128670075  C 9.02960669565618 3.7336455220584  9.14801598794043 3.78289954093805  9.27152462842548 3.78289954093805  C 9.39503326891054 3.78289954093805  9.51344256119478 3.7336455220584  9.60051514134489 3.64605128670075  C 9.78203608279284 3.46315522307987  9.78203608279284 3.16807789972711  9.60051514134489 2.98518183610622  L 7.31057941348297 0.208836942865332  C 7.21733053548087 0.116547324055546  7.08913818913004 0.068422660203737  6.95819272897438 0.0765475260589028  C 6.82733138289643 0.0678359136550171  6.69908297390759 0.116060681584031  6.60638373206098 0.208836942865332  L 4.31587031660388 2.98518183610622  C 4.13371681518981 3.16781682786188  4.13371681518981 3.46341629494509  4.31587031660388 3.64605128670075  C 4.40284396584752 3.73361078223854  4.52115772028537 3.78285074295263  4.64457198572575 3.78285074295263  Z M 13.9013656955613 7.95556707569096  C 13.9013656880836 7.6996925421281  13.6939383927555 7.49226525276151  13.4380638593165 7.49226525276151  C 13.1823212782496 7.4925835338812  12.9750803116649 7.6998244945097  12.9747620230715 7.95556707569096  L 12.9747620230715 10.8509146928993  C 12.9747620230715 11.0432831592849  12.8187875909424 11.1992575914894  12.6264191246498 11  L 1.2749465641416 11  C 1.08256209363151 11.1992575914894  0.926603665719995 11.0432991635025  0.926603665719995 10.8509146928993  L 0.926603665719995 7.95556707569096  C 0.926603672489705 7.69961333550975  0.719176374971426 7.4921860378912  0.463301836244796 7.4921860378912  C 0.207427297518166 7.4921860378912  0 7.69961333550975  0 7.95548787436007  L 0 11.6625594144189  C 0 11.9184730153377  0.207388228680088 12.1258612508877  0.463301843014506 12  L 13.4380638593165 12  C 13.693938398043 12.1258612508877  13.9013656955613 11.9184339532692  13.9013656955613 11.6625594144189  L 13.9013656955613 7.95556707569096  Z " fill-rule="nonzero" fill="#666666" stroke="none" transform="matrix(1 0 0 1 115 8 )" />
  </g>
</svg>