<?xml version="1.0" encoding="utf-8"?>
<svg version="1.1" xmlns:xlink="http://www.w3.org/1999/xlink" width="30px" height="26px" xmlns="http://www.w3.org/2000/svg">
  <g transform="matrix(1 0 0 1 -45 -20 )">
    <path d="M 22.2 25.8  C 26.5 25.8  29.8 22.5  29.8 18.4  C 29.8 14.3  26.5 10.9  22.3 10.9  C 21 10.9  19.9 11.2  18.8 11.8  C 19.4 10.8  19.7 9.6  19.7 8.3  C 19.7 4.2  16.4 0.799999999999997  12.2 0.799999999999997  C 8.09999999999999 0.799999999999997  4.7 4.1  4.7 8.3  L 4.7 16.1  C 4.7 16.2  4.7 16.3  4.7 16.3  C 4.7 20.1  3.09999999999999 23.5  0.499999999999996 25.8  L 8.3 25.8  L 17.2 25.8  L 22.2 25.8  Z " fill-rule="nonzero" fill="#a12224" stroke="none" transform="matrix(1 0 0 1 45 20 )" />
  </g>
</svg>