<?xml version="1.0" encoding="utf-8"?>
<svg version="1.1" xmlns:xlink="http://www.w3.org/1999/xlink" width="55px" height="33px" xmlns="http://www.w3.org/2000/svg">
  <g transform="matrix(1 0 0 1 -24 -17 )">
    <path d="M 54.2 21.3  C 54.2 15.6  49.7 10.9  44.1 10.6  C 43.7 5  39.1 0.500000000000002  33.3 0.500000000000002  C 27.3 0.500000000000002  22.5 5.3  22.5 11.3  L 22.5 19.4  C 22.5 24.6  18.2 28.9  13 28.9  C 7.8 28.9  3.5 24.6  3.5 19.4  C 3.5 16.7  4.6 14.3  6.4 12.5  C 6.3 11.9  6.3 11.3  6.3 10.7  C 6.3 9.90000000000001  6.4 9.00000000000001  6.6 8.20000000000001  C 2.8 10.4  0.199999999999998 14.5  0.199999999999998 19.3  C 0.199999999999998 26.4  5.9 32.1  13 32  L 43.4 32  C 49.4 32.1  54.2 27.3  54.2 21.3  Z M 50.4 20.9  C 50.8 22.9  50.4 24.3  49.6 25.5  C 49.1 26.3  48.4 27  47.6 27.5  C 46.4 28.3  45 28.8  43.4 28.8  L 21.6 28.8  C 24.2 26.5  25.8 23.1  25.8 19.3  L 25.8 11.2  C 25.8 7.09999999999999  29.2 3.7  33.3 3.7  C 33.8 3.7  34.3 3.8  34.7 3.8  C 34.9 3.8  35.1 3.9  35.3 3.99999999999999  C 35.5 4.09999999999999  35.8 4.09999999999999  36 4.19999999999999  C 36.3 4.29999999999999  36.6 4.49999999999999  36.8 4.59999999999999  C 36.9 4.69999999999999  37.1 4.69999999999999  37.2 4.79999999999999  C 37.5 4.99999999999999  37.8 5.29999999999999  38.1 5.49999999999999  C 38.1 5.49999999999999  38.2 5.59999999999999  38.2 5.59999999999999  C 39.5 6.9  40.4 8.59999999999999  40.5 10.6  C 40.5 10.7  40.5 10.9  40.5 11  C 40.5 12.3  40.2 13.4  39.6 14.5  C 40.6 13.9  41.8 13.6  43.1 13.6  C 43.2 13.6  43.4 13.6  43.5 13.6  C 45.5 13.7  47.2 14.6  48.5 15.9  C 48.5 15.9  48.6 16  48.6 16  C 48.9 16.3  49.1 16.6  49.3 16.9  C 49.4 17  49.4 17.2  49.5 17.3  C 49.7 17.6  49.8 17.8  49.9 18.1  C 50 18.3  50.1 18.6  50.1 18.8  C 50.2 19  50.2 19.2  50.3 19.4  C 50.4 19.9  50.4 20.4  50.4 20.9  Z " fill-rule="nonzero" fill="#ffffff" stroke="none" transform="matrix(1 0 0 1 24 17 )" />
  </g>
</svg>