<?xml version="1.0" encoding="utf-8"?>
<svg version="1.1" xmlns:xlink="http://www.w3.org/1999/xlink" width="21px" height="24px" xmlns="http://www.w3.org/2000/svg">
  <g transform="matrix(1 0 0 1 -33 -13 )">
    <path d="M 3.8 14.4  C 3.7 8.3  8.5 3.5  14.5 3.5  C 15.2 3.5  15.8 3.6  16.5 3.7  C 17.9 2.8  19.4 2.2  21 1.8  C 19.1 0.799999999999999  16.8 0.199999999999999  14.5 0.199999999999999  C 6.7 0.199999999999999  0.399999999999999 6.5  0.399999999999999 14.3  C 0.399999999999999 17.8  1.7 21.1  3.9 23.6  C 4.5 22.6  5.2 21.7  6 20.9  C 4.6 19.1  3.8 16.8  3.8 14.4  Z " fill-rule="nonzero" fill="#ffffff" stroke="none" transform="matrix(1 0 0 1 33 13 )" />
  </g>
</svg>