<?xml version="1.0" encoding="utf-8"?>
<svg version="1.1" xmlns:xlink="http://www.w3.org/1999/xlink" width="24px" height="23px" xmlns="http://www.w3.org/2000/svg">
  <g transform="matrix(1 0 0 1 -88 -20 )">
    <path d="M 8.09999999999999 15.1  L 8.09999999999999 18.7  C 9.59999999999999 19.3  11.2 19.4  15.1 19.4  C 18.5 19.4  21 19.3  23.2 19  C 22.7 20.2  22.6 20.6  22.5 21.7  C 19.4 21.8  17.3 21.8  16.4 21.8  C 11.1 21.8  8.8 21.5  6.99999999999999 20.7  C 5.69999999999999 20.1  4.69999999999999 19.2  3.79999999999998 17.9  C 3.39999999999998 19.6  2.99999999999999 20.7  2.29999999999998 22.1  C 1.69999999999999 21.4  1.19999999999999 21  0.299999999999983 20.4  C 0.999999999999986 19.1  1.29999999999998 18.3  1.59999999999998 16.8  C 1.89999999999998 15.2  2.09999999999998 13.8  2.09999999999998 12.2  C 2.09999999999998 11.7  2.09999999999998 11.5  1.99999999999999 11  L 4.39999999999999 11.3  C 4.39999999999999 11.9  4.39999999999999 11.9  4.3 13.3  C 4.3 13.7  4.3 14.2  4.2 15.1  C 4.60000000000001 15.7  5 16.3  5.60000000000001 16.9  L 5.60000000000001 10  L 3.50000000000001 10  C 2.30000000000001 10  1.70000000000002 10  1.10000000000001 10.1  L 1.10000000000001 7.6  C 1.7 7.7  2.30000000000001 7.7  3.50000000000001 7.7  L 5.30000000000001 7.7  L 5.30000000000001 5.3  L 3.90000000000001 5.3  C 2.90000000000001 5.3  2.40000000000001 5.3  1.7 5.40000000000001  L 1.7 2.90000000000001  C 2.3 3.00000000000001  2.8 3.00000000000001  3.90000000000001 3.00000000000001  L 5.30000000000001 3.00000000000001  L 5.30000000000001 2.40000000000001  C 5.30000000000001 1.30000000000001  5.30000000000001 0.800000000000006  5.20000000000002 0.200000000000006  L 8 0.200000000000006  C 7.90000000000001 0.800000000000006  7.90000000000001 1.30000000000001  7.90000000000001 2.40000000000001  L 7.90000000000001 3.00000000000001  L 8.7 3.00000000000001  C 9.8 3.00000000000001  10.3 3.00000000000001  10.8 2.90000000000001  L 10.8 5.40000000000001  C 10.1 5.3  9.59999999999999 5.3  8.7 5.3  L 7.90000000000001 5.3  L 7.90000000000001 7.7  L 9.2 7.7  C 10.2 7.7  10.8 7.7  11.3 7.6  L 11.3 8  C 12.3 7.5  12.7 7.2  13.2 6.6  C 13.8 5.8  14.2 4.7  14.3 3.5  L 13.3 3.5  C 12.4 3.5  12 3.5  11.5 3.6  L 11.5 1.1  C 12.2 1.2  13 1.2  14 1.2  L 19.7 1.2  C 20.9 1.2  21.7 1.2  22.1 1.1  C 22 1.7  22 1.7  22 3.4  C 22 4.6  21.8 6.7  21.7 7.2  C 21.3 9.3  20.6 9.8  18.1 9.8  C 17.8 9.8  17.5 9.8  16.8 9.8  C 16.7 8.5  16.6 8.2  16.2 7.40000000000001  C 17 7.50000000000001  17.6 7.60000000000001  18 7.60000000000001  C 18.7 7.60000000000001  19 7.5  19.1 7.10000000000001  C 19.3 6.5  19.4 5.5  19.5 3.60000000000001  L 16.8 3.60000000000001  C 16.6 4.90000000000001  16.4 5.90000000000001  15.9 6.8  C 15.3 8.2  14.2 9.3  12.5 10.2  C 12.1 9.4  11.8 8.9  11.3 8.4  L 11.3 10.1  C 10.6 10  10.1 10  9 10  L 8.09999999999999 10  L 8.09999999999999 12.8  L 9.19999999999999 12.8  C 10.1 12.8  10.5 12.8  11.1 12.7  L 11.1 15.2  C 10.5 15.1  10 15.1  9.19999999999999 15.1  L 8.09999999999999 15.1  Z M 12 15.7  L 12 12.4  C 12 11.3  12 10.9  11.9 10.4  C 12.5 10.5  13 10.5  14.1 10.5  L 19.3 10.5  C 20.5 10.5  21.2 10.5  21.9 10.4  C 21.8 11.1  21.8 11.6  21.8 12.8  L 21.8 15.6  C 21.8 16.9  21.8 17.5  21.9 18.1  C 21.1 18  20.4 18  19.4 18  L 14.5 18  C 13.3 18  12.6 18  11.9 18.1  C 12 17.4  12 16.9  12 15.7  Z M 14.4 12.6  L 14.4 15.8  L 19.3 15.8  L 19.3 12.6  L 14.4 12.6  Z " fill-rule="nonzero" fill="#ffffff" stroke="none" transform="matrix(1 0 0 1 88 20 )" />
  </g>
</svg>