<?xml version="1.0" encoding="utf-8"?>
<svg version="1.1" xmlns:xlink="http://www.w3.org/1999/xlink" width="23px" height="23px" xmlns="http://www.w3.org/2000/svg">
  <g transform="matrix(1 0 0 1 -113 -20 )">
    <path d="M 11.5 3.3  L 11.6 3.3  C 10.8 3.2  10.4 3.2  9.09999999999999 3.2  L 2.59999999999999 3.2  C 1.3 3.2  0.899999999999991 3.2  0.0999999999999943 3.3  L 0.0999999999999943 0.9  C 0.799999999999997 1  1.39999999999999 1  2.69999999999999 1  L 8.89999999999999 1  C 10.2 1  10.8 1  11.5 0.9  L 11.5 3.3  Z M 0.40000000000002 19  L 0.400000000000006 12.1  C 0.400000000000006 11.2  0.400000000000006 10.4  0.300000000000011 9.8  C 0.800000000000011 9.8  1.50000000000001 9.9  2.30000000000001 9.9  L 9.50000000000001 9.9  C 10.5 9.9  11 9.9  11.4 9.8  C 11.4 10.4  11.3 11  11.3 11.9  L 11.3 19.7  C 11.3 21.5  10.7 21.9  8.20000000000003 21.9  C 8.00000000000003 21.9  7.90000000000003 21.9  7.60000000000004 21.9  C 7.60000000000004 20.9  7.50000000000004 20.4  7.10000000000004 19.4  C 7.80000000000004 19.5  8.20000000000003 19.5  8.60000000000004 19.5  C 9.00000000000004 19.5  9.20000000000003 19.4  9.20000000000003 19  L 9.20000000000003 11.8  L 2.70000000000003 11.8  L 2.70000000000003 19.6  C 2.70000000000003 20.8  2.70000000000003 21.4  2.80000000000003 22  L 0.300000000000026 22  C 0.40000000000002 21.2  0.40000000000002 20.4  0.40000000000002 19  Z M 10.7 5.8  L 10.7 7.3  C 10.7 8.3  10.7 8.6  10.7 9.1  C 10.3 9.1  9.90000000000001 9  9.2 9  L 3 9  C 2.09999999999999 9  1.7 9  1.2 9.1  C 1.2 8.7  1.3 8.1  1.3 7.4  L 1.3 5.8  C 1.3 5  1.3 4.5  1.2 4.1  C 1.7 4.2  2 4.2  3 4.2  L 8.90000000000001 4.2  C 9.90000000000001 4.2  10.2 4.2  10.7 4.1  C 10.7 4.6  10.7 4.8  10.7 5.8  Z M 3.10000000000001 15.4  L 3.2 15.4  C 3.5 15.4  3.8 15.4  4.3 15.5  C 4 14.6  3.7 13.9  3.09999999999999 13.1  L 4.59999999999999 12.5  C 5.09999999999999 13.1  5.59999999999999 14.1  5.89999999999999 14.9  L 4.3 15.6  L 5.7 15.6  C 6.2 14.7  6.4 13.9  6.8 12.4  L 8.7 13.1  C 8.5 13.6  7.8 15.2  7.60000000000001 15.6  C 8.00000000000001 15.6  8.2 15.6  8.60000000000001 15.5  L 8.60000000000001 17.4  C 8.2 17.4  7.90000000000001 17.3  7.30000000000001 17.3  L 6.70000000000002 17.3  L 6.70000000000002 19.8  C 6.70000000000002 20.4  6.70000000000002 20.8  6.80000000000001 21.3  L 4.60000000000001 21.3  C 4.7 20.8  4.7 20.3  4.7 19.8  L 4.7 17.3  L 4.40000000000001 17.3  C 3.80000000000001 17.3  3.5 17.3  3.10000000000001 17.4  L 3.10000000000001 15.4  Z M 8.40000000000001 7.1  L 8.40000000000001 5.9  L 3.60000000000001 5.9  L 3.60000000000001 7.1  L 8.40000000000001 7.1  Z M 19.1 4.10000000000001  L 19.1 4.2  C 20.1 4.2  20.7 4.2  21.3 4.1  C 21.2 4.8  21.2 5.4  21.2 6.5  L 21.2 11.7  C 21.2 12.9  21.2 13.6  21.3 14.2  C 20.7 14.2  20.1 14.1  19 14.1  L 17.8 14.1  L 17.8 18.1  C 18.3 18  18.6 17.9  19 17.8  C 18.8 17.2  18.7 16.8  18.3 15.8  L 20.4 15.1  C 21.3 17.5  21.6 18.6  22.3 21.3  L 20 22.3  C 19.9 21.7  19.7 21  19.5 20  C 18.4 20.4  15.8 21  13.9 21.4  C 12.7 21.6  12.6 21.6  12.1 21.8  L 11.5 18.9  C 12.8 18.9  13.1 18.9  15.4 18.5  L 15.4 14.1  L 14.2 14.1  C 13.1 14.1  12.7 14.1  12.1 14.2  C 12.2 13.5  12.2 13.1  12.2 11.8  L 12.2 6.4  C 12.2 5.10000000000001  12.2 4.70000000000001  12.1 4.00000000000001  C 12.7 4.10000000000001  13.3 4.10000000000001  14.5 4.10000000000001  L 15.4 4.10000000000001  L 15.4 2.70000000000001  C 15.4 1.60000000000001  15.4 0.900000000000009  15.3 0.20000000000001  L 18 0.20000000000001  C 17.9 0.900000000000009  17.9 1.60000000000001  17.9 2.70000000000001  L 17.9 4.10000000000001  L 19.1 4.10000000000001  Z M 15.5 11.9  L 15.5 6.5  L 14.4 6.5  L 14.4 11.9  L 15.5 11.9  Z M 17.9 6.5  L 17.9 11.9  L 19.1 11.9  L 19.1 6.5  L 17.9 6.5  Z " fill-rule="nonzero" fill="#ffffff" stroke="none" transform="matrix(1 0 0 1 113 20 )" />
  </g>
</svg>