<?xml version="1.0" encoding="utf-8"?>
<svg version="1.1" xmlns:xlink="http://www.w3.org/1999/xlink" width="24px" height="23px" xmlns="http://www.w3.org/2000/svg">
  <g transform="matrix(1 0 0 1 -136 -20 )">
    <path d="M 13.6000000000001 0.600000000000001  L 13.3 1  C 14.8 2.7  15.3 3.2  16.7 4.2  C 18.8 5.7  20.7 6.7  23.3 7.7  C 22.8 8.3  22.8 8.3  21.9 10.3  C 20.1 9.6  19.5 9.2  18 8.4  L 18 9.9  C 17.4 9.8  16.8 9.8  15.8 9.8  L 7.60000000000002 9.8  C 6.80000000000001 9.8  6.20000000000002 9.8  5.50000000000003 9.9  L 5.50000000000003 8.3  C 4.50000000000003 8.9  2.70000000000003 9.8  1.70000000000003 10.3  C 1.40000000000003 9.5  1.20000000000003 9  0.300000000000026 7.8  C 2.20000000000003 7.1  2.70000000000003 6.8  4.20000000000003 5.9  C 7.30000000000004 4.1  9.30000000000004 2.3  10.7 0  L 13.6000000000001 0.600000000000001  Z M 6.5 22.1  L 3.7 22.1  C 3.8 21.3  3.8 20.6  3.8 19.6  L 3.8 14  C 3.8 13  3.8 12.3  3.7 11.6  C 4.2 11.7  4.8 11.7  5.8 11.7  L 17.8 11.7  C 18.8 11.7  19.3 11.7  19.9 11.6  C 19.8 12.3  19.8 12.9  19.8 14  L 19.8 19.6  C 19.8 20.7  19.8 21.4  19.9 22.1  L 17 22.1  L 17 20.9  L 6.5 20.9  L 6.5 22.1  Z M 6.5 14  L 6.5 18.6  L 17 18.6  L 17 14  L 6.5 14  Z M 7.80000000000001 7.2  L 15.9 7.2  C 16.2 7.2  16.2 7.2  16.3 7.2  C 14.6 6  13.1 4.7  11.8 3.1  C 10.4 4.7  9.5 5.5  7.20000000000002 7.2  C 7.40000000000001 7.2  7.40000000000001 7.2  7.80000000000001 7.2  Z " fill-rule="nonzero" fill="#ffffff" stroke="none" transform="matrix(1 0 0 1 136 20 )" />
  </g>
</svg>