<?xml version="1.0" encoding="utf-8"?>
<svg version="1.1" xmlns:xlink="http://www.w3.org/1999/xlink" width="23px" height="24px" xmlns="http://www.w3.org/2000/svg">
  <g transform="matrix(1 0 0 1 -160 -19 )">
    <path d="M 20.3 4.7  L 18.3 4.7  C 18.3 4.8  18.3 4.8  18.5 5  C 18.8 5.4  18.9 5.7  19.2 6.2  L 17.6 6.7  C 19 6.7  19.3 6.7  19.9 6.6  C 19.9 7.2  19.8 8  19.8 9.2  L 19.8 13.7  C 19.8 15  19.8 15.7  19.9 16.2  C 19.1 16.2  18.7 16.1  17.4 16.1  L 16.8 16.1  L 16.8 17.1  L 19.8 17.1  C 21.1 17.1  21.9 17.1  22.6 17  L 22.6 19.4  C 21.8 19.3  20.9 19.3  19.8 19.3  L 16.8 19.3  L 16.8 21  C 16.8 21.9  16.8 22.5  16.9 23.2  L 14.1 23.2  C 14.2 22.6  14.2 22  14.2 21  L 14.2 19.3  L 9.39999999999998 19.3  C 8.99999999999997 20.3  8.39999999999998 21.1  7.59999999999997 21.7  C 6.59999999999997 22.5  5.39999999999998 22.9  3.29999999999996 23.4  C 2.89999999999995 22.6  2.59999999999997 22.2  1.79999999999995 21.2  C 3.69999999999996 21  3.89999999999995 21  4.69999999999996 20.7  C 5.69999999999996 20.4  6.39999999999995 19.9  6.79999999999995 19.3  L 3.59999999999997 19.3  C 2.49999999999997 19.3  1.69999999999996 19.3  0.899999999999977 19.4  L 0.899999999999977 17  C 1.59999999999997 17.1  2.39999999999998 17.1  3.59999999999997 17.1  L 7.29999999999995 17.1  C 7.29999999999995 16.7  7.29999999999995 16.7  7.29999999999995 16.1  L 6.29999999999995 16.1  C 4.99999999999994 16.1  4.49999999999994 16.1  3.79999999999995 16.2  C 3.89999999999995 15.6  3.89999999999995 15  3.89999999999995 13.8  L 3.89999999999995 8.3  C 3.89999999999995 7.60000000000001  3.89999999999995 7.10000000000001  3.89999999999995 6.60000000000001  C 4.39999999999995 6.60000000000001  4.79999999999995 6.70000000000001  5.79999999999996 6.70000000000001  L 7.19999999999996 6.70000000000001  C 6.89999999999995 5.90000000000001  6.59999999999997 5.40000000000001  6.19999999999996 4.70000000000001  L 4.99999999999997 4.70000000000001  C 3.99999999999997 6.10000000000001  3.39999999999998 6.80000000000001  2.39999999999998 7.70000000000001  C 1.89999999999998 7.00000000000001  1.39999999999998 6.40000000000001  0.699999999999989 5.70000000000001  C 1.89999999999998 4.70000000000001  2.5 4.00000000000001  3.19999999999999 3.00000000000001  C 3.89999999999998 2.00000000000001  4.19999999999999 1.40000000000001  4.39999999999998 0.700000000000006  L 6.89999999999998 1.30000000000001  C 6.79999999999998 1.40000000000001  6.59999999999997 1.80000000000001  6.29999999999998 2.50000000000001  L 9.29999999999998 2.50000000000001  C 10.3 2.50000000000001  11 2.50000000000001  11.6 2.40000000000001  L 11.6 4.50000000000001  C 12.7 3.30000000000001  13.4 2.00000000000001  13.8 0.700000000000006  L 16.3 1.30000000000001  C 16 1.80000000000001  16 2.00000000000001  15.7 2.50000000000001  L 20.3 2.50000000000001  C 21.4 2.50000000000001  22.1 2.50000000000001  22.7 2.40000000000001  L 22.7 4.8  C 22 4.7  21.3 4.7  20.3 4.7  Z M 6.5 9  L 6.5 9.4  L 17.4 9.4  L 17.4 9  L 6.5 9  Z M 6.5 11  L 6.5 12  L 17.4 12  L 17.4 11  L 6.5 11  Z M 6.5 13.6  L 6.5 14.5  L 17.4 14.5  L 17.4 13.6  L 6.5 13.6  Z M 12.2 6.9  L 12.2 6.8  C 11.8 6.3  11.3 6  10.6 5.6  C 11 5.3  11 5.2  11.4 4.9  C 11 4.9  10.3 4.9  9.59999999999999 4.9  L 8.69999999999999 4.9  C 9.09999999999999 5.5  9.19999999999999 5.7  9.59999999999999 6.4  L 7.90000000000001 6.9  L 12.2 6.9  Z M 14.4 16.3  L 10 16.3  C 10 16.7  10 17.1  10 17.3  L 14.4 17.3  L 14.4 16.3  Z M 15.9 4.7  L 14.4 4.7  C 13.9 5.5  13.3 6.2  12.8 6.7  L 17 6.7  C 16.6 5.8  16.4 5.4  15.9 4.7  Z " fill-rule="nonzero" fill="#ffffff" stroke="none" transform="matrix(1 0 0 1 160 19 )" />
  </g>
</svg>