<?xml version="1.0" encoding="utf-8"?>
<svg version="1.1" xmlns:xlink="http://www.w3.org/1999/xlink" width="22px" height="22px" xmlns="http://www.w3.org/2000/svg">
  <g transform="matrix(1 0 0 1 -184 -20 )">
    <path d="M 11.8 7.40000000000001  L 11.8 7.5  C 11.6 9.3  11.6 9.5  11.3 10.5  C 10.5 14.3  9.30000000000001 16.6  6.90000000000001 18.9  C 5.70000000000002 20.1  4.5 20.9  2.70000000000002 21.9  C 2.20000000000002 20.9  1.50000000000003 20.1  0.700000000000017 19.4  C 4.00000000000003 18  6.20000000000002 16  7.50000000000003 13.4  C 8.20000000000002 11.9  8.70000000000002 10.3  9.00000000000003 7.5  L 4.80000000000004 7.5  C 3.60000000000005 7.5  2.60000000000005 7.5  1.80000000000004 7.6  L 1.80000000000004 4.7  C 2.70000000000005 4.8  3.50000000000003 4.9  4.80000000000004 4.9  L 9.10000000000005 4.9  C 9.10000000000005 4.2  9.10000000000005 3.5  9.10000000000005 2.4  C 9.10000000000005 1.3  9.10000000000005 0.600000000000001  9.00000000000006 0.100000000000001  L 12.2 0.100000000000001  C 12.1000000000001 0.700000000000001  12.1000000000001 0.700000000000001  11.9 4.9  L 18 4.9  C 19.4 4.9  20.3 4.9  21.1 4.8  C 21 5.7  21 5.7  21 8.4  C 20.9 11.7  20.7 15.7  20.4 17.3  C 20.1 19.5  19.8 20.3  19 20.9  C 18.4 21.4  17.5 21.5  16.1 21.5  C 15 21.5  14.1 21.4  12.5 21.2  C 12.4 20  12.2 19.3  11.8 18.3  C 13.4 18.6  14.7 18.8  15.9 18.8  C 17 18.8  17.4 18.4  17.7 16.8  C 18.0000000000001 15  18.2 11.3  18.3 7.40000000000001  L 11.8 7.40000000000001  Z " fill-rule="nonzero" fill="#ffffff" stroke="none" transform="matrix(1 0 0 1 184 20 )" />
  </g>
</svg>