<?xml version="1.0" encoding="utf-8"?>
<svg version="1.1" xmlns:xlink="http://www.w3.org/1999/xlink" width="23px" height="23px" xmlns="http://www.w3.org/2000/svg">
  <g transform="matrix(1 0 0 1 -208 -20 )">
    <path d="M 6.10000000000002 10  L 6.19999999999999 15.9  C 6.29999999999998 15.8  6.29999999999998 15.8  6.39999999999998 15.7  C 6.99999999999997 15.1  7.19999999999999 15  7.69999999999999 14.4  L 7.69999999999999 17.6  C 7 18.4  5.39999999999998 19.8  3.69999999999999 21.1  L 2.5 18.6  C 3.30000000000001 18.2  3.5 17.9  3.59999999999999 17  L 3.59999999999999 10  L 3 10  C 2.30000000000001 10  1.69999999999999 10  0.900000000000006 10.1  L 0.900000000000006 7.3  C 1.70000000000002 7.4  2.20000000000002 7.4  3 7.4  L 4.40000000000001 7.4  C 5.20000000000002 7.4  5.59999999999999 7.4  6.20000000000002 7.3  C 6.10000000000002 8.2  6.10000000000002 8.5  6.10000000000002 9.7  L 6.10000000000002 10  Z M 7.59999999999999 3.5  L 5.69999999999999 5.5  C 5 4.6  3.29999999999998 3  2.09999999999999 2.1  L 4 0.400000000000002  C 5.19999999999999 1.3  6.80000000000001 2.7  7.59999999999999 3.5  Z M 10.7 3.2  L 10.7 5.8  C 10.7 13.4  10.6 15.1  10.3 17.3  C 10.1 19  9.69999999999999 20.4  8.79999999999998 22.3  C 7.89999999999998 21.3  7.39999999999998 20.9  6.79999999999998 20.6  C 7.59999999999999 19  7.79999999999998 18.2  7.99999999999997 16.8  C 8.29999999999998 14.9  8.39999999999998 12.9  8.39999999999998 5.89999999999999  C 8.39999999999998 2.49999999999999  8.39999999999998 1.89999999999999  8.29999999999998 0.799999999999992  C 9.09999999999999 0.899999999999991  9.59999999999999 0.899999999999991  10.8 0.899999999999991  L 19.6 0.899999999999991  C 21 0.899999999999991  21.7 0.899999999999991  22.4 0.799999999999992  C 22.3 1.59999999999999  22.3 2.19999999999999  22 3.49999999999999  L 22 19.6  C 22.3 20.5  22.1 21.1  21.6 21.4  C 21.1 21.8  20.4 21.9  19.1 21.9  C 18.7 21.9  18 21.9  16.9 21.8  C 16.8 20.6  16.7 20.4  16.4 19.3  C 17.7 19.5  18.3 19.5  19 19.5  C 19.8 19.5  20 19.4  20 18.9  L 20 3.2  L 10.7 3.2  Z M 14.3 7.3  L 12.8 7.3  C 12.2 7.3  11.9 7.3  11.4 7.4  L 11.4 5.2  C 11.9 5.3  12.3 5.3  12.8 5.3  L 14.3 5.3  C 14.3 4.40000000000001  14.3 4.2  14.2 3.7  L 16.5 3.7  C 16.4 4.3  16.4 4.3  16.4 5.3  L 17.7 5.3  C 18.3 5.3  18.7 5.3  19.2 5.2  L 19.2 7.4  C 18.6000000000001 7.3  18.4 7.3  17.7 7.3  L 16.4 7.3  L 16.4 9  L 17.8 9  C 18.5 9  18.8 9  19.3 8.9  L 19.3 11.1  C 18.8 11  18.5 11  17.9 11  L 12.7 11  C 12.1 11  11.7 11  11.2 11.1  L 11.2 8.9  C 11.7 9  12.0000000000001 9  12.7 9  L 14.3 9  L 14.3 7.3  Z M 17 12.1  L 17 12.2  C 17.8 12.2  18.1 12.2  18.6 12.1  C 18.5 12.7  18.5 13  18.5 13.7  L 18.5 17.3  C 18.5 17.9  18.5 18.1  18.6 18.6  C 17.5 18.6  17.3 18.5  17 18.5  L 13.5 18.5  L 13.5 20.2  L 11.4 20.2  C 11.5 19.7  11.5 19.2  11.5 18.2  L 11.5 13.7  C 11.5 13  11.5 12.7  11.4 12  C 12.1 12.1  12.3 12.1  13 12.1  L 17 12.1  Z M 13.8 14.3  L 13.8 16.5  L 16.4 16.5  L 16.4 14.3  L 13.8 14.3  Z " fill-rule="nonzero" fill="#ffffff" stroke="none" transform="matrix(1 0 0 1 208 20 )" />
  </g>
</svg>