<?xml version="1.0" encoding="utf-8"?>
<svg version="1.1" xmlns:xlink="http://www.w3.org/1999/xlink" width="23px" height="24px" xmlns="http://www.w3.org/2000/svg">
  <g transform="matrix(1 0 0 1 -232 -19 )">
    <path d="M 18.5 6.79999999999999  L 20.6 6.8  C 21.6 6.8  22.1 6.8  22.7 6.7  L 22.7 9.1  C 22.1 9  21.7 9  20.6 9  L 18.3 9  L 18.3 11.3  C 18.3 11.9  18.3 12.4  18.4 12.8  C 18.3 12.8  18.3 12.8  18.1 12.8  C 17.9 12.8  17.5 12.8  16.9 12.8  L 10.2 12.8  C 9.29999999999998 12.8  9 12.8  8.5 12.8  C 8.5 12.4  8.59999999999999 11.8  8.59999999999999 11.3  L 8.59999999999999 9  L 5.19999999999999 9  L 5.19999999999999 9.9  C 5.19999999999999 12.5  4.89999999999998 15.6  4.5 17.8  C 4.09999999999999 19.9  3.5 21.3  2.5 23.1  C 1.80000000000001 22.1  1.30000000000001 21.6  0.5 20.9  C 1.40000000000001 19.2  1.90000000000001 17.9  2.19999999999999 15.7  C 2.59999999999999 13.4  2.69999999999999 11  2.69999999999999 6.09999999999999  C 2.69999999999999 4.29999999999999  2.69999999999999 3.59999999999999  2.59999999999999 2.69999999999999  C 3.40000000000001 2.79999999999999  4.29999999999998 2.79999999999999  5.29999999999998 2.79999999999999  L 11.3 2.79999999999999  C 11.2 2.69999999999999  11.2 2.69999999999999  11.2 2.49999999999999  C 11 2.09999999999999  10.9 1.89999999999999  10.6 1.39999999999999  L 13.5 0.799999999999994  C 13.8 1.39999999999999  14.1 1.99999999999999  14.4 2.79999999999999  L 19.9 2.79999999999999  C 21.2 2.79999999999999  22.1 2.79999999999999  22.8 2.69999999999999  L 22.8 5.2  C 22 5.09999999999999  21.4 5.09999999999999  20.3 5.09999999999999  L 18.5 5.09999999999999  L 18.5 6.79999999999999  Z M 18.8 14  L 20.2 15.4  C 20 15.6  20 15.6  19.7 15.9  C 18.4 17.4  17.3 18.4  15.7 19.5  C 18 20.3  19.9 20.6  22.8 20.6  C 22.3 21.5  22.1 22.3  21.8 23.3  C 17.7 22.8  15.5 22.2  13.1 21  C 10.6 22.2  8.5 22.8  4.90000000000001 23.4  C 4.70000000000002 22.5  4.5 22  3.90000000000001 20.9  C 6.90000000000001 20.7  8.80000000000001 20.3  10.8 19.6  C 9.5 18.6  8.90000000000001 18  7.5 16.2  C 6.80000000000001 16.2  6.30000000000001 16.2  5.80000000000001 16.3  L 5.80000000000001 14  C 6.4 14.1  7.10000000000002 14.1  8.40000000000001 14.1  L 16.8 14.1  C 17.8 14.1  18.2 14.1  18.8 14  Z M 8.5 6.8  L 8.5 5.1  L 5.09999999999999 5.1  L 5.09999999999999 6.8  L 8.5 6.8  Z M 16.4 16.1  L 10.6 16.1  C 11.3 16.9  12.1 17.6  13.4 18.4  C 14.7 17.6  15.3 17.2  16.4 16.1  Z M 15.7 6.8  L 15.7 5.1  L 11 5.1  L 11 6.8  L 15.7 6.8  Z M 15.7 9  L 11 9  L 11 10.7  L 15.7 10.7  L 15.7 9  Z " fill-rule="nonzero" fill="#ffffff" stroke="none" transform="matrix(1 0 0 1 232 19 )" />
  </g>
</svg>