<?xml version="1.0" encoding="utf-8"?>
<svg version="1.1" xmlns:xlink="http://www.w3.org/1999/xlink" width="22px" height="23px" xmlns="http://www.w3.org/2000/svg">
  <g transform="matrix(1 0 0 1 -257 -20 )">
    <path d="M 12.1 3.4  L 12.1 11.5  L 18.9 11.5  C 20.2 11.5  20.9 11.5  21.8 11.3  L 21.8 14.1  C 20.9999999999999 14  19.9999999999999 13.9  18.8 13.9  L 12.2 13.9  L 12.2 19.3  C 12.2 20.3  12.2 21.3  12.3999999999999 22.4  L 9.39999999999995 22.4  C 9.49999999999994 21.3  9.59999999999994 20.4  9.59999999999994 19.3  L 9.59999999999994 14  L 3 14  C 1.80000000000001 14  0.900000000000006 14  0 14.2  L 0 11.4  C 0.800000000000011 11.5  1.5 11.6  3 11.6  L 9.5 11.6  L 9.5 3.4  L 4 3.4  C 2.80000000000001 3.4  2 3.4  1 3.5  L 1 0.800000000000001  C 1.90000000000001 0.9  2.69999999999999 0.9  4 1  L 17.7 1  C 19.1 0.9  19.8 0.9  20.7 0.800000000000001  L 20.7 3.5  C 19.8 3.4  19 3.4  17.8 3.4  L 12.1 3.4  Z M 2.19999999999999 5  L 4.5 4  C 5.90000000000001 6  6.6 7.5  7.5 9.6  L 5 10.8  C 4.19999999999999 8.4  3.5 6.9  2.19999999999999 5  Z M 17.1 4.1  L 19.6 5.2  C 18.6 7.6  17.8 9  16.3 11.1  L 13.9 9.9  C 15.5000000000001 8  16.2 6.5  17.1 4.1  Z " fill-rule="nonzero" fill="#ffffff" stroke="none" transform="matrix(1 0 0 1 257 20 )" />
  </g>
</svg>