<?xml version="1.0" encoding="utf-8"?>
<svg version="1.1" xmlns:xlink="http://www.w3.org/1999/xlink" width="22px" height="23px" xmlns="http://www.w3.org/2000/svg">
  <g transform="matrix(1 0 0 1 -281 -20 )">
    <path d="M 8.00000000000006 0.199999999999998  L 10.8 1.2  C 10.6 1.4  10.6 1.4  10.1 2.1  C 8.5 4.2  6.80000000000001 6.2  5.40000000000003 7.5  C 10.9 7.3  10.9 7.3  15.8 6.9  C 14.7 5.6  14.1 5  12.5 3.6  L 14.8 2.3  C 17.6 5  19.1 6.7  21.6 9.9  L 19.2 11.5  C 18.4 10.3  18.1 9.9  17.6 9.2  C 11.3 9.8  11.3 9.8  4.40000000000003 10.1  C 3.40000000000003 10.1  2.70000000000005 10.2  1.30000000000001 10.3  L 0.800000000000011 7.6  C 2.10000000000002 7.4  2.40000000000003 7.2  3.60000000000002 6.1  C 6.10000000000002 3.2  6.30000000000001 3  7.40000000000003 1.3  C 7.50000000000006 1.2  7.60000000000002 0.999999999999996  7.70000000000005 0.899999999999997  C 7.90000000000003 0.599999999999996  7.90000000000003 0.499999999999996  8.00000000000006 0.199999999999998  Z M 2.5 22.1  L 2.5 22.2  C 2.60000000000002 21.3  2.60000000000002 20.5  2.60000000000002 19.5  L 2.60000000000002 14  C 2.60000000000002 13.1  2.60000000000002 12.4  2.5 11.8  C 3 11.9  3.69999999999999 11.9  5 12  L 16.4 12  C 17.7 11.9  18.4 11.9  18.9 11.8  C 18.8 12.5  18.8 13  18.8 14  L 18.8 19.4  C 18.8 20.5  18.8 21.3  18.9 22.1  L 16.2 22.1  L 16.2 20.9  L 5.09999999999997 20.9  L 5.09999999999997 22.1  L 2.5 22.1  Z M 5.19999999999999 14  L 5.19999999999999 18.6  L 16.3 18.6  L 16.3 14  L 5.19999999999999 14  Z " fill-rule="nonzero" fill="#ffffff" stroke="none" transform="matrix(1 0 0 1 281 20 )" />
  </g>
</svg>