<?xml version="1.0" encoding="utf-8"?>
<svg version="1.1" xmlns:xlink="http://www.w3.org/1999/xlink" width="14px" height="12px" xmlns="http://www.w3.org/2000/svg">
  <g transform="matrix(1 0 0 1 -1693 -437 )">
    <path d="M 2.45 8.690625  L 3.915625 7.225  C 3.740625 6.853125  3.653125 6.4375  3.653125 6  C 3.653125 4.25  5.140625 2.80625  7 2.80625  C 7.39375 2.80625  7.7875 2.871875  8.1375 3.003125  L 8.8375 2.303125  C 8.246875 2.19375  7.634375 2.128125  6.978125 2.128125  C 3.040625 2.10625  0 4.709375  0 6  C 0 6.721875  0.940625 7.8375  2.45 8.690625  Z M 13.978125 6  C 14 5.278125  13.103125 4.140625  11.571875 3.2875  L 10.10625 4.753125  C 10.259375 5.125  10.346875 5.51875  10.346875 5.95625  C 10.346875 7.70625  8.859375 9.15  7 9.15  C 6.60625 9.15  6.234375 9.084375  5.884375 8.953125  L 5.140625 9.696875  C 5.73125 9.80625  6.34375 9.89375  6.978125 9.89375  C 11.090625 9.89375  13.978125 7.246875  13.978125 6  Z M 2.5143125 11.41340625  L 1.58615625 10.4856875  L 11.48546875 0.5859375  L 12.413625 1.51409375  L 2.5143125 11.41340625  Z " fill-rule="nonzero" fill="#888888" stroke="none" transform="matrix(1 0 0 1 1693 437 )" />
  </g>
</svg>