<?xml version="1.0" encoding="utf-8"?>
<svg version="1.1" xmlns:xlink="http://www.w3.org/1999/xlink" width="44px" height="22px" xmlns="http://www.w3.org/2000/svg">
  <g transform="matrix(1 0 0 1 -142 -183 )">
    <path d="M 43.8 5.7  C 42 4.5  39.6 5.1  38.1 5.7  C 38.4 3.6  36.6 1.8  35.4 0.900000000000002  C 34.2 2.4  33.9 6  36 7.5  C 34.8 8.4  32.4 9.3  30 9.3  L 0.9 9.3  C 0.6 11.7  1.2 13.8  2.1 15.6  L 2.4 16.2  C 2.7 16.5  3 16.8  3 17.1  L 6.3 17.1  C 8.4 17.1  9.9 16.8  11.1 16.5  C 11.4 16.5  11.4 16.5  11.7 16.8  C 11.7 17.1  11.7 17.1  11.4 17.1  C 10.2 17.4  8.7 17.7  7.50000000000001 17.7  L 3.6 17.7  C 6 20.4  9.9 21.9  14.7 21.9  C 24.9 21.9  33.6 17.7  37.2 8.1  C 39.9 8.4  42.6 7.8  43.8 5.7  Z " fill-rule="nonzero" fill="#00aada" stroke="none" transform="matrix(1 0 0 1 142 183 )" />
  </g>
</svg>