<?xml version="1.0" encoding="utf-8"?>
<svg version="1.1" xmlns:xlink="http://www.w3.org/1999/xlink" width="45px" height="28px" xmlns="http://www.w3.org/2000/svg">
  <g transform="matrix(1 0 0 1 -142 -178 )">
    <path d="M 23.4 0.5  L 23.4 8.9  L 27.9 8.9  L 27.9 13.4  L 30.3 13.4  C 31.5 13.4  32.4 13.1  33.6 12.8  C 34.2 12.5  34.8 12.5  35.1 12.2  C 34.5 11.3  34.2 10.4  33.9 9.5  C 33.9 8.3  34.2 6.5  35.1 5.3  L 35.7 4.7  L 36 5.3  C 37.5 6.5  38.7 8  39 9.5  C 40.8 8.9  42.9 9.2  44.4 10.1  L 45 10.4  L 44.7 11  C 43.5 13.4  40.8 14  38.1 14  C 34.2 23.3  25.5 27.5  15 27.5  C 9.6 27.5  4.5 25.7  1.8 21.2  L 1.5 20.3  C 0.3 18.5  0 16.1  0 14  L 0 13.4  L 3.9 13.4  L 3.9 8.9  L 8.4 8.9  L 8.4 4.7  L 18 4.7  L 18 0.5  L 23.4 0.5  Z " fill-rule="nonzero" fill="#394d54" stroke="none" transform="matrix(1 0 0 1 142 178 )" />
  </g>
</svg>