<?xml version="1.0" encoding="utf-8"?>
<svg version="1.1" xmlns:xlink="http://www.w3.org/1999/xlink" width="29px" height="8px" xmlns="http://www.w3.org/2000/svg">
  <g transform="matrix(1 0 0 1 -145 -195 )">
    <path d="M 28.5 0.299999999999994  C 28.5 0  0 0  0 0  C 0.600000000000001 2.1  1.8 3.9  3.6 5.09999999999999  C 5.7 5.09999999999999  7.2 4.8  8.4 4.5  C 8.7 4.5  8.7 4.5  9 4.8  C 9 5.09999999999999  9 5.09999999999999  8.7 5.09999999999999  C 8.40000000000001 5.09999999999999  8.40000000000001 5.09999999999999  8.1 5.4  C 6.9 5.7  5.7 5.99999999999999  4.5 5.99999999999999  C 8.1 7.8  12.9 7.49999999999999  18.6 5.7  C 22.2 4.49999999999999  25.5 2.7  28.5 0.299999999999994  Z " fill-rule="nonzero" fill="#039bc6" stroke="none" transform="matrix(1 0 0 1 145 195 )" />
  </g>
</svg>