<?xml version="1.0" encoding="utf-8"?>
<svg version="1.1" xmlns:xlink="http://www.w3.org/1999/xlink" width="35px" height="11px" xmlns="http://www.w3.org/2000/svg">
  <g transform="matrix(1 0 0 1 -142 -195 )">
    <path d="M 34.8 0.299999999999994  L 0.9 0  C 1.2 1.2  1.5 2.4  2.1 3.6  L 2.4 4.2  C 2.7 4.49999999999999  3 4.79999999999999  3 5.09999999999999  L 6.3 5.09999999999999  C 8.4 5.09999999999999  9.9 4.8  11.1 4.5  C 11.4 4.5  11.4 4.5  11.7 4.8  C 11.7 5.09999999999999  11.7 5.09999999999999  11.4 5.09999999999999  C 11.1 5.09999999999999  11.1 5.09999999999999  10.8 5.4  C 9.6 5.69999999999999  8.40000000000001 5.99999999999999  7.2 5.99999999999999  L 3 5.99999999999999  C 5.4 8.7  9.3 10.2  14.1 10.2  C 22.8 10.2  30.3 7.2  34.8 0.299999999999994  Z " fill-rule="nonzero" fill="#008bb8" stroke="none" transform="matrix(1 0 0 1 142 195 )" />
  </g>
</svg>