<?xml version="1.0" encoding="utf-8"?>
<svg version="1.1" xmlns:xlink="http://www.w3.org/1999/xlink" width="5px" height="5px" xmlns="http://www.w3.org/2000/svg">
  <g transform="matrix(1 0 0 1 -151 -187 )">
    <path d="M 3.9 4.1  L 3.9 1.1  L 4.2 1.1  L 4.2 4.1  L 3.9 4.1  Z M 3.3 4.1  L 3.3 1.1  L 3.6 1.1  L 3.6 4.1  L 3.3 4.1  Z M 2.7 4.1  L 2.7 1.1  L 3 1.1  L 3 4.1  L 2.7 4.1  Z M 2.1 4.1  L 2.1 1.1  L 2.4 1.1  L 2.4 4.1  L 2.1 4.1  Z M 1.5 4.1  L 1.5 1.1  L 1.8 1.1  L 1.8 4.1  L 1.5 4.1  Z M 0.899999999999997 4.1  L 0.899999999999997 1.1  L 1.2 1.1  L 1.2 4.1  L 0.899999999999997 4.1  Z M 0.600000000000001 4.4  L 0.599999999999998 0.800000000000001  L 4.5 0.800000000000001  L 4.5 4.4  L 0.600000000000001 4.4  Z " fill-rule="nonzero" fill="#20c2ef" stroke="none" transform="matrix(1 0 0 1 151 187 )" />
  </g>
</svg>