<?xml version="1.0" encoding="utf-8"?>
<svg version="1.1" xmlns:xlink="http://www.w3.org/1999/xlink" width="16px" height="15px" xmlns="http://www.w3.org/2000/svg">
  <g transform="matrix(1 0 0 1 -20 -111 )">
    <path d="M 12.6593406593407 7.28021978021978  C 13.0344322344322 7.37441130298273  13.221978021978 7.56279434850863  13.5032967032967 7.75117739403454  C 14.4410256410256 8.4105180533752  15.003663003663 9.54081632653061  15.003663003663 10.765306122449  C 15.003663003663 12.8375196232339  13.3157509157509 14.532967032967  11.2527472527473 14.532967032967  C 9.18974358974359 14.532967032967  7.5018315018315 12.8375196232339  7.5018315018315 10.765306122449  C 7.5018315018315 9.35243328100471  8.25201465201465 8.12794348508634  9.37728937728938 7.46860282574568  L 10.3150183150183 9.06985871271586  C 9.75238095238095 9.35243328100471  9.37728937728938 10.0117739403454  9.37728937728938 10.671114599686  C 9.37728937728938 11.7072213500785  10.2212454212454 12.5549450549451  11.2527472527473 12.5549450549451  C 12.2842490842491 12.5549450549451  13.1282051282051 11.7072213500785  13.1282051282051 10.671114599686  C 13.1282051282051 10.1059654631083  12.9406593406593 9.63500784929356  12.5655677655678 9.35243328100471  L 11.6278388278388 10.9536891679749  L 10.7838827838828 10.4827315541601  L 12.6593406593407 7.28021978021978  Z M 4.68864468864469 7.93956043956044  L 7.5018315018315 7.93956043956044  C 7.12673992673993 8.50470957613815  6.84542124542125 9.16405023547881  6.65787545787546 9.82339089481946  L 4.68864468864469 9.82339089481946  L 4.68864468864469 7.93956043956044  Z M 10.3150183150183 6.14992150706436  C 9.65860805860806 6.33830455259027  9.0021978021978 6.62087912087912  8.43956043956044 6.99764521193093  L 4.68864468864469 6.99764521193093  L 4.68864468864469 5.1138147566719  L 10.3150183150183 5.1138147566719  L 10.3150183150183 6.14992150706436  Z M 6.65787545787546 11.7072213500785  C 6.84542124542125 12.3665620094192  7.12673992673993 13.0259026687598  7.5018315018315 13.5910518053375  L 1 13.5910518053375  L 1 0.404238618524333  L 10.3150183150183 0.404238618524333  L 14.0659340659341 4.17189952904239  L 14.0659340659341 6.99764521193093  C 13.5032967032967 6.62087912087912  12.8468864468864 6.33830455259027  12.1904761904762 6.14992150706436  L 12.1904761904762 4.925431711146  L 9.56483516483516 2.28806907378336  L 2.81318681318681 2.28806907378336  L 2.81318681318681 11.7072213500785  L 6.65787545787546 11.7072213500785  Z " fill-rule="nonzero" fill="#0085fe" stroke="none" transform="matrix(1 0 0 1 20 111 )" />
  </g>
</svg>