<?xml version="1.0" encoding="utf-8"?>
<svg version="1.1" xmlns:xlink="http://www.w3.org/1999/xlink" width="9px" height="9px" xmlns="http://www.w3.org/2000/svg">
  <g transform="matrix(1 0 0 1 -28 -193 )">
    <path d="M 6.484 2.359  C 6.16894927704381 2.09565249281582  5.80350363634648 1.89931903407992  5.41 1.782  L 5.04 0.4  L 3.96 0.4  L 3.589 1.782  C 3.1955769082526 1.89901966720778  2.83013716440196 2.09500969742936  2.515 2.358  L 1.037 1.967  L 0.499000000000001 2.833  L 1.602 3.823  C 1.51474366558017 4.20238081735563  1.51474366558017 4.59661918264437  1.602 4.976  L 0.499000000000001 5.966  L 1.037 6.833  L 2.515 6.441  C 2.83005072295619 6.70434750718419  3.19549636365353 6.9006809659201  3.589 7.018  L 3.96 8.4  L 5.038 8.4  L 5.41 7.017  C 5.813 6.897  6.177 6.698  6.484 6.441  L 7.96 6.833  L 8.499 5.967  L 7.396 4.976  C 7.48306833885009 4.59693547892586  7.48306833885009 4.20306452107415  7.396 3.824  L 8.499 2.833  L 7.96 1.967  L 6.484 2.359  Z M 4.5 2.65  C 5.54 2.65  6.385 3.433  6.385 4.4  C 6.385 5.366  5.541 6.15  4.5 6.15  C 3.46 6.15  2.615 5.366  2.615 4.4  C 2.615 3.433  3.459 2.65  4.5 2.65  Z " fill-rule="nonzero" fill="#0085fe" stroke="none" transform="matrix(1 0 0 1 28 193 )" />
  </g>
</svg>