<?xml version="1.0" encoding="utf-8"?>
<svg version="1.1" xmlns:xlink="http://www.w3.org/1999/xlink" width="37px" height="20px" xmlns="http://www.w3.org/2000/svg">
  <g transform="matrix(1 0 0 1 -144 -183 )">
    <path d="M 36.1 5.7  C 36.4 5.7  36.4 5.7  36.1 5.7  C 36.4 3.6  34.6 1.8  33.4 0.900000000000002  C 32.2 2.4  31.9 6  34 7.5  C 32.8 8.4  30.4 9.3  28 9.3  L 0.699999999999999 9.3  C 0.699999999999999 12.9  1.9 15.6  4.6 17.4  C 6.7 17.4  8.2 17.1  9.4 16.8  C 9.7 16.8  9.7 16.8  10 17.1  C 10 17.4  10 17.4  9.7 17.4  C 8.5 17.7  7 18  5.8 18  C 9.40000000000001 19.8  14.2 19.8  19.9 17.7  C 26.2 15  32.2 10.5  36.1 5.7  Z " fill-rule="nonzero" fill="#24b8eb" stroke="none" transform="matrix(1 0 0 1 144 183 )" />
  </g>
</svg>