<?xml version="1.0" encoding="utf-8"?>
<svg version="1.1" xmlns:xlink="http://www.w3.org/1999/xlink" width="10px" height="9px" xmlns="http://www.w3.org/2000/svg">
  <g transform="matrix(1 0 0 1 -146 -183 )">
    <path d="M 4.1 8.1  L 4.1 5.1  L 4.4 5.1  L 4.4 8.1  L 4.1 8.1  Z M 3.5 8.1  L 3.5 5.1  L 3.8 5.1  L 3.8 8.1  L 3.5 8.1  Z M 2.9 8.1  L 2.9 5.1  L 3.2 5.1  L 3.2 8.1  L 2.9 8.1  Z M 2.3 8.1  L 2.3 5.1  L 2.6 5.1  L 2.6 8.1  L 2.3 8.1  Z M 1.7 8.1  L 1.7 5.1  L 2 5.1  L 2 8.1  L 1.7 8.1  Z M 1.1 8.1  L 1.1 5.1  L 1.4 5.1  L 1.4 8.1  L 1.1 8.1  Z M 0.800000000000001 8.4  L 0.799999999999997 4.8  L 4.7 4.8  L 4.7 8.4  L 0.800000000000001 8.4  Z M 8.9 3.6  L 8.9 0.600000000000003  L 9.2 0.600000000000003  L 9.2 3.6  L 8.9 3.6  Z M 8.3 3.6  L 8.3 0.600000000000003  L 8.59999999999999 0.600000000000003  L 8.59999999999999 3.6  L 8.3 3.6  Z M 7.7 3.6  L 7.7 0.600000000000003  L 8 0.600000000000003  L 8 3.6  L 7.7 3.6  Z M 7.09999999999999 3.6  L 7.09999999999999 0.600000000000003  L 7.4 0.600000000000003  L 7.4 3.6  L 7.09999999999999 3.6  Z M 6.49999999999999 3.6  L 6.49999999999999 0.600000000000003  L 6.79999999999999 0.600000000000003  L 6.79999999999999 3.6  L 6.49999999999999 3.6  Z M 5.9 3.6  L 5.9 0.600000000000003  L 6.19999999999999 0.600000000000003  L 6.19999999999999 3.6  L 5.9 3.6  Z M 5.6 3.90000000000001  L 5.59999999999999 0.300000000000004  L 9.49999999999999 0.300000000000004  L 9.49999999999999 3.90000000000001  L 5.6 3.90000000000001  Z " fill-rule="nonzero" fill="#00acd3" stroke="none" transform="matrix(1 0 0 1 146 183 )" />
  </g>
</svg>