<?xml version="1.0" encoding="utf-8"?>
<svg version="1.1" xmlns:xlink="http://www.w3.org/1999/xlink" width="9px" height="9px" xmlns="http://www.w3.org/2000/svg">
  <g transform="matrix(1 0 0 1 -156 -183 )">
    <path d="M 3.4 3.6  L 3.4 0.600000000000001  L 3.7 0.600000000000001  L 3.7 3.6  L 3.4 3.6  Z M 2.8 3.6  L 2.8 0.600000000000001  L 3.1 0.600000000000001  L 3.1 3.6  L 2.8 3.6  Z M 2.2 3.6  L 2.2 0.600000000000001  L 2.5 0.600000000000001  L 2.5 3.6  L 2.2 3.6  Z M 1.6 3.6  L 1.6 0.600000000000001  L 1.9 0.600000000000001  L 1.9 3.6  L 1.6 3.6  Z M 1 3.6  L 0.999999999999996 0.600000000000001  L 1.3 0.600000000000001  L 1.3 3.6  L 1 3.6  Z M 0.399999999999999 3.6  L 0.399999999999999 0.600000000000001  L 0.699999999999996 0.600000000000001  L 0.699999999999996 3.6  L 0.399999999999999 3.6  Z M 0.100000000000001 3.9  L 0.0999999999999979 0.300000000000001  L 4 0.300000000000001  L 4 3.9  L 0.100000000000001 3.9  Z M 7.9 8.1  L 7.9 5.1  L 8.2 5.1  L 8.2 8.1  L 7.9 8.1  Z M 7.3 8.1  L 7.3 5.1  L 7.6 5.1  L 7.6 8.1  L 7.3 8.1  Z M 6.7 8.1  L 6.7 5.1  L 7 5.1  L 7 8.1  L 6.7 8.1  Z M 6.1 8.1  L 6.1 5.1  L 6.4 5.1  L 6.4 8.1  L 6.1 8.1  Z M 5.5 8.1  L 5.5 5.1  L 5.8 5.1  L 5.8 8.1  L 5.5 8.1  Z M 4.9 8.1  L 4.9 5.1  L 5.2 5.1  L 5.2 8.1  L 4.9 8.1  Z M 4.6 8.40000000000001  L 4.6 4.8  L 8.5 4.8  L 8.5 8.40000000000001  L 4.6 8.40000000000001  Z " fill-rule="nonzero" fill="#20c2ef" stroke="none" transform="matrix(1 0 0 1 156 183 )" />
  </g>
</svg>