<?xml version="1.0" encoding="utf-8"?>
<svg version="1.1" xmlns:xlink="http://www.w3.org/1999/xlink" width="4px" height="5px" xmlns="http://www.w3.org/2000/svg">
  <g transform="matrix(1 0 0 1 -156 -187 )">
    <path d="M 3.4 4.1  L 3.4 1.1  L 3.7 1.1  L 3.7 4.1  L 3.4 4.1  Z M 2.8 4.1  L 2.8 1.1  L 3.1 1.1  L 3.1 4.1  L 2.8 4.1  Z M 2.2 4.1  L 2.2 1.1  L 2.5 1.1  L 2.5 4.1  L 2.2 4.1  Z M 1.6 4.1  L 1.6 1.1  L 1.9 1.1  L 1.9 4.1  L 1.6 4.1  Z M 1 4.1  L 0.999999999999996 1.1  L 1.3 1.1  L 1.3 4.1  L 1 4.1  Z M 0.399999999999999 4.1  L 0.399999999999999 1.1  L 0.699999999999996 1.1  L 0.699999999999996 4.1  L 0.399999999999999 4.1  Z M 0.100000000000001 4.4  L 0.0999999999999979 0.800000000000001  L 4 0.800000000000001  L 4 4.4  L 0.100000000000001 4.4  Z " fill-rule="nonzero" fill="#00acd3" stroke="none" transform="matrix(1 0 0 1 156 187 )" />
  </g>
</svg>