<?xml version="1.0" encoding="utf-8"?>
<svg version="1.1" xmlns:xlink="http://www.w3.org/1999/xlink" width="16px" height="16px" xmlns="http://www.w3.org/2000/svg">
  <g transform="matrix(1 0 0 1 -786 -7 )">
    <path d="M 13.7142857142857 16  L 16 13.7142857142857  L 12.7074285714286 10.4217142857143  C 13.3417142857143 9.38171428571428  13.7142857142857 8.16457142857143  13.7142857142857 6.85714285714286  C 13.7142857142857 3.0700474297317  10.644238284554 0  6.85714285714286 0  C 3.0700474297317 0  0 3.0700474297317  0 6.85714285714286  C 0 10.644238284554  3.0700474297317 13.7142857142857  6.85714285714286 13.7142857142857  C 8.11542857142857 13.7142857142857  9.34857142857143 13.3657142857143  10.4217142857143 12.7074285714286  L 13.7142857142857 16  Z M 6.85714285714286 11.4285714285714  C 4.33241257220209 11.4285714285714  2.28571428571429 9.38187314208363  2.28571428571429 6.85714285714286  C 2.28571428571429 4.33241257220209  4.33241257220209 2.28571428571429  6.85714285714286 2.28571428571429  C 9.38187314208363 2.28571428571429  11.4285714285714 4.33241257220209  11.4285714285714 6.85714285714286  C 11.4285714285714 9.38187314208363  9.38187314208363 11.4285714285714  6.85714285714286 11.4285714285714  Z " fill-rule="nonzero" fill="#0085fe" stroke="none" transform="matrix(1 0 0 1 786 7 )" />
  </g>
</svg>