<?xml version="1.0" encoding="utf-8"?>
<svg version="1.1" xmlns:xlink="http://www.w3.org/1999/xlink" width="16px" height="16px" xmlns="http://www.w3.org/2000/svg">
  <g transform="matrix(1 0 0 1 -40 -40 )">
    <path d="M 8 0  C 3.58172200135365 0  0 3.58172200135365  0 8  C 0 12.4182779986463  3.58172200135365 16  8 16  C 12.4182779986463 16  16 12.4182779986463  16 8  C 16 3.58172200135365  12.4182779986463 0  8 0  Z M 14.2857142857143 8  C 14.2857142857143 11.4662857142857  11.4662857142857 14.2857142857143  8 14.2857142857143  C 4.53006246198725 14.2819350800974  1.71806491990262 11.4699375380127  1.71428571428571 8  C 1.71428571428571 4.53371428571429  4.53371428571429 1.71428571428571  8 1.71428571428571  C 11.4662857142857 1.71428571428571  14.2857142857143 4.53371428571429  14.2857142857143 8  Z " fill-rule="nonzero" fill="#bdbdbd" stroke="none" transform="matrix(1 0 0 1 40 40 )" />
  </g>
</svg>