<?xml version="1.0" encoding="utf-8"?>
<svg version="1.1" xmlns:xlink="http://www.w3.org/1999/xlink" width="5px" height="4px" xmlns="http://www.w3.org/2000/svg">
  <g transform="matrix(1 0 0 1 -160 -183 )">
    <path d="M 3.9 3.6  L 3.9 0.600000000000001  L 4.2 0.600000000000001  L 4.2 3.6  L 3.9 3.6  Z M 3.3 3.6  L 3.3 0.600000000000001  L 3.6 0.600000000000001  L 3.6 3.6  L 3.3 3.6  Z M 2.7 3.6  L 2.7 0.600000000000001  L 3 0.600000000000001  L 3 3.6  L 2.7 3.6  Z M 2.1 3.6  L 2.1 0.600000000000001  L 2.4 0.600000000000001  L 2.4 3.6  L 2.1 3.6  Z M 1.5 3.6  L 1.5 0.600000000000001  L 1.8 0.600000000000001  L 1.8 3.6  L 1.5 3.6  Z M 0.900000000000002 3.6  L 0.900000000000002 0.600000000000001  L 1.2 0.600000000000001  L 1.2 3.6  L 0.900000000000002 3.6  Z M 0.600000000000001 3.9  L 0.600000000000001 0.300000000000001  L 4.50000000000001 0.300000000000001  L 4.50000000000001 3.9  L 0.600000000000001 3.9  Z " fill-rule="nonzero" fill="#00acd3" stroke="none" transform="matrix(1 0 0 1 160 183 )" />
  </g>
</svg>