<?xml version="1.0" encoding="utf-8"?>
<svg version="1.1" xmlns:xlink="http://www.w3.org/1999/xlink" width="48px" height="7px" xmlns="http://www.w3.org/2000/svg">
  <g transform="matrix(1 0 0 1 -139 -193 )">
    <path d="M 17.7 5.6  C 17.4 5.3  17.7 5.00000000000001  18.3 5  C 18.6 5  18.3 5.3  18.3 5.3  C 18.3 5.6  18.3 5.6  18.6 5.6  C 18.6 5.6  18.9 5.6  18.9 5.3  C 19.2 5.6  18.9 6.2  18.6 6.2  L 18.3 6.2  C 18 6.2  17.7 5.9  17.7 5.6  Z M 3 0.5  C 3.3 1.7  0.9 2.3  0 2.3  L 48 2.3  C 47.1 2  44.7 1.7  45 0.200000000000003  C 43.2 2.3  38.4 1.7  37.5 0.799999999999997  C 36 2.9  28.5 2  28.2 0.5  C 26.7 2.3  21.6 2.3  20.1 0.5  C 19.5 2  12 2.9  10.5 0.799999999999997  C 9.3 2  4.8 2.6  3 0.5  Z " fill-rule="nonzero" fill="#394d54" stroke="none" transform="matrix(1 0 0 1 139 193 )" />
  </g>
</svg>