<?xml version="1.0" encoding="utf-8"?>
<svg version="1.1" xmlns:xlink="http://www.w3.org/1999/xlink" width="8px" height="4px" xmlns="http://www.w3.org/2000/svg">
  <g transform="matrix(1 0 0 1 -182 -13 )">
    <path d="M 7.78761061946903 0.771929824561404  L 4.33274336283186 3.88771929824561  C 4.24778761061947 3.9719298245614  4.10619469026549 4  3.9646017699115 4  C 3.82300884955752 4  3.68141592920354 3.9719298245614  3.59646017699115 3.88771929824561  L 0.169911504424779 0.8  C -0.0283185840707965 0.631578947368422  -0.0283185840707965 0.350877192982457  0.141592920353982 0.182456140350878  C 0.339823008849557 0.0140350877192989  0.651327433628319 0.0140350877192989  0.849557522123894 0.182456140350878  L 3.9646017699115 2.98947368421053  L 7.07964601769912 0.182456140350878  C 7.27787610619469 0.0140350877192989  7.58938053097345 0.0140350877192989  7.78761061946903 0.182456140350878  C 7.9858407079646 0.350877192982457  7.9858407079646 0.631578947368422  7.78761061946903 0.771929824561404  Z " fill-rule="nonzero" fill="#888888" stroke="none" transform="matrix(1 0 0 1 182 13 )" />
  </g>
</svg>