<?xml version="1.0" encoding="utf-8"?>
<svg version="1.1" xmlns:xlink="http://www.w3.org/1999/xlink" width="16px" height="15px" xmlns="http://www.w3.org/2000/svg">
  <g transform="matrix(1 0 0 1 -20 -73 )">
    <path d="M 10.9525372282849 0.465675613210855  L 1 0.465675613210855  L 1 14.5393029941799  L 15 14.5393029941799  L 15 4.48771727087862  L 10.9525372282849 0.465675613210855  Z M 3 12.529790062408  L 3 2.477199068789  L 10.1281098809741 2.477199068789  L 12.9439076213049 5.3200718042213  L 12.9439076213049 12.529790062408  L 3 12.529790062408  Z M 6.96979640890741 5.49197111002033  L 6.96979640890741 7.50248931210995  L 11.9482224247949 7.50248931210995  L 11.9482224247949 5.49197111002033  L 6.96979640890741 5.49197111002033  Z M 3.98274080270869 5.49197111002033  L 3.98274080270869 7.50248931210995  L 5.97411121239745 7.50248931210995  L 5.97411121239745 5.49197111002033  L 3.98274080270869 5.49197111002033  Z M 3.98274080270869 8.5077484047402  L 3.98274080270869 10.5182666068298  L 5.97411121239745 10.5182666068298  L 5.97411121239745 8.5077484047402  L 3.98274080270869 8.5077484047402  Z M 6.96979640890741 8.5077484047402  L 6.96979640890741 10.5192718603184  L 11.9482224247949 10.5192718603184  L 11.9482224247949 8.5077484047402  L 6.96979640890741 8.5077484047402  Z " fill-rule="nonzero" fill="#888888" stroke="none" transform="matrix(1 0 0 1 20 73 )" />
  </g>
</svg>