<?xml version="1.0" encoding="utf-8"?>
<svg version="1.1" xmlns:xlink="http://www.w3.org/1999/xlink" width="14px" height="14px" xmlns="http://www.w3.org/2000/svg">
  <g transform="matrix(1 0 0 1 -21 -149 )">
    <path d="M 4 8  L 7 8  C 6.6 8.6  6.3 9.3  6.1 10  L 4 10  L 4 8  Z M 10 6.1  C 9.3 6.3  8.6 6.6  8 7  L 4 7  L 4 5  L 10 5  L 10 6.1  Z M 6.1 12  C 6.3 12.7  6.6 13.4  7 14  L 0 14  L 0 0  L 10 0  L 14 4  L 14 7  C 13.4 6.6  12.7 6.3  12 6.1  L 12 4.8  L 9.2 2  L 2 2  L 2 12  L 6.1 12  Z " fill-rule="nonzero" fill="#888888" stroke="none" transform="matrix(1 0 0 1 21 149 )" />
  </g>
</svg>